<svg width="40" height="41" viewBox="0 0 40 41" fill="none" xmlns="http://www.w3.org/2000/svg">
<path d="M22.0103 16.0503L17.9507 14.6954V8.8243L22.0153 10.0286L22.0103 16.0503Z" fill="#02031C"/>
<path d="M23.0688 10.0286L27.1335 8.8243L27.1193 14.6914L23.0688 16.0503V10.0286Z" fill="#02031C"/>
<path d="M26.3054 8.18872L22.5172 7.01796L18.7783 8.18872L22.5226 9.19238L26.3054 8.18872Z" fill="#02031C"/>
<path d="M32.2472 16.0503L28.1875 14.6954V8.8243L32.2521 10.0286L32.2472 16.0503Z" fill="#02031C"/>
<path d="M33.3057 10.0286L37.3703 8.8243L37.3561 14.6914L33.3057 16.0503V10.0286Z" fill="#02031C"/>
<path d="M36.5422 8.18872L32.754 7.01796L29.0151 8.18872L32.7594 9.19238L36.5422 8.18872Z" fill="#02031C"/>
<path d="M6.65983 18.6097L2.59521 17.4054V23.2765L6.6549 24.6313L6.65983 18.6097Z" fill="#02031C"/>
<path d="M7.71387 18.6097L11.7785 17.4054L11.7644 23.2725L7.71387 24.6313V18.6097Z" fill="#02031C"/>
<path d="M10.9504 16.7693L7.16217 15.5985L3.42334 16.7693L7.16765 17.7729L10.9504 16.7693Z" fill="#02031C"/>
<path d="M16.8917 24.6313L12.832 23.2765V17.4054L16.8967 18.6097L16.8917 24.6313Z" fill="#02031C"/>
<path d="M17.9507 18.6097L22.0153 17.4054L22.0012 23.2725L17.9507 24.6313V18.6097Z" fill="#02031C"/>
<path d="M21.1872 16.7693L17.399 15.5985L13.6602 16.7693L17.4045 17.7729L21.1872 16.7693Z" fill="#02031C"/>
<path d="M11.7735 33.2119L7.71387 31.857V25.9859L11.7785 27.1903L11.7735 33.2119Z" fill="#02031C"/>
<path d="M12.832 27.1903L16.8967 25.9859L16.8825 31.8531L12.832 33.2119V27.1903Z" fill="#02031C"/>
<path d="M16.0686 25.3503L12.2803 24.1796L8.5415 25.3503L12.2858 26.354L16.0686 25.3503Z" fill="#02031C"/>
</svg>
