<svg width="41" height="41" viewBox="0 0 41 41" fill="none" xmlns="http://www.w3.org/2000/svg">
<path d="M15.5186 12.841L13.2441 13.2104L11.1692 14.1202L9.40683 15.2288L7.72968 17.2753L6.78232 18.2789L5.86595 18.6166L5.62372 18.0243L6.04743 17.4128L6.14266 16.5503L6.42634 16.5619L6.73645 16.8448L6.65276 15.9662L6.30898 15.7355L6.31971 15.4007L5.50541 15.8613L4.7681 16.7313L4.61426 17.5087L4.92973 18.1313L5.22374 19.1889L5.82182 19.4721L6.45089 19.4412L7.0475 19.0946L6.64954 21.1129L7.0475 23.3585L6.60943 24.3953L5.17452 25.9414L5.42963 26.865L6.1094 27.9352L7.391 28.837L8.07077 28.9302L8.82659 28.9557L8.35499 30.8916L10.089 31.6021L12.2493 31.8864L12.9884 31.4033L13.0452 30.0955L13.8697 28.731L13.9266 27.6509L15.9164 27.7931L17.764 27.6226L15.9164 28.731L16.2292 30.0672L17.3945 31.8864L18.5315 32.3696L19.4412 32L19.8106 31.261L21.7152 29.8113L22.0847 30.1238L25.0695 30.2377L25.6664 29.7546L25.7231 28.9015L25.5243 28.5322L25.382 26.2296L24.3872 24.2398L24.5578 23.3586L25.1547 23.6714L26.8318 25.2347L27.6562 25.2917L28.5657 24.922L29.4755 24.2398L29.9302 22.7617L32.6024 22.9322L34.2226 22.307L35.5301 21.0846L36.4682 19.3221L36.6954 17.2471L36.4965 14.8308L35.985 12.6706L35.4733 11.9885L34.7628 11.761L33.5119 13.1253L32.3749 13.5233L31.3799 11.8746L30.3851 10.9651L29.8449 10.624L27.6845 8.83307L25.9506 7.89497L24.2166 7.75293L22.1985 8.09402L20.436 8.74763L19.2137 9.7426L18.2473 10.9082L17.2525 11.1925L15.5183 12.8411" fill="#A8B2B3"/>
<path d="M8.92279 17.971C6.97496 20.243 7.40766 22.9983 7.94753 25.6982C7.65949 24.9703 7.37138 24.2424 7.08321 23.5146L6.76465 21.5124C6.79496 20.83 6.82514 20.1475 6.85572 19.4652L7.67445 17.5089L8.9028 15.6891L10.8136 14.0969L12.9063 13.2325L15.3631 12.9141L13.0883 15.5072C11.2617 16.0995 10.1848 16.4987 8.92265 17.971" fill="#CED4D4"/>
<path d="M18.0928 11.0484C16.7388 12.3696 15.9991 13.3661 15.1372 14.9131C14.5208 16.0196 13.8294 17.0855 13.1812 18.1767C12.8535 18.729 12.8225 19.192 12.7244 19.829L11.769 18.6916C11.9209 18.2366 12.0724 17.7817 12.224 17.3268L13.7709 14.5517L17.0466 11.3215C17.3954 11.2304 17.7441 11.1396 18.0928 11.0484ZM24.7807 7.77295C23.696 8.1795 21.8949 8.31349 21.7699 9.55821C21.6809 10.4424 21.8365 10.8866 22.3694 11.822C21.0532 10.46 20.7277 10.6707 18.1839 11.094L19.2757 9.54721L21.1865 8.36419L23.6434 7.81828L24.7808 7.77295" fill="#CED4D4"/>
<path d="M27.7737 24.6116C28.1347 24.8345 28.127 24.996 28.0666 25.1488C28.3514 25.0348 28.6362 24.9208 28.921 24.8071L29.4747 24.0637L29.8855 23.0046L29.3604 22.6098L27.0655 22.9028C27.0089 23.0573 26.9517 23.2119 26.8947 23.3667C26.9109 23.5863 26.9274 23.8061 26.9435 24.0257C27.0168 24.1561 27.0901 24.2862 27.1635 24.4164C27.2774 24.4733 27.3911 24.5304 27.5051 24.5873C27.5949 24.5954 27.6842 24.6037 27.7737 24.6116ZM27.5601 20.6871C26.4097 21.0191 26.4187 21.1105 26.0791 22.2518C26.5275 21.5324 26.8594 21.1693 27.5601 20.6871ZM35.2087 12.1469C35.0043 12.2415 34.805 12.2868 34.6773 12.474C34.4021 12.8766 34.1663 13.2153 33.7112 13.4979C33.4819 13.6403 33.2449 13.7326 33.0019 13.8084C32.8003 13.871 32.679 13.815 32.5075 13.9385C32.6094 13.956 32.7112 13.9739 32.813 13.9918H33.4864L34.3165 13.4793L34.8047 12.9665L35.2087 12.1469ZM16.885 14.6997C16.4326 15.9381 16.0371 16.9996 15.3517 18.1207C16.23 17.1742 16.7626 16.3697 17.2657 15.2998C17.4613 14.884 17.4982 14.3963 18.0426 14.5776C18.067 14.9929 18.1547 15.4076 18.1791 15.8226C18.4733 13.7144 19.3027 12.8325 21.2308 12.0142L19.5951 12.2096L18.0569 12.5513L17.3002 13.6499L16.885 14.6997ZM20.6204 14.6509C21.0362 16.6078 21.635 18.4862 21.895 20.4742C22.0639 21.766 22.0823 22.3866 21.4324 23.5013C20.7221 23.4553 20.2811 23.5353 19.5939 23.7605C16.8586 24.6572 15.2897 25.9757 13.4468 23.3191L15.2119 24.151C15.6313 24.0685 16.0508 23.9863 16.4701 23.9035C17.2107 23.4724 17.9512 23.0411 18.6919 22.6098L20.4251 22.2678L20.9867 19.9244L20.5716 16.8238C20.5555 16.3355 20.5391 15.8473 20.5228 15.3591C20.5555 15.123 20.5881 14.8869 20.6204 14.651V14.6509ZM25.3322 26.7601C25.1025 28.35 25.8614 29.2047 25.5471 29.6438C25.4582 29.768 25.3376 29.9851 25.2031 30.0446C24.7222 30.257 24.0611 30.0048 24.014 30.1291H22.4271L21.7924 29.8606L22.7689 28.7131C23.0862 28.0216 23.4037 27.3297 23.7209 26.6379L24.3312 24.5385H24.6487L25.3322 26.7601Z" fill="#657374"/>
<path d="M22.6651 22.1377C22.794 22.8596 23.0179 23.0312 23.3575 23.73C23.1315 24.8701 22.7684 26.2257 22.3314 27.2317C22.1471 27.6559 21.9985 27.8899 21.6734 28.2177C21.1248 28.7716 20.5704 29.2539 19.9485 29.7341C19.5005 30.0792 19.1879 29.9062 18.6355 29.828C18.4005 30.2539 18.3357 30.4906 17.9031 30.7068C17.2381 31.0392 16.643 30.3228 16.1209 29.9011C16.4978 30.49 16.8748 31.0784 17.2514 31.6671C17.5119 31.9112 17.7723 32.1552 18.0327 32.3994L18.6919 32.4972L19.5706 31.9599C19.7254 31.6671 19.8799 31.374 20.0346 31.0812C20.3601 30.8371 20.6858 30.593 21.011 30.3486C21.4099 30.007 21.8087 29.6651 22.2075 29.3233L22.9642 28.2491L23.6476 26.9797C23.9408 26.1008 24.2338 25.2219 24.5268 24.3431C24.5511 24.0094 24.5754 23.6758 24.5999 23.3419C24.2338 23.1794 23.8676 23.0164 23.5013 22.8537C23.2327 22.6015 22.9336 22.39 22.6651 22.1377ZM13.9067 27.2238C15.1389 27.2238 16.4402 27.1554 17.5689 26.6378C17.8881 26.1589 18.2034 25.7675 18.5942 25.3441C18.2386 26.0158 18.127 26.3954 18.0327 27.1505L17.6665 27.6877C16.7387 27.712 15.8111 27.7364 14.8833 27.761C14.5821 27.7282 14.2811 27.6958 13.98 27.6633C13.9474 27.6304 13.9149 27.598 13.8823 27.5655C13.8906 27.4515 13.8987 27.3376 13.9067 27.2238ZM13.736 26.3694L13.6402 25.5024C13.4298 26.7696 13.4803 27.6189 12.8971 28.754C12.4615 29.2586 11.9251 29.7179 11.3108 29.9638C11.3627 30.2749 11.3783 30.4694 11.3481 30.6976C11.2398 31.5185 9.5981 31.1558 8.92263 31.123L12.1734 31.96L12.9057 31.6671C12.9873 31.1952 13.0687 30.7229 13.15 30.2511L13.8335 28.9817L13.9556 28.2004L13.7359 26.3695L13.736 26.3694ZM11.9047 19.2161C11.8708 19.8324 11.831 20.0893 12.1027 20.6333C12.4481 21.3249 12.8722 21.9749 13.2475 22.6584L13.3696 21.2912C12.8815 20.5994 12.3931 19.9078 11.9049 19.2162L11.9047 19.2161ZM6.89325 23.8705C6.78742 24.0953 6.682 24.3204 6.57617 24.5453C6.86696 25.5252 7.1257 26.1458 7.67952 27.0016C7.58295 27.3484 7.51078 27.5001 7.28893 27.7827C6.80151 27.7078 6.36867 27.6861 5.87467 27.6877C6.41991 28.1106 6.96515 28.5341 7.51038 28.9573C7.77891 28.9082 8.04757 28.8593 8.3161 28.8107L9.12181 28.0051L7.97433 26.2228C7.6138 25.4388 7.25352 24.6545 6.89325 23.8705ZM35.2122 11.8228C35.5443 13.3166 35.9728 14.6953 35.9329 16.2254C35.8841 18.1026 35.5183 20.4738 33.7789 21.6058C31.8311 22.8736 29.5445 22.2739 27.4074 21.7306L30.0197 22.8049C30.8335 22.8457 31.6474 22.8864 32.4611 22.9269C33.0145 22.7642 33.5679 22.6015 34.1211 22.4387C34.5525 22.0806 34.9838 21.7227 35.4152 21.3645L36.3916 19.3139L36.7578 16.9457C36.6603 16.1725 36.5624 15.3995 36.4649 14.6263L35.9278 12.3315C35.6893 12.1619 35.4509 11.9922 35.2122 11.8228ZM6.14401 16.2753C5.25983 16.8509 4.91243 17.1036 5.00941 18.1703L5.27364 19.1287L5.64826 19.3822L6.11101 19.5364L6.94825 19.338C7.09163 18.8937 7.23475 18.4494 7.37786 18.0051L6.18813 18.5891H5.91277C5.80998 18.4311 5.70715 18.2732 5.60427 18.1153L5.97889 17.5644L6.17714 16.5178C6.26164 16.5435 6.34614 16.5693 6.43051 16.5948C6.53338 16.6758 6.63613 16.7566 6.739 16.8372L6.69488 16.2865L6.48563 15.934C6.41589 15.875 6.34614 15.8165 6.27639 15.7576L6.14401 16.2753ZM25.9831 7.87012C26.768 8.59898 27.7312 9.23233 28.3589 10.123C28.6018 10.4677 28.8717 10.644 28.3549 11.1311C28.9009 10.9751 29.104 10.992 29.5413 11.045C30.3366 11.1413 31.0821 12.272 31.1296 13.0821C31.1202 13.1579 30.9087 13.33 30.2937 13.4998C30.2816 13.5234 29.9466 13.4539 29.9549 13.4767C30.0189 13.6515 30.1042 13.6783 30.2347 13.76C30.2629 13.9545 30.2811 14.2545 30.4136 14.4673C30.8006 14.4603 31.1788 14.5025 31.5578 14.5775C31.6852 14.789 31.6661 15.0006 31.6554 15.2122L32.0948 15.1391C32.0543 14.8054 32.0135 14.4718 31.9729 14.1381C32.103 13.9184 32.2331 13.6986 32.3635 13.4791L31.8019 12.2095C31.4439 11.8677 31.0859 11.5258 30.7276 11.184L30.6243 11.179C30.2216 10.9318 29.8189 10.6847 29.4162 10.4375L27.4459 8.82552L25.9831 7.87012ZM27.3052 13.8854C27.2637 13.9578 27.2012 14.0735 27.1212 14.1537C27.448 14.4628 27.6094 14.6699 27.7259 15.1073C27.3563 15.2907 26.9869 15.4743 26.6174 15.6575L25.6793 16.5569C25.2676 16.3353 25.1652 16.1652 24.966 15.7427C24.7339 15.8043 24.5144 15.8634 24.3228 15.793C24.4443 15.7939 24.5189 15.7636 24.6404 15.6885L25.2373 15.0684C25.5887 14.8023 25.9402 14.5359 26.2916 14.27L26.9817 14.045C27.0695 14.0089 27.2173 13.9216 27.3052 13.8854Z" fill="#657374"/>
<path d="M28.3253 14.9888C27.1495 15.6219 26.0236 16.2584 25.4224 17.4606C25.4224 15.9346 26.9546 15.2629 28.3251 14.9886L28.3253 14.9888ZM25.1891 11.9868C24.316 12.5821 23.6987 13.7833 23.7763 14.954C23.4919 13.9403 23.5927 12.9825 24.4657 12.2823C24.6132 12.2108 24.7604 12.1391 24.9078 12.0676C25.0015 12.0407 25.0952 12.0139 25.1891 11.9868Z" fill="#657374"/>
<path d="M36.9371 14.7507C36.7788 13.7523 36.5163 12.7833 36.152 12.0865C36.1078 12.0013 36.0404 11.9149 35.957 11.8325C35.7761 11.6542 35.5082 11.4852 35.2315 11.3901C34.9383 11.2892 34.6291 11.2687 34.3837 11.3969C34.3199 11.4304 34.2607 11.4733 34.2079 11.527C34.049 11.688 33.9149 11.8838 33.7806 12.0797C33.6313 12.2981 33.4811 12.5175 33.3014 12.6709C33.0931 12.849 32.8325 12.9571 32.5866 13.0558C32.4831 12.8048 32.3587 12.5629 32.2147 12.3327C32.0466 12.0647 31.8552 11.8138 31.6446 11.5628C31.4906 11.378 31.3159 11.2113 31.124 11.0661C30.9424 10.9276 30.7565 10.8109 30.54 10.6754C29.9597 10.3119 29.4654 9.87842 28.9613 9.43606C28.7323 9.23513 28.5009 9.03233 28.2746 8.84576C27.0741 7.85588 25.9544 7.37583 24.7569 7.30059C23.5676 7.22574 22.3118 7.55248 20.829 8.17672C20.1132 8.47784 19.5818 8.83382 19.1188 9.26183C18.6766 9.67092 18.3012 10.142 17.8884 10.692C17.6483 10.7091 17.4356 10.7446 17.2185 10.8315C16.9792 10.9273 16.7383 11.0824 16.4496 11.3371C16.2487 11.5143 16.052 11.6962 15.8595 11.8826C15.6831 12.0537 15.5099 12.2279 15.3398 12.4053C13.99 12.6222 12.8901 12.8616 11.9051 13.2431C10.8978 13.6334 10.0098 14.1702 9.09787 14.9787C8.7388 15.2959 8.41145 15.6473 8.12047 16.028C7.8431 16.3913 7.60569 16.7733 7.39738 17.1761C7.21497 17.378 7.03215 17.5817 6.83431 17.76C6.64143 17.9337 6.43581 18.08 6.20538 18.1687L6.20551 18.1688C6.07152 18.2205 6.01612 18.2506 6.01008 18.2486C6.00338 18.2449 5.99962 18.2247 5.99023 18.1877C6.32113 17.872 6.37317 17.408 6.40375 16.9474C6.44346 16.9949 6.48155 17.0534 6.52112 17.1146C6.56484 17.182 6.60964 17.2516 6.66329 17.3194L6.88796 17.6028L6.96683 17.2492C7.03309 16.9529 7.08272 16.5585 7.00546 16.2164C6.95556 15.9944 6.85255 15.7966 6.67309 15.6564C6.69025 15.6116 6.70648 15.5703 6.72245 15.5296C6.77878 15.3854 6.83686 15.2374 6.88608 15.0977L6.98346 14.8207L6.69374 14.8708C6.30825 14.9379 5.47987 15.3931 4.89641 15.9985C4.67979 16.2234 4.49348 16.4719 4.37129 16.7327C4.24414 17.004 4.18713 17.288 4.23649 17.5721C4.27941 17.8205 4.40375 18.0643 4.62949 18.2942C4.67067 18.4601 4.70863 18.6041 4.74927 18.7339C4.79581 18.8816 4.84584 19.0137 4.90848 19.1438C5.07829 19.4968 5.34896 19.7125 5.66229 19.8131C5.91405 19.894 6.1925 19.898 6.46559 19.8382C6.41014 20.1635 6.37671 20.4922 6.36553 20.822C6.34822 21.2828 6.36512 21.7918 6.41583 22.3825C6.42696 22.5122 6.44372 22.6548 6.46532 22.8098C6.4841 22.9421 6.50636 23.0719 6.53037 23.2008C6.4794 23.34 6.42803 23.4795 6.37679 23.6188L6.13845 24.2675L5.614 24.7873C5.45077 24.9487 5.28753 25.1104 5.12443 25.272C5.11102 25.2854 5.05589 25.3383 5.00599 25.3864C4.67536 25.7046 4.60991 25.7678 4.7038 26.3276C4.76395 26.6859 4.8809 27.0323 5.05026 27.3537C5.21255 27.6629 5.43038 27.9639 5.7099 28.2442C6.05864 28.5937 6.6303 29.0281 7.22878 29.2555C7.57081 29.3854 7.9233 29.449 8.2542 29.3958C8.2373 29.4468 8.22094 29.4975 8.20229 29.5487C8.14992 29.694 8.09175 29.8371 8.02793 29.9777C7.62192 30.8676 8.03866 31.3324 8.6873 31.6282C9.01123 31.7757 9.39631 31.876 9.75403 31.9694C9.82727 31.9882 9.9005 32.0075 9.99278 32.0324C10.4166 32.147 11.1491 32.3574 11.8182 32.3997C12.5484 32.4458 13.2069 32.295 13.3834 31.6397C13.4532 31.3799 13.4938 31.181 13.5103 30.9861C13.5255 30.8053 13.5197 30.6226 13.4985 30.3964C13.7067 29.935 13.7949 29.8053 13.9472 29.5828C13.977 29.5388 14.013 29.4862 14.0239 29.4696C14.1871 29.2278 14.2636 29.0561 14.2914 28.8628C14.3182 28.6762 14.2954 28.4903 14.2617 28.2062C14.2585 28.1793 14.2537 28.1399 14.2466 28.0877C14.667 28.1423 15.0904 28.1713 15.5144 28.1746C15.7271 28.1759 15.9397 28.1696 16.1523 28.1585C16.0979 28.1863 16.0447 28.2139 15.9865 28.2438L15.9073 28.2844C15.3435 28.5744 15.32 29.1237 15.4965 29.6888C15.6556 30.1983 15.9831 30.7186 16.1886 31.035C16.6205 31.7007 17.0327 32.2642 17.5325 32.5704C18.0562 32.8914 18.6547 32.9292 19.4272 32.5111C19.8202 32.2984 19.9441 32.0815 20.111 31.7891C20.1621 31.6999 20.2184 31.6027 20.2812 31.5068C20.4435 31.3992 20.8476 31.0659 21.2442 30.7379C21.3793 30.6263 21.5142 30.5153 21.6665 30.3912C21.7713 30.4683 21.898 30.5219 22.051 30.5583C22.2498 30.606 22.4865 30.6274 22.7702 30.6478C22.9825 30.6634 23.6749 30.6628 24.1222 30.6627C24.2604 30.6627 24.3751 30.6627 24.4439 30.6631C24.9057 30.6659 25.2784 30.6416 25.5601 30.482C25.8603 30.3118 26.0383 30.0104 26.0772 29.4699C26.0941 29.2298 26.0973 29.0817 26.0639 28.9305C26.0328 28.7889 25.972 28.6605 25.8677 28.4728C25.8613 28.2392 25.8551 28.0055 25.8489 27.7719C25.8424 27.5242 25.8355 27.2762 25.829 27.0285C25.8211 26.7363 25.7889 26.4989 25.7296 26.2654C25.6709 26.0335 25.5869 25.8104 25.4745 25.5427C25.4046 25.3741 25.3385 25.2038 25.2763 25.0322L25.1143 25.0915L25.1392 25.0824L25.2763 25.0322V25.0315C25.1797 24.7711 25.0845 24.5174 24.9511 24.2461C24.9597 24.1938 24.9685 24.1374 24.9769 24.0773L25.2344 24.3255L25.614 24.6913C25.9035 24.9701 26.1681 25.2237 26.479 25.407C26.8005 25.5968 27.162 25.7069 27.6301 25.6846C28.1202 25.6615 28.6447 25.4551 29.0764 25.1366C29.4941 24.8282 29.8293 24.4124 29.9692 23.9522L30.0904 23.553L30.1873 23.2345C30.8746 23.3509 31.6123 23.3885 32.3248 23.3139C33.0123 23.2416 33.6765 23.0665 34.2494 22.761C35.0915 22.3117 35.7228 21.6499 36.1766 20.864H36.1768C36.6838 19.9857 36.9678 18.9508 37.0756 17.8858C37.1621 17.0317 37.1149 15.8705 36.9371 14.7507ZM28.0326 21.929C27.6366 21.7957 27.3612 21.6012 27.0133 21.3819C27.1079 21.8088 27.151 22.2603 27.0249 22.6864C26.8248 23.3627 26.5015 24.469 27.4197 24.6731C27.7691 24.7507 27.9276 24.7395 28.4208 24.485C28.0216 24.5754 27.8203 24.5534 27.5459 24.5024C27.2972 24.4567 27.1654 24.2988 27.0959 24.1125C27.1828 24.1751 27.3244 24.2092 27.5667 24.2675C28.2472 24.4317 28.8958 24.1039 29.0226 23.632C29.0964 23.3563 29.0839 23.2114 29.2407 22.8356C29.3816 22.8792 29.5271 22.9187 29.6765 22.955L29.4236 23.7797C29.2049 24.4933 28.3525 25.0687 27.6001 25.0554C26.9045 25.0432 26.4633 24.6074 25.983 24.1802C25.6522 23.8857 25.3338 23.6041 25.0183 23.3251C24.1525 23.0519 23.4586 22.7327 22.655 22.1378C23.2269 22.8098 23.6147 23.1819 24.4122 23.5163C24.2963 24.6993 23.8851 25.562 23.5346 26.6942C23.3758 27.206 22.1234 29.2576 21.7763 29.4575C21.5288 29.6001 19.9786 30.9057 19.6871 31.0781C19.4698 31.3665 19.2792 31.7651 18.9526 31.9376C17.9577 32.4638 17.3183 31.4563 16.7828 30.6056C16.5391 30.2179 15.862 29.1014 16.4522 28.7886C17.0102 28.4932 17.3227 28.282 17.8921 27.9081C17.9758 28.0606 18.1191 28.2079 18.2126 28.3601L18.1507 27.8603C18.1131 27.5585 18.1147 27.3135 18.1386 27.0098C18.1619 26.7158 18.185 26.4218 18.2081 26.1276C18.1224 26.4266 17.9512 26.7255 17.8658 27.0242C17.8316 27.1438 17.8033 27.2404 17.7869 27.33C16.5095 27.591 15.2413 27.6072 13.9635 27.3793C13.882 26.9063 13.7827 26.4133 13.6994 26.0599C13.6742 26.4556 13.6905 27.5498 13.6884 28.1625C13.6868 28.6371 13.667 28.7996 13.4221 29.2034C13.193 29.5813 13.096 29.6672 12.775 30.3059C12.8019 30.709 12.8023 30.9752 12.6952 31.3577C12.5172 31.9937 10.7208 31.501 10.2471 31.3712C9.6635 31.2115 8.45714 30.9741 8.76054 30.1962C9.02746 29.5116 9.19673 28.7897 9.32724 27.8318C8.25809 26.2916 7.26392 24.181 7.07306 22.311C6.92485 20.859 7.01377 19.9653 7.3279 19.0771C7.82579 17.6699 8.52246 16.4517 9.64003 15.4708C11.1476 14.1479 12.5568 13.6167 14.7635 13.2807C14.2329 13.8749 13.7079 14.5029 13.1357 15.1764C12.5564 15.8582 12.2124 16.5468 11.8444 17.2927C11.3364 18.3227 11.3474 18.7146 12.0208 19.6189C12.6012 20.3982 12.9145 20.7489 13.168 21.5115C12.9588 21.9428 12.8826 22.3075 12.8123 22.8965C13.5229 23.6735 14.0511 24.2057 14.7411 24.3696C15.418 24.5306 15.9831 24.4995 16.5889 24.1899C17.9338 23.5023 19.1782 22.6144 20.6954 22.5776C21.3973 20.8522 21.3263 19.4103 20.9894 17.7408C20.7592 16.6006 20.6668 15.521 20.5953 14.3586C20.3108 15.5557 20.2573 16.6084 20.4684 17.8009C20.723 19.2378 20.9208 20.8255 20.2129 22.0885C18.8409 22.1935 17.6652 23.0282 16.4288 23.6685C15.9318 23.926 15.4143 23.9511 14.8642 23.8001C14.3536 23.6598 14.009 23.3219 13.459 22.6875C13.4502 22.0505 13.594 21.7566 13.8866 21.1796C14.3565 20.2532 14.8752 19.3909 15.4445 18.4795C14.7475 19.3207 14.0871 20.0237 13.5385 20.8696C13.3287 20.2722 13.0288 19.9688 12.5321 19.296C12.047 18.6389 11.9963 18.3514 12.3591 17.5909C12.7238 16.8267 13.0331 16.1551 13.654 15.4848C14.7266 14.3263 15.7094 13.037 16.8825 11.8961C17.5194 11.2767 17.7781 11.298 18.6229 11.1701C19.3867 11.0542 20.1322 10.9081 20.9109 10.7273C20.1578 10.7975 19.4297 10.8232 18.6964 10.8413L18.6736 10.842C19.3952 9.92067 19.8139 9.40722 20.9855 8.89807C23.8703 7.6453 25.7033 7.50983 27.9695 9.4146C28.5568 9.90846 29.0697 10.3877 29.6651 10.8136C29.4492 10.8321 29.2631 10.8708 29.017 10.9674C29.3165 10.9103 29.6624 10.9669 29.9734 11.0237C30.0605 11.0804 30.1504 11.1356 30.242 11.1897C30.6625 11.4374 30.9011 11.5742 31.1855 11.9703C31.4859 12.3889 31.7365 12.8073 31.9571 13.2684C31.8125 13.2166 31.6911 13.173 31.583 13.141C31.4625 13.0857 31.3301 13.0611 31.1978 13.0693C31.0654 13.0775 30.9371 13.1182 30.8243 13.1879L30.8068 13.196C30.5742 13.3093 30.214 13.4383 29.9729 13.4775C30.0959 13.5199 30.368 13.5359 30.4962 13.485C30.5134 13.4783 30.5308 13.4729 30.5488 13.4688C30.4893 13.57 30.4527 13.683 30.4415 13.7998C30.4264 13.9541 30.4563 14.1094 30.5274 14.2471L30.5281 14.2486C30.5498 14.2999 30.5802 14.3469 30.6134 14.381C30.5033 14.4216 30.3908 14.4681 30.2747 14.5184C30.8125 14.4365 31.2972 14.4225 31.8218 14.4915C31.8564 14.6569 31.8913 14.8322 31.9237 15.0105L31.7287 15.0258C31.7235 15.0262 31.7182 15.0266 31.713 15.0271C31.4647 14.8287 31.1882 14.8621 30.8103 14.9484C29.6611 15.2103 29.9311 15.8551 29.4026 16.8267C29.9515 16.1558 29.9107 15.4538 30.8052 15.2418C31.0137 15.1926 31.1556 15.1308 31.2967 15.152C31.0428 15.2797 30.8232 15.4915 30.736 15.7373C30.4906 16.4306 30.6429 17.0148 30.3732 17.6623C30.7072 17.0834 30.7274 16.5185 31.0263 15.9093C31.1336 15.6906 31.5317 15.3406 31.776 15.3352L31.9772 15.3308C32.0363 15.716 32.0721 16.0987 32.0493 16.416C32.0076 16.9952 31.8571 17.8548 31.7671 18.1838C32.0697 17.7947 32.2075 16.9708 32.3405 16.3905C32.4789 15.7867 32.4439 15.062 32.3228 14.4131C32.1564 13.5228 33.0733 13.6677 33.6056 13.2481C33.9968 12.9397 34.2663 12.4473 34.625 12.0983C34.9808 11.7522 35.5411 12.2607 35.681 12.5988C36.2878 14.0671 36.5642 16.377 36.404 17.8571C36.224 19.5179 35.422 21.3309 33.9571 22.1486C32.0898 23.1908 29.888 22.554 28.0326 21.929ZM25.3793 29.3053C25.3184 29.9906 25.09 30.0358 24.4883 30.0253C24.2149 30.0205 23.1263 30.0155 22.85 29.9918C22.4597 29.9581 22.2405 29.9232 22.1213 29.8342C22.7345 29.384 23.7764 27.5255 23.9797 26.8856C24.1945 26.2096 24.4297 25.6197 24.6046 24.9949C24.685 25.2561 24.7485 25.5148 24.8656 25.7922C25.061 26.2557 25.1566 26.5421 25.1706 27.0393L25.2148 28.6131C25.3829 28.9071 25.4091 28.9698 25.3793 29.3052V29.3053ZM6.92404 24.1142C7.31342 25.4613 7.97682 26.785 8.71225 27.8979V27.9173C8.66598 28.1087 8.61273 28.2949 8.501 28.4445C7.97521 29.1478 6.63821 28.1154 6.25111 27.7206C5.82807 27.2884 5.54492 26.777 5.47746 26.2971C5.42837 25.9472 5.47612 25.9387 5.72023 25.6911L6.70769 24.6914L6.92404 24.1142ZM6.18029 15.6426C6.0805 15.8568 6.00968 16.0193 5.96153 16.1864C5.75189 16.9104 6.05636 17.5567 5.39899 18.0815C5.70789 18.7047 5.69367 18.9533 6.4122 18.6654C6.68932 18.554 6.91787 18.3984 7.12202 18.2142C7.0232 18.4709 6.93235 18.7306 6.8496 18.9929C6.83538 19.0372 6.82183 19.0818 6.80882 19.1261C6.29497 19.3442 5.6191 19.4827 5.3605 18.9427C5.23495 18.6805 5.164 18.4233 5.07239 18.092C4.22617 17.2153 5.49114 16.0578 6.18029 15.6426ZM6.59623 16.5713C6.49174 16.4667 6.40818 16.396 6.27311 16.4113C6.28451 16.3228 6.29967 16.2374 6.321 16.1571C6.33173 16.1158 6.34326 16.0753 6.3556 16.0347C6.53077 16.1368 6.57691 16.3217 6.59623 16.5712V16.5713ZM31.9705 13.2967C32.0025 13.364 32.0338 13.4326 32.0647 13.5019C32.0392 13.5207 32.0149 13.5404 31.9923 13.5612C31.9506 13.4639 31.8904 13.3756 31.8151 13.3013C31.8655 13.2994 31.9173 13.2978 31.9707 13.2967H31.9705ZM7.53969 17.2762L7.53956 17.2761V17.2762H7.53969ZM14.0448 27.8869H14.0451H14.0448ZM21.6718 30.1639H21.6717H21.6718ZM24.7715 24.272H24.7718L24.7717 24.2721L24.7715 24.272ZM6.26775 18.33H6.26761L6.26184 18.3153L6.26761 18.3302L6.26775 18.33ZM36.0249 20.7763L36.0289 20.7787L36.0249 20.7763ZM3.28176 18.1192C3.41643 16.5945 3.71285 15.9362 4.79608 14.7888C3.43735 15.7462 3.09827 16.1813 3.28176 18.1191" fill="#02031C"/>
<path d="M2.93119 16.8736C3.08074 16.1874 3.22023 15.9284 3.64341 15.3652C2.9568 15.8447 2.86747 16.0416 2.93105 16.8736H2.93119ZM18.8725 7.30762C18.0584 7.50385 17.9032 7.65434 17.6591 8.45228C18.0486 7.86801 18.2729 7.67795 18.8725 7.30762Z" fill="#02031C"/>
<path d="M20.1562 7.19154C18.5417 7.58722 18.0673 7.86863 17.531 9.73986C18.2127 8.36933 18.7288 7.86474 20.1562 7.19141V7.19154ZM23.6334 14.0128C23.8055 13.2504 24.1113 12.5158 25.2952 11.9474C23.7259 12.3404 23.4316 12.9996 23.6334 14.013V14.0128ZM33.619 14.0655C34.5484 13.7342 34.9964 12.987 35.2189 12.1079C34.8552 12.8447 34.2938 13.4609 33.5313 13.8383C33.1221 14.0409 32.8607 13.9702 32.4037 13.9268C32.8684 14.0603 33.1629 14.2281 33.619 14.0655ZM27.2879 14.8126C27.1687 14.5627 26.9561 14.3696 26.6959 14.2749C26.924 14.1533 27.1478 14.0254 27.3225 13.8665C26.8108 14.1034 26.2151 14.0455 25.776 14.3421C25.3893 14.6034 24.8554 15.4312 24.4624 15.7823C24.747 15.6717 25.0213 15.4806 25.2739 15.2793C25.2753 15.4705 25.3288 15.6577 25.4286 15.8209C25.5284 15.984 25.6707 16.1168 25.8403 16.2052C25.695 16.3955 25.5794 16.6066 25.4972 16.8315C26.2455 15.9447 27.3305 15.2748 28.3507 14.9885C28.0655 14.9845 27.7279 15.0377 27.384 15.1508C27.3712 15.0335 27.3387 14.9191 27.2879 14.8126ZM26.2112 21.514C26.1749 21.7436 26.125 22.0291 26.0886 22.2588C26.1859 21.9989 26.3028 21.6968 26.4159 21.4489C26.5358 21.1866 26.6033 21.1619 26.8577 21.0235C27.0381 20.9253 27.3657 20.7904 27.5461 20.6922C27.3604 20.7234 27.0278 20.7917 26.8421 20.823C26.3464 20.9067 26.2881 21.0258 26.2112 21.514ZM17.7425 12.6477C17.1671 13.2164 16.6082 15.1679 16.4297 15.9488C16.711 15.3002 17.4149 13.4857 17.9549 13.0242C18.104 12.8966 18.2082 12.8183 18.3202 12.7613C17.9337 13.4095 17.9621 13.5707 18.0977 14.4392C18.2129 13.5562 18.5182 13.2152 19.0192 12.5564C19.5683 12.4187 20.0823 12.2536 20.6456 12.0339C20.0112 12.1056 19.376 12.1715 18.7403 12.2316C18.2068 12.2821 18.1208 12.2736 17.7424 12.6477" fill="#02031C"/>
<path d="M25.5809 15.9696C25.5306 15.8639 25.5244 15.7426 25.5635 15.6323C25.6026 15.522 25.6839 15.4317 25.7896 15.3813C25.8472 15.3541 25.91 15.3395 25.9737 15.3387C26.0375 15.3379 26.1006 15.3508 26.1589 15.3766C26.2172 15.4024 26.2692 15.4405 26.3114 15.4882C26.3537 15.536 26.3851 15.5922 26.4036 15.6532C26.1936 15.8092 26.0011 15.9927 25.8396 16.2054C25.731 16.1617 25.6347 16.0823 25.5807 15.9696H25.5809ZM30.4944 14.0688C30.5121 13.887 30.6671 13.753 30.8488 13.7706C30.9362 13.7792 31.0167 13.8221 31.0726 13.8899C31.1285 13.9577 31.1553 14.0449 31.1471 14.1323C31.1433 14.1699 31.1332 14.2065 31.1172 14.2406C30.9509 14.2692 30.7846 14.3177 30.6131 14.3807C30.5415 14.3074 30.4844 14.1735 30.4944 14.0688Z" fill="#CED4D4"/>
</svg>
