<svg width="41" height="41" viewBox="0 0 41 41" fill="none" xmlns="http://www.w3.org/2000/svg">
<g clip-path="url(#clip0)">
<path d="M15.7557 33.6343C15.0849 33.6343 14.4514 33.3362 14.0229 32.7959L7.50144 24.6907C7.07289 24.1503 6.9052 23.4609 7.07289 22.7901L9.40197 12.6726C9.55103 12.0018 9.99822 11.4615 10.6131 11.1634L20.0412 6.65426C20.3393 6.50519 20.6747 6.43066 21.0101 6.43066C21.3455 6.43066 21.6809 6.50519 21.979 6.65426L31.4071 11.1447C32.022 11.4428 32.4692 11.9832 32.6182 12.654L34.9473 22.7715C35.0964 23.4423 34.9473 24.1317 34.5188 24.672L27.9973 32.7772C27.5688 33.2989 26.9353 33.6157 26.2645 33.6157L15.7557 33.6343Z" fill="#02031C"/>
<path d="M20.9914 6.89527C21.2523 6.89527 21.5131 6.95116 21.7553 7.06296L31.1835 11.5534C31.6679 11.7957 32.0406 12.2428 32.1524 12.7645L34.4814 22.8821C34.6119 23.4224 34.4814 23.9814 34.1274 24.4099L27.606 32.5151C27.2706 32.9437 26.7489 33.1859 26.2085 33.1859H15.7556C15.2153 33.1859 14.6936 32.9437 14.3582 32.5151L7.83676 24.4099C7.50138 23.9814 7.37095 23.4224 7.48274 22.8821L9.81182 12.7645C9.94225 12.2242 10.2963 11.777 10.7807 11.5534L20.2088 7.04433C20.4511 6.95116 20.7305 6.89527 20.9914 6.89527ZM20.9914 6.01953C20.6001 6.01953 20.2088 6.11269 19.8362 6.28039L10.4081 10.7895C9.66276 11.1435 9.14105 11.7957 8.95472 12.5969L6.62564 22.7144C6.43932 23.5156 6.62564 24.3354 7.14736 24.9876L13.6688 33.0928C14.1719 33.7263 14.9358 34.0803 15.737 34.0803H26.1899C26.9911 34.0803 27.7551 33.7263 28.2581 33.0928L34.7796 24.9876C35.3013 24.3541 35.4876 23.5156 35.3013 22.7144L32.9722 12.5969C32.7859 11.7957 32.2642 11.1435 31.5189 10.7895L22.128 6.28039C21.774 6.11269 21.3827 6.01953 20.9914 6.01953Z" fill="white"/>
<path d="M30.4388 22.0819C30.4202 22.0819 30.4202 22.0819 30.4388 22.0819H30.4202C30.4016 22.0819 30.3829 22.0819 30.3829 22.0633C30.3457 22.0633 30.3084 22.0446 30.2711 22.0446C30.1407 22.026 30.0289 22.0074 29.9171 22.0074C29.8612 22.0074 29.8053 22.0074 29.7308 21.9887H29.7121C29.3208 21.9515 29.0041 21.9142 28.7059 21.821C28.5755 21.7651 28.5382 21.6906 28.501 21.6161C28.501 21.5974 28.4823 21.5974 28.4823 21.5788L28.2401 21.5043C28.3519 20.6471 28.3146 19.7527 28.1097 18.8769C27.9047 18.0012 27.5507 17.1813 27.0662 16.436L27.2525 16.2683V16.231C27.2525 16.1378 27.2712 16.0447 27.3457 15.9515C27.5693 15.7465 27.8488 15.5788 28.1842 15.3739C28.2401 15.3366 28.296 15.318 28.3519 15.2807C28.4637 15.2248 28.5569 15.1689 28.6687 15.0944C28.6873 15.0757 28.7246 15.0571 28.7618 15.0198C28.7805 15.0012 28.7991 15.0012 28.7991 14.9826C29.06 14.759 29.1159 14.3863 28.9295 14.1441C28.8364 14.0136 28.6687 13.9391 28.501 13.9391C28.3519 13.9391 28.2215 13.995 28.091 14.0882C28.0724 14.1068 28.0724 14.1068 28.0538 14.1254C28.0165 14.1441 27.9979 14.1813 27.9606 14.2C27.8674 14.2931 27.7929 14.3677 27.7184 14.4608C27.6811 14.4981 27.6438 14.554 27.5879 14.5913C27.3271 14.8708 27.0848 15.0944 26.8426 15.2621C26.7867 15.2993 26.7308 15.318 26.6749 15.318C26.6376 15.318 26.6004 15.318 26.5631 15.2993H26.5258L26.3022 15.4484C26.06 15.1875 25.7991 14.9639 25.5383 14.7403C24.4202 13.8646 23.06 13.3242 21.6439 13.1938L21.6252 12.9515C21.6066 12.9329 21.6066 12.9329 21.588 12.9143C21.5321 12.8584 21.4575 12.8025 21.4389 12.672C21.4203 12.3739 21.4575 12.0385 21.4948 11.6658V11.6472C21.4948 11.5913 21.5134 11.5168 21.5321 11.4609C21.5507 11.3491 21.5693 11.2373 21.588 11.1068V10.995V10.9391C21.588 10.6037 21.3271 10.3242 21.0103 10.3242C20.8613 10.3242 20.7122 10.3988 20.6004 10.5106C20.4886 10.6224 20.4327 10.7714 20.4327 10.9391V10.9764V11.0882C20.4327 11.2186 20.4513 11.3304 20.4886 11.4422C20.5072 11.4981 20.5072 11.554 20.5259 11.6286V11.6472C20.5631 12.0199 20.619 12.3553 20.5818 12.6534C20.5631 12.7838 20.4886 12.8397 20.4327 12.8956C20.4141 12.9143 20.4141 12.9143 20.3954 12.9329L20.3768 13.1751C20.0414 13.2124 19.706 13.2497 19.3706 13.3242C17.9358 13.641 16.6688 14.3677 15.6812 15.4111L15.4949 15.2807H15.4576C15.4203 15.2807 15.3831 15.2993 15.3458 15.2993C15.2899 15.2993 15.234 15.2807 15.1781 15.2434C14.9359 15.0757 14.6936 14.8335 14.4327 14.554C14.3955 14.5167 14.3582 14.4608 14.3023 14.4236C14.2278 14.3304 14.1532 14.2559 14.0601 14.1627C14.0414 14.1441 14.0042 14.1254 13.9669 14.0882C13.9483 14.0695 13.9296 14.0695 13.9296 14.0509C13.8178 13.9577 13.6688 13.9018 13.5197 13.9018C13.352 13.9018 13.1843 13.9764 13.0911 14.1068C12.9048 14.349 12.9607 14.7217 13.2216 14.9453C13.2402 14.9453 13.2402 14.9639 13.2588 14.9639C13.2961 14.9826 13.3147 15.0198 13.352 15.0385C13.4638 15.113 13.557 15.1689 13.6688 15.2248C13.7247 15.2434 13.7806 15.2807 13.8365 15.318C14.1719 15.5229 14.4514 15.6906 14.675 15.8956C14.7682 15.9888 14.7682 16.0819 14.7682 16.1751V16.2124L14.9545 16.3801C14.9172 16.436 14.88 16.4732 14.8613 16.5291C13.9296 18.0012 13.5756 19.7341 13.8178 21.4484L13.5756 21.5229C13.5756 21.5415 13.557 21.5415 13.557 21.5602C13.5197 21.6347 13.4638 21.7092 13.352 21.7651C13.0725 21.8583 12.7371 21.8956 12.3458 21.9328H12.3272C12.2713 21.9328 12.1967 21.9328 12.1408 21.9515C12.029 21.9515 11.9172 21.9701 11.7868 21.9887C11.7495 21.9887 11.7123 22.0074 11.675 22.0074C11.6564 22.0074 11.6377 22.0074 11.6191 22.026C11.2837 22.1005 11.0787 22.4173 11.1346 22.7154C11.1905 22.9763 11.4328 23.144 11.7309 23.144C11.7868 23.144 11.8241 23.144 11.88 23.1254C11.8986 23.1254 11.9172 23.1254 11.9172 23.1067C11.9545 23.1067 11.9918 23.0881 12.029 23.0881C12.1595 23.0508 12.2526 23.0136 12.3644 22.9577C12.4203 22.939 12.4762 22.9018 12.5321 22.8831H12.5508C12.9048 22.7527 13.2216 22.6409 13.5197 22.6036H13.557C13.6688 22.6036 13.7433 22.6595 13.7992 22.6968C13.8178 22.6968 13.8178 22.7154 13.8365 22.7154L14.0973 22.6782C14.5445 24.057 15.4017 25.2868 16.5383 26.1812C16.7992 26.3862 17.0601 26.5539 17.3396 26.7216L17.2278 26.9638C17.2278 26.9825 17.2464 26.9825 17.2464 27.0011C17.2837 27.0756 17.3209 27.1688 17.2837 27.2992C17.1719 27.5787 17.0042 27.8582 16.7992 28.175V28.1936C16.7619 28.2495 16.7247 28.2868 16.6874 28.3427C16.6129 28.4359 16.557 28.529 16.4824 28.6408C16.4638 28.6595 16.4452 28.6967 16.4265 28.734C16.4265 28.7526 16.4079 28.7713 16.4079 28.7713C16.2588 29.088 16.3706 29.4421 16.6501 29.5725C16.7247 29.6098 16.7992 29.6284 16.8737 29.6284C17.0973 29.6284 17.3209 29.4793 17.4327 29.2744C17.4327 29.2557 17.4514 29.2371 17.4514 29.2371C17.47 29.1998 17.4886 29.1626 17.5073 29.1439C17.5632 29.0135 17.5818 28.9203 17.6191 28.8085C17.6377 28.7526 17.6563 28.6967 17.675 28.6408C17.8054 28.2682 17.8986 27.97 18.0663 27.7092C18.1408 27.5974 18.234 27.5787 18.3085 27.5415C18.3271 27.5415 18.3271 27.5415 18.3458 27.5228L18.4762 27.2806C19.2961 27.5974 20.1905 27.7651 21.0849 27.7651C21.6252 27.7651 22.1842 27.7092 22.706 27.5787C23.0414 27.5042 23.3581 27.411 23.6749 27.2992L23.7867 27.5042C23.8053 27.5042 23.8053 27.5042 23.824 27.5228C23.9171 27.5415 23.9917 27.5787 24.0662 27.6905C24.2153 27.9514 24.3271 28.2682 24.4575 28.6222V28.6408C24.4761 28.6967 24.4948 28.7526 24.5134 28.8085C24.5507 28.9203 24.5693 29.0321 24.6252 29.1439C24.6438 29.1812 24.6625 29.1998 24.6811 29.2371C24.6811 29.2557 24.6997 29.2744 24.6997 29.2744C24.8115 29.498 25.0351 29.6284 25.2587 29.6284C25.3333 29.6284 25.4078 29.6098 25.4824 29.5725C25.6128 29.498 25.7246 29.3862 25.7619 29.2371C25.7991 29.088 25.7991 28.9203 25.7246 28.7713C25.7246 28.7526 25.706 28.7526 25.706 28.734C25.6873 28.6967 25.6687 28.6595 25.6501 28.6408C25.5942 28.529 25.5196 28.4359 25.4451 28.3427C25.4078 28.2868 25.3705 28.2495 25.3333 28.1936V28.175C25.1283 27.8582 24.942 27.5787 24.8488 27.2992C24.8115 27.1688 24.8488 27.0943 24.8674 27.0011C24.8674 26.9825 24.8861 26.9825 24.8861 26.9638L24.7929 26.7402C25.7805 26.1626 26.619 25.3427 27.2525 24.3365C27.5879 23.8148 27.8488 23.2372 28.0351 22.6595L28.2587 22.6968C28.2774 22.6968 28.2774 22.6782 28.296 22.6782C28.3705 22.6409 28.4264 22.585 28.5382 22.585H28.5755C28.8736 22.6223 29.1904 22.7341 29.5444 22.8645H29.5631C29.619 22.8831 29.6749 22.9204 29.7308 22.939C29.8426 22.9949 29.9357 23.0322 30.0662 23.0695C30.1034 23.0695 30.1407 23.0881 30.178 23.0881C30.1966 23.0881 30.2152 23.0881 30.2339 23.1067C30.2898 23.1254 30.327 23.1254 30.3829 23.1254C30.6624 23.1254 30.9047 22.939 30.9792 22.6968C30.9792 22.4732 30.7742 22.1751 30.4388 22.0819ZM21.8116 21.1689L20.9917 21.5602L20.1718 21.1689L19.9669 20.2931L20.5259 19.585H21.4389L21.9979 20.2931L21.8116 21.1689ZM26.6749 19.231C26.824 19.8645 26.8612 20.498 26.8053 21.113L23.9544 20.2931C23.6935 20.2185 23.5445 19.9577 23.6004 19.6968C23.619 19.6223 23.6563 19.5477 23.7122 19.4918L25.9668 17.4608C26.2836 17.9825 26.5258 18.5788 26.6749 19.231ZM25.0724 16.3428L22.6314 18.0757C22.4265 18.2061 22.147 18.1689 21.9793 17.9639C21.9234 17.908 21.9047 17.8335 21.8861 17.7589L21.7184 14.7217C23.0041 14.8708 24.178 15.4484 25.0724 16.3428ZM19.6687 14.8149C19.8737 14.7776 20.06 14.7403 20.265 14.7031L20.0973 17.6844C20.0787 17.9453 19.8737 18.1689 19.5942 18.1689C19.5197 18.1689 19.4265 18.1502 19.3706 18.113L16.8924 16.3428C17.6563 15.5788 18.6066 15.0571 19.6687 14.8149ZM15.998 17.4608L18.2153 19.4359C18.4203 19.6036 18.4389 19.9204 18.2712 20.1254C18.2153 20.1999 18.1408 20.2558 18.0476 20.2744L15.1595 21.113C15.0477 19.8459 15.3272 18.5602 15.998 17.4608ZM15.4949 22.5105L18.4576 22.0074C18.6998 21.9887 18.9234 22.1564 18.9793 22.3987C18.9979 22.5105 18.9979 22.6036 18.9607 22.6968L17.824 25.4359C16.7806 24.7651 15.9421 23.7403 15.4949 22.5105ZM22.296 26.2185C21.8675 26.3117 21.4389 26.3676 20.9917 26.3676C20.3395 26.3676 19.706 26.2558 19.1097 26.0694L20.5818 23.4049C20.7308 23.2372 20.9731 23.1626 21.178 23.2744C21.2712 23.3303 21.3457 23.4049 21.4016 23.4794L22.8364 26.0694C22.6687 26.1253 22.4824 26.1626 22.296 26.2185ZM25.9296 23.6285C25.4637 24.3738 24.8488 24.9701 24.1407 25.4359L22.9668 22.6223C22.9109 22.3987 23.0041 22.1564 23.2277 22.0446C23.3022 22.0074 23.3954 21.9887 23.4886 21.9887L26.4699 22.4918C26.3581 22.9018 26.1718 23.2744 25.9296 23.6285Z" fill="white"/>
</g>
<defs>
<clipPath id="clip0">
<rect width="28.8806" height="28.0909" fill="white" transform="translate(6.49512 6.00195)"/>
</clipPath>
</defs>
</svg>
