<svg width="41" height="41" viewBox="0 0 41 41" fill="none" xmlns="http://www.w3.org/2000/svg">
<path d="M27.385 26.0989C27.5548 24.6848 27.5039 24.4774 28.5572 24.7064L28.8246 24.7299C29.6346 24.7668 30.694 24.5997 31.3165 24.3105C32.6564 23.6888 33.4509 22.6507 32.1297 22.9235C29.116 23.5452 28.9088 22.5247 28.9088 22.5247C32.0911 17.803 33.4214 11.8091 32.2731 10.3419C29.1412 6.34004 23.7199 8.23251 23.6291 8.28164L23.6003 8.28703C23.0048 8.16342 22.3384 8.0896 21.5897 8.0775C20.2259 8.05509 19.1911 8.43503 18.4061 9.03045C18.4061 9.03045 8.73473 5.04597 9.18466 14.0413C9.28035 15.9549 11.9276 28.521 15.0849 24.7254C16.2388 23.3375 17.354 22.164 17.354 22.164C17.9078 22.5319 18.5708 22.7196 19.2662 22.6522L19.3199 22.6063C19.3031 22.7787 19.3105 22.9473 19.3414 23.1468C18.5282 24.0555 18.7672 24.2152 17.141 24.5498C15.4958 24.8889 16.4624 25.4926 17.0933 25.6503C17.8583 25.8417 19.6281 26.1127 20.8243 24.4385L20.7767 24.6296C21.0957 24.8848 21.0741 26.4643 21.1194 27.5927C21.1647 28.7212 21.2402 29.7743 21.4703 30.3951C21.7003 31.0159 21.9717 32.6151 24.1089 32.1571C25.895 31.7743 27.2606 31.2234 27.385 26.0989Z" fill="#02031C"/>
<path d="M27.385 26.0989C27.5548 24.6848 27.5039 24.4774 28.5572 24.7064L28.8246 24.7299C29.6346 24.7668 30.694 24.5997 31.3165 24.3105C32.6564 23.6888 33.4509 22.6507 32.1297 22.9235C29.116 23.5452 28.9088 22.5247 28.9088 22.5247C32.0911 17.803 33.4214 11.8091 32.2731 10.3419C29.1412 6.34004 23.7199 8.23251 23.6291 8.28164L23.6003 8.28703C23.0048 8.16342 22.3384 8.0896 21.5897 8.0775C20.2259 8.05509 19.1911 8.43503 18.4061 9.03045C18.4061 9.03045 8.73473 5.04597 9.18466 14.0413C9.28035 15.9549 11.9276 28.521 15.0849 24.7254C16.2388 23.3375 17.354 22.164 17.354 22.164C17.9078 22.5319 18.5708 22.7196 19.2662 22.6522L19.3199 22.6063C19.3031 22.7787 19.3105 22.9473 19.3414 23.1468C18.5282 24.0555 18.7672 24.2152 17.141 24.5498C15.4958 24.8889 16.4624 25.4926 17.0933 25.6503C17.8583 25.8417 19.6281 26.1127 20.8243 24.4385L20.7767 24.6296C21.0957 24.8848 21.0741 26.4643 21.1194 27.5927C21.1647 28.7212 21.2402 29.7743 21.4703 30.3951C21.7003 31.0159 21.9717 32.6151 24.1089 32.1571C25.895 31.7743 27.2606 31.2234 27.385 26.0989" stroke="#02031C" stroke-width="2.24057"/>
<path d="M32.1303 22.9235C29.1162 23.5452 28.9091 22.5247 28.9091 22.5247C32.0914 17.8027 33.4217 11.8087 32.2737 10.3417C29.1417 6.34003 23.7202 8.23257 23.6297 8.2817L23.6006 8.28691C23.0051 8.1633 22.3387 8.08966 21.5897 8.07744C20.2259 8.05509 19.1914 8.43497 18.4064 9.03026C18.4064 9.03026 8.73484 5.04597 9.18465 14.0413C9.28034 15.9549 11.9275 28.521 15.0849 24.7255C16.2389 23.3376 17.354 22.1641 17.354 22.1641C17.9078 22.532 18.5708 22.7196 19.2659 22.6522L19.3198 22.6064C19.3031 22.7787 19.3107 22.9473 19.3415 23.1469C18.5281 24.0556 18.7671 24.2152 17.1411 24.5499C15.4958 24.889 16.4623 25.4926 17.0934 25.6504C17.8584 25.8417 19.6284 26.1127 20.8243 24.4386L20.7766 24.6296C21.0953 24.8849 21.3191 26.29 21.2816 27.5638C21.2441 28.8376 21.219 29.7121 21.4701 30.3952C21.7213 31.0782 21.9715 32.6152 24.1091 32.1571C25.8952 31.7744 26.8208 30.7825 26.9495 29.128C27.0409 27.9517 27.2477 28.1256 27.2607 27.0739L27.4266 26.5761C27.6179 24.9816 27.457 24.4672 28.5574 24.7064L28.8248 24.7299C29.6347 24.7668 30.6947 24.5997 31.3169 24.3105C32.6565 23.6888 33.4511 22.6507 32.1302 22.9235H32.1303Z" fill="#657374"/>
<path d="M23.619 8.24206C23.284 8.3471 29.0025 6.15156 32.2525 10.3043C33.4005 11.7713 32.0701 17.7654 28.8879 22.4876M20.9536 23.8375C20.8706 26.8045 20.9745 29.7921 21.2648 30.5182C21.5552 31.2443 22.1769 32.6565 24.3146 32.1986C26.1006 31.8157 26.7504 31.0747 27.0324 29.4393C27.24 28.236 27.6404 24.8942 27.6918 24.2095L20.9536 23.8375ZM18.3914 8.96402C18.3914 8.96402 8.71323 5.00843 9.16316 14.0038C9.25885 15.9174 11.9062 28.4839 15.0635 24.6882C16.2173 23.3001 17.2608 22.2114 17.2608 22.2114L18.3914 8.96402Z" stroke="white" stroke-width="0.746857" stroke-linecap="round" stroke-linejoin="round"/>
<path d="M28.8881 22.4874C28.8881 22.4874 29.0955 23.5082 32.1098 22.8861C33.4304 22.6133 32.6356 23.6515 31.2962 24.2736C30.1969 24.7837 27.7324 24.9145 27.6921 24.2095C27.5885 22.3906 28.9893 22.9432 28.8882 22.4874C28.7968 22.0769 28.1704 21.6741 27.756 20.6695C27.3943 19.7927 22.7947 13.0685 29.0316 14.0671C29.2601 14.0198 27.4049 8.13472 21.5681 8.03902C15.7326 7.94333 15.9241 15.2154 15.9241 15.2154" stroke="white" stroke-width="0.746857" stroke-linecap="round" stroke-linejoin="bevel"/>
<path d="M19.3208 23.1093C18.507 24.0184 18.7463 24.1781 17.1195 24.513C15.4735 24.8523 16.4406 25.4561 17.0717 25.6138C17.8371 25.8053 19.6078 26.0765 20.8042 24.4012C21.1685 23.8912 20.802 23.0773 20.3015 22.8699C20.0597 22.7698 19.7364 22.6442 19.3208 23.1093V23.1093Z" stroke="white" stroke-width="0.746857" stroke-linecap="round" stroke-linejoin="round"/>
<path d="M19.2671 23.096C19.1851 22.5615 19.4427 21.9256 19.7188 21.1816C20.1336 20.0653 21.0908 18.9488 20.3251 15.4078C19.7544 12.769 15.9263 14.8586 15.9239 15.2164C15.9216 15.5741 16.0971 17.03 15.86 18.7253C15.5506 20.9376 17.2677 22.8086 19.2449 22.6172" stroke="white" stroke-width="0.746857" stroke-linecap="round" stroke-linejoin="round"/>
<path d="M18.3544 15.1607C18.3371 15.283 18.5783 15.6093 18.8927 15.6529C19.2067 15.6967 19.4754 15.4417 19.4924 15.3195C19.5094 15.1972 19.2686 15.0625 18.954 15.0187C18.6399 14.9749 18.3711 15.0387 18.3544 15.1607H18.3544Z" fill="white" stroke="white" stroke-width="0.248952"/>
<path d="M27.9073 14.9116C27.9244 15.034 27.6835 15.3603 27.369 15.4039C27.0548 15.4477 26.7861 15.1926 26.7689 15.0705C26.7523 14.9482 26.9932 14.8135 27.3074 14.7697C27.6216 14.7259 27.8903 14.7896 27.9073 14.9117V14.9116Z" fill="white" stroke="white" stroke-width="0.124506"/>
<path d="M29.0289 14.0654C29.0806 15.024 28.8224 15.6769 28.7899 16.6973C28.7417 18.1805 29.497 19.8781 28.3589 21.5779" stroke="white" stroke-width="0.746857" stroke-linecap="round" stroke-linejoin="round"/>
</svg>
