<svg width="41" height="41" viewBox="0 0 41 41" fill="none" xmlns="http://www.w3.org/2000/svg">
<path fill-rule="evenodd" clip-rule="evenodd" d="M14.8129 7.09882C13.9218 6.81055 13.2575 6.86211 12.784 7.13546C12.3106 7.40881 11.9337 7.95837 11.7378 8.87419C11.542 9.78991 11.5474 10.9938 11.7762 12.4222C11.8641 12.971 11.9841 13.5473 12.1356 14.1462C13.4647 13.8453 14.9134 13.6178 16.4448 13.4762C17.3332 12.2207 18.2546 11.0799 19.1797 10.0792C18.7368 9.64864 18.2976 9.25656 17.8663 8.90601C16.7437 7.99364 15.7038 7.38705 14.8129 7.09882ZM20.1598 9.07273C19.6877 8.61366 19.2172 8.19354 18.7524 7.81577C17.5519 6.84008 16.3591 6.12243 15.2453 5.76211C14.1316 5.40182 13.0192 5.3774 12.0816 5.91876C11.1439 6.46013 10.6088 7.43571 10.364 8.58034C10.1192 9.72506 10.1442 11.1169 10.389 12.6444C10.4837 13.2358 10.6123 13.8533 10.7738 14.4918C10.1402 14.6711 9.54123 14.8685 8.98171 15.0821C7.53649 15.6339 6.31857 16.3081 5.44963 17.0925C4.58077 17.8768 4.00342 18.828 4.00342 19.9107C4.00342 20.9935 4.58077 21.9446 5.44963 22.729C6.31857 23.5134 7.53649 24.1876 8.98171 24.7394C9.54124 24.953 10.1402 25.1503 10.7738 25.3297C10.6123 25.9682 10.4837 26.5856 10.389 27.1771C10.1442 28.7046 10.1192 30.0964 10.364 31.2412C10.6088 32.3858 11.1439 33.3614 12.0815 33.9027C13.0192 34.4441 14.1316 34.4197 15.2453 34.0594C16.3591 33.6991 17.5519 32.9814 18.7524 32.0057C19.2172 31.628 19.6877 31.2078 20.1598 30.7488C20.632 31.2078 21.1024 31.6279 21.5672 32.0057C22.7677 32.9814 23.9605 33.6991 25.0743 34.0594C26.188 34.4197 27.3004 34.4441 28.2381 33.9027C29.1758 33.3614 29.7108 32.3858 29.9556 31.2411C30.2005 30.0964 30.1754 28.7046 29.9307 27.1771C29.8359 26.5857 29.7073 25.9682 29.5458 25.3298C30.1795 25.1504 30.7786 24.953 31.3382 24.7394C32.7834 24.1876 34.0014 23.5134 34.8703 22.729C35.7392 21.9446 36.3165 20.9935 36.3165 19.9107C36.3165 18.828 35.7392 17.8768 34.8703 17.0925C34.0014 16.3081 32.7834 15.6339 31.3382 15.0821C30.7786 14.8684 30.1795 14.6711 29.5458 14.4917C29.7073 13.8533 29.8359 13.2358 29.9307 12.6444C30.1754 11.1169 30.2005 9.72508 29.9556 8.58035C29.7108 7.43573 29.1758 6.46014 28.2381 5.91878C27.3004 5.37742 26.188 5.40184 25.0743 5.76213C23.9605 6.12244 22.7677 6.8401 21.5672 7.81578C21.1024 8.19355 20.632 8.61367 20.1598 9.07273ZM20.1598 11.0888C19.5306 11.7732 18.8996 12.5299 18.278 13.3502C18.8957 13.3221 19.5238 13.3076 20.16 13.3076C20.7961 13.3076 21.424 13.3221 22.0416 13.3502C21.4201 12.5299 20.7891 11.7732 20.1598 11.0888ZM23.8748 13.4762C22.9864 12.2207 22.0651 11.0799 21.14 10.0792C21.5829 9.64864 22.022 9.25657 22.4533 8.90603C23.5759 7.99366 24.6158 7.38707 25.5068 7.09883C26.3978 6.81057 27.0622 6.86213 27.5356 7.13547C28.0091 7.40882 28.3859 7.95839 28.5818 8.87421C28.7777 9.78992 28.7723 10.9938 28.5434 12.4222C28.4555 12.9709 28.3355 13.5472 28.1841 14.1461C26.8549 13.8453 25.4063 13.6178 23.8748 13.4762ZM23.0984 14.821C22.1495 14.7499 21.167 14.7125 20.16 14.7125C19.1528 14.7125 18.1703 14.7499 17.2213 14.821C16.6853 15.6073 16.1616 16.4394 15.6581 17.3117C15.1545 18.1839 14.6956 19.0534 14.2827 19.9107C14.6956 20.7681 15.1545 21.6376 15.6581 22.5098C16.1616 23.382 16.6853 24.2142 17.2212 25.0004C18.1702 25.0715 19.1528 25.1089 20.16 25.1089C21.1671 25.1089 22.1495 25.0715 23.0984 25.0005C23.6344 24.2142 24.158 23.3821 24.6616 22.5099C25.1652 21.6376 25.624 20.7681 26.0369 19.9107C25.624 19.0534 25.1652 18.1839 24.6616 17.3116C24.158 16.4394 23.6344 15.6073 23.0984 14.821ZM26.7823 18.2602C26.4979 17.7112 26.1964 17.1601 25.8783 16.6092C25.5602 16.0582 25.2337 15.5216 24.9005 15.0007C25.9217 15.1288 26.8925 15.297 27.7999 15.4997C27.5218 16.3869 27.182 17.3117 26.7823 18.2602ZM26.7823 21.5613C26.4979 22.1103 26.1964 22.6614 25.8783 23.2123C25.5602 23.7632 25.2337 24.2999 24.9005 24.8207C25.9217 24.6926 26.8925 24.5245 27.7999 24.3217C27.5217 23.4345 27.182 22.5098 26.7823 21.5613ZM29.1642 23.9777C28.7602 22.6762 28.2329 21.3078 27.5898 19.9107C28.2329 18.5137 28.7602 17.1453 29.1643 15.8438C29.7587 16.0121 30.3178 16.1963 30.8371 16.3946C32.1885 16.9106 33.2338 17.5079 33.9289 18.1354C34.6241 18.7629 34.9116 19.364 34.9116 19.9107C34.9116 20.4574 34.6241 21.0585 33.9289 21.6861C33.2338 22.3136 32.1885 22.9109 30.8371 23.4269C30.3178 23.6251 29.7587 23.8094 29.1642 23.9777ZM28.1841 25.6754C26.8549 25.9762 25.4063 26.2037 23.8748 26.3453C22.9865 27.6008 22.0651 28.7416 21.14 29.7423C21.5829 30.1729 22.022 30.5649 22.4533 30.9155C23.5759 31.8278 24.6158 32.4344 25.5068 32.7227C26.3978 33.0109 27.0622 32.9594 27.5356 32.686C28.0091 32.4127 28.3859 31.8631 28.5818 30.9473C28.7777 30.0316 28.7723 28.8277 28.5435 27.3993C28.4555 26.8505 28.3355 26.2742 28.1841 25.6754ZM20.1598 28.7327C20.7891 28.0482 21.4201 27.2916 22.0417 26.4713C21.424 26.4994 20.7961 26.5138 20.16 26.5138C19.5238 26.5138 18.8957 26.4994 18.278 26.4713C18.8995 27.2916 19.5306 28.0482 20.1598 28.7327ZM15.4191 24.8207C15.0859 24.2998 14.7594 23.7632 14.4414 23.2123C14.1233 22.6614 13.8218 22.1103 13.5373 21.5613C13.1377 22.5097 12.7979 23.4345 12.5198 24.3217C13.4272 24.5244 14.3979 24.6926 15.4191 24.8207ZM12.1356 25.6753C13.4647 25.9761 14.9134 26.2037 16.4448 26.3453C17.3332 27.6008 18.2546 28.7416 19.1797 29.7423C18.7368 30.1729 18.2976 30.5649 17.8663 30.9155C16.7437 31.8279 15.7038 32.4344 14.8129 32.7227C13.9218 33.0109 13.2575 32.9594 12.784 32.686C12.3106 32.4127 11.9337 31.8631 11.7378 30.9473C11.542 30.0316 11.5473 28.8277 11.7762 27.3993C11.8641 26.8505 11.9841 26.2742 12.1356 25.6753ZM11.1554 23.9776C11.5595 22.6761 12.0868 21.3078 12.7298 19.9107C12.0868 18.5137 11.5595 17.1453 11.1554 15.8439C10.5611 16.0121 10.002 16.1964 9.48284 16.3946C8.13141 16.9106 7.08614 17.5079 6.39104 18.1354C5.69586 18.7629 5.40833 19.364 5.40833 19.9107C5.40833 20.4574 5.69586 21.0585 6.39104 21.6861C7.08614 22.3136 8.13141 22.9109 9.48284 23.4269C10.002 23.6251 10.5611 23.8093 11.1554 23.9776ZM12.5198 15.4998C12.7979 16.387 13.1377 17.3118 13.5373 18.2602C13.8218 17.7112 14.1233 17.1601 14.4414 16.6092C14.7594 16.0583 15.0859 15.5216 15.4192 15.0008C14.398 15.1289 13.4272 15.297 12.5198 15.4998ZM20.1599 17.7331C18.9572 17.7331 17.9823 18.7081 17.9823 19.9108C17.9823 21.1134 18.9572 22.0884 20.1599 22.0884C21.3625 22.0884 22.3375 21.1134 22.3375 19.9108C22.3375 18.7081 21.3625 17.7331 20.1599 17.7331ZM16.5773 19.9108C16.5773 17.9322 18.1813 16.3282 20.1599 16.3282C22.1385 16.3282 23.7424 17.9322 23.7424 19.9108C23.7424 21.8893 22.1385 23.4933 20.1599 23.4933C18.1813 23.4933 16.5773 21.8893 16.5773 19.9108Z" fill="#657374"/>
</svg>
