<svg width="41" height="41" viewBox="0 0 41 41" fill="none" xmlns="http://www.w3.org/2000/svg">
<g clip-path="url(#clip0)">
<path d="M12.8936 28.8448L11.083 8.52197H30.9888L29.1782 28.8338L21.0195 31.0943" fill="#02031C"/>
<path d="M21.0352 29.3626V10.1865H29.172L27.6192 27.5246" fill="#657374"/>
<path d="M14.7817 12.6714H21.0369V15.1625H17.5143L17.7447 17.714H21.0369V20.1996H15.4621L14.7817 12.6714ZM15.5719 21.4506H18.074L18.2495 23.4424L21.0369 24.1886V26.7895L15.923 25.3629" fill="white"/>
<path d="M27.2686 12.6709H21.0244V15.162H27.0382L27.2686 12.6709ZM26.8132 17.7135H21.0244V20.2046H24.0971L23.8063 23.4419L21.0244 24.1882V26.778L26.1273 25.3624" fill="white"/>
</g>
<defs>
<clipPath id="clip0">
<rect width="20.0031" height="23.0035" fill="white" transform="translate(10.9922 8.50293)"/>
</clipPath>
</defs>
</svg>
