<svg width="40" height="41" viewBox="0 0 40 41" fill="none" xmlns="http://www.w3.org/2000/svg">
<path d="M20.0232 34.7009V29.0125C26.0443 29.0125 30.7181 23.0413 28.4061 16.7042C27.5579 14.3756 25.6784 12.4961 23.3331 11.6478C16.996 9.35246 11.0248 14.0097 11.0248 20.0307H5.35303C5.35303 10.4336 14.6342 2.94882 24.697 6.09243C29.0881 7.47295 32.5976 10.9658 33.9615 15.3569C37.1051 25.4198 29.6203 34.7009 20.0232 34.7009Z" fill="#02031C"/>
<path fill-rule="evenodd" clip-rule="evenodd" d="M20.04 29.0453H14.3682V23.3735H20.04V29.0453Z" fill="#02031C"/>
<path fill-rule="evenodd" clip-rule="evenodd" d="M14.368 33.3866H10.0269V29.0454H14.368V33.3866Z" fill="#02031C"/>
<path fill-rule="evenodd" clip-rule="evenodd" d="M10.0269 29.0454H6.38428V25.4028H10.0269V29.0454Z" fill="#02031C"/>
</svg>
