<svg width="41" height="41" viewBox="0 0 41 41" fill="none" xmlns="http://www.w3.org/2000/svg">
<path d="M35.4863 5.50293H6.48486V34.5043H35.4863V5.50293Z" fill="#CED4D4"/>
<path d="M25.9674 28.1609C26.5516 29.1147 27.3116 29.8157 28.6557 29.8157C29.7849 29.8157 30.5062 29.2514 30.5062 28.4716C30.5062 27.5372 29.7651 27.2062 28.5222 26.6626L27.8409 26.3703C25.8745 25.5325 24.5681 24.483 24.5681 22.2642C24.5681 20.2204 26.1253 18.6646 28.559 18.6646C30.2917 18.6646 31.5373 19.2676 32.4349 20.8465L30.3128 22.209C29.8456 21.3712 29.3416 21.0412 28.559 21.0412C27.7608 21.0412 27.255 21.5475 27.255 22.209C27.255 23.0265 27.7613 23.3575 28.9305 23.8638L29.6118 24.1557C31.9272 25.1486 33.2345 26.1608 33.2345 28.4366C33.2345 30.8901 31.3071 32.2342 28.7188 32.2342C26.1879 32.2342 24.5529 31.0282 23.7529 29.4475L25.9674 28.1609ZM16.3408 28.397C16.7689 29.1566 17.1584 29.7987 18.0946 29.7987C18.99 29.7987 19.5548 29.4484 19.5548 28.0863V18.8201H22.2798V28.1232C22.2798 30.9449 20.6255 32.2292 18.2106 32.2292C16.0287 32.2292 14.7652 31.1 14.1226 29.74L16.3408 28.397Z" fill="#02031C"/>
</svg>
