<svg width="41" height="41" viewBox="0 0 41 41" fill="none" xmlns="http://www.w3.org/2000/svg">
<path d="M36.8255 29.2742V11.1255L20.9904 2.05029L5.15527 11.1255V29.2742L20.9904 38.3486L36.8255 29.2742Z" fill="#02031C"/>
<path d="M28.0761 10.8461C26.9251 10.8461 25.9924 11.7788 25.9924 12.9298V22.3285L16.8105 12.0571L16.7013 11.9305C15.6644 10.7944 14.4791 10.8461 13.9065 10.8461C12.7554 10.8461 11.8228 11.7788 11.8228 12.9298V27.0994C11.8228 28.2505 12.7554 29.1832 13.9065 29.1832C15.0576 29.1832 15.9903 28.2505 15.9903 27.0994V17.6316L25.3906 28.1563L25.4823 28.2747C26.5091 29.2941 27.9053 29.1832 28.0761 29.1832C29.2272 29.1832 30.1599 28.2505 30.1599 27.0994V12.9298C30.1599 11.7788 29.2272 10.8461 28.0761 10.8461Z" fill="white"/>
</svg>
