<svg width="41" height="41" viewBox="0 0 41 41" fill="none" xmlns="http://www.w3.org/2000/svg">
<path d="M10.7897 16.5575C14.4401 16.5575 17.8905 17.5076 20.8908 19.1078L31.5921 6.25635H10.3896V31.7593V16.5575H10.7897Z" fill="#657374"/>
<path d="M20.8893 19.105L10.3877 31.7569V33.7572H31.541C30.3408 27.4563 26.3401 22.1054 20.8893 19.105Z" fill="#A8B2B3"/>
<path d="M20.8899 19.105L10.3877 31.7576V33.758H14.1385L24.3406 21.4555C24.3406 21.4555 23.6405 20.9054 22.6903 20.2052C21.9901 19.7051 20.8899 19.105 20.8899 19.105Z" fill="#657374"/>
<path d="M10.7873 16.5542H10.3872V31.7574L20.8894 19.1047C17.8888 17.5044 14.4381 16.5542 10.7873 16.5542Z" fill="#02031C"/>
</svg>
