<svg width="41" height="41" viewBox="0 0 41 41" fill="none" xmlns="http://www.w3.org/2000/svg">
<path d="M3.3374 27.5386H4.51227V22.8993L6.33103 26.9437C6.54565 27.4331 6.83942 27.6064 7.41551 27.6064C7.99169 27.6064 8.27411 27.4332 8.48883 26.9437L10.3076 22.8993V27.5385H11.4825V22.9068C11.4825 22.4549 11.3017 22.2365 10.929 22.1236C10.0365 21.845 9.43773 22.0859 9.16656 22.6885L7.38166 26.68L5.65329 22.6885C5.39347 22.0859 4.78344 21.845 3.89099 22.1236C3.51818 22.2365 3.3374 22.455 3.3374 22.9068V27.5386ZM12.4593 23.7624H13.6339V26.3184C13.6229 26.4573 13.6784 26.7831 14.322 26.7932C14.6504 26.7984 16.8562 26.7932 16.8768 26.7932V23.75H18.054C18.0594 23.75 18.0528 27.9002 18.0529 27.9178C18.0593 28.9414 16.7829 29.1637 16.1946 29.1809H12.4848V28.3905C12.4914 28.3905 16.1918 28.3913 16.2012 28.3904C16.9573 28.3105 16.868 27.9347 16.8679 27.8082V27.5H14.3707C13.2088 27.4893 12.469 26.9822 12.4599 26.399C12.459 26.3449 12.485 23.788 12.4593 23.7623L12.4593 23.7624Z" fill="#02031C"/>
<path d="M18.9576 27.5364H22.3353C22.7307 27.5364 23.1148 27.4536 23.4199 27.3104C23.9282 27.077 24.1767 26.7607 24.1767 26.3464V25.4879C24.1767 25.1489 23.8943 24.8326 23.3407 24.6218C23.047 24.5087 22.6855 24.4485 22.3353 24.4485H20.9118C20.4375 24.4485 20.2115 24.3054 20.1551 23.9892C20.1437 23.9515 20.1437 23.9213 20.1437 23.8837V23.349C20.1437 23.3188 20.1437 23.2886 20.1551 23.251C20.2115 23.0101 20.3359 22.9422 20.7538 22.9046C20.7876 22.9046 20.8328 22.897 20.8668 22.897H24.2219V22.1139H20.9232C20.4488 22.1139 20.2002 22.144 19.9743 22.2117C19.2739 22.4301 18.9689 22.7766 18.9689 23.379V24.0644C18.9689 24.5917 19.5676 25.0435 20.573 25.1489C20.6861 25.1564 20.799 25.1639 20.9119 25.1639H22.1319C22.1772 25.1639 22.2224 25.1639 22.2563 25.1715C22.6291 25.2017 22.7871 25.2694 22.9002 25.405C22.9679 25.4727 22.9905 25.5406 22.9905 25.6159V26.3011C22.9905 26.3841 22.9341 26.4896 22.8212 26.5799C22.7194 26.6703 22.55 26.7305 22.324 26.7456C22.2788 26.7456 22.245 26.7531 22.1998 26.7531H18.9575V27.5363L18.9576 27.5364ZM31.5059 26.1732C31.5059 26.979 32.1046 27.431 33.3134 27.5214C33.4263 27.5289 33.5394 27.5364 33.6523 27.5364H36.7138V26.7531H33.6297C32.9406 26.7531 32.6808 26.5799 32.6808 26.1657V22.1138H31.5059V26.1732ZM24.9266 26.2143V23.4218C24.9266 22.7125 25.4247 22.2822 26.4095 22.1463C26.5145 22.1314 26.6204 22.1238 26.7265 22.1237H28.9565C29.0697 22.1237 29.1717 22.1313 29.2849 22.1463C30.2697 22.2822 30.7678 22.7125 30.7678 23.4218V26.2142C30.7678 26.7896 30.5563 27.0978 30.0688 27.2985L31.2261 28.3431H29.8619L28.9256 27.4979L27.983 27.5577H26.7265C26.5114 27.5577 26.285 27.5274 26.0359 27.4595C25.2889 27.2558 24.9266 26.8633 24.9266 26.2142V26.2143ZM26.1946 26.1464C26.1946 26.1842 26.2059 26.2219 26.2173 26.2672C26.2851 26.5917 26.5908 26.7728 27.0549 26.7728H28.1223L27.1418 25.8877H28.5059L29.3611 26.6596C29.5186 26.5757 29.6224 26.4472 29.6586 26.2823C29.6699 26.2446 29.6699 26.2068 29.6699 26.1691V23.4899C29.6699 23.4597 29.6699 23.4219 29.6586 23.3842C29.5906 23.0822 29.285 22.9088 28.8322 22.9088H27.0549C26.5343 22.9088 26.1947 23.1352 26.1947 23.4899V26.1464H26.1946Z" fill="#657374"/>
<path d="M37.7487 20.8184C37.0266 20.7989 36.4749 20.866 36.0032 21.0649C35.8692 21.1215 35.6555 21.1229 35.6336 21.2909C35.7072 21.3681 35.7187 21.4834 35.7772 21.5784C35.8898 21.7606 36.08 22.0048 36.2496 22.1329C36.435 22.2729 36.626 22.4225 36.8247 22.5437C37.1782 22.7592 37.5728 22.8822 37.9131 23.0982C38.1137 23.2254 38.313 23.3857 38.5087 23.5294C38.6054 23.6004 38.6704 23.7108 38.7961 23.7554V23.7348C38.7301 23.6507 38.7131 23.5351 38.6524 23.4472L38.3854 23.1802C38.1244 22.8338 37.793 22.5294 37.4408 22.2767C37.1599 22.075 36.5311 21.8027 36.4139 21.4757L36.3933 21.4551C36.5925 21.4327 36.8257 21.3606 37.0096 21.3115C37.3183 21.2286 37.5942 21.25 37.9131 21.1677C38.0568 21.1266 38.2006 21.0854 38.3444 21.0444V20.9623C38.1832 20.7968 38.0683 20.578 37.8925 20.4283C37.4327 20.0367 36.9308 19.6455 36.4139 19.3193C36.1273 19.1383 35.773 19.0208 35.4693 18.8674C35.3671 18.8159 35.1875 18.7891 35.12 18.7031C34.9605 18.4997 34.8736 18.2418 34.7504 18.0048C34.4927 17.5085 34.2395 16.9663 34.0111 16.444C33.8553 16.0879 33.7536 15.7367 33.5593 15.4171C32.6268 13.884 31.6231 12.9587 30.0681 12.0491C29.7373 11.8557 29.3389 11.7792 28.918 11.6794L28.2403 11.6383C28.1024 11.5806 27.9589 11.412 27.8295 11.3302C27.3144 11.0049 25.9932 10.297 25.6117 11.2276C25.3708 11.8149 25.9717 12.3881 26.1866 12.6858C26.3375 12.8946 26.5306 13.1286 26.6384 13.3635C26.7093 13.5178 26.7216 13.6725 26.7822 13.8358C26.9316 14.2381 27.0613 14.6758 27.2545 15.0475C27.3522 15.2356 27.4598 15.4338 27.5832 15.6019C27.6588 15.7052 27.7885 15.7507 27.809 15.9101C27.6822 16.0876 27.6749 16.363 27.6037 16.5878C27.2827 17.5999 27.4038 18.8577 27.8707 19.6068C28.0139 19.8367 28.3514 20.3299 28.8153 20.1407C29.2212 19.9754 29.1305 19.4631 29.2466 19.0113C29.2729 18.9088 29.2567 18.8334 29.3082 18.7648V18.7854L29.6778 19.5246C29.9514 19.9652 30.437 20.4257 30.8485 20.7364C31.0618 20.8975 31.2298 21.1761 31.5057 21.2703V21.2497H31.4851C31.4317 21.1665 31.348 21.1319 31.2798 21.0649C31.119 20.9074 30.9403 20.7115 30.8074 20.531C30.4332 20.0229 30.1024 19.4669 29.8012 18.888C29.6572 18.6117 29.5322 18.3067 29.4109 18.0254C29.3641 17.917 29.3646 17.753 29.2672 17.6968C29.1344 17.9029 28.9387 18.0696 28.8359 18.313C28.6716 18.702 28.6504 19.1764 28.5895 19.6684C28.5535 19.6813 28.5694 19.6724 28.5483 19.6889C28.2623 19.6199 28.1618 19.3254 28.0556 19.0728C27.7866 18.434 27.7367 17.4054 27.9732 16.67C28.0345 16.4797 28.3112 15.8804 28.1992 15.7048C28.1458 15.5294 27.9694 15.4279 27.8707 15.294C27.7485 15.1283 27.6266 14.9102 27.542 14.7188C27.322 14.2208 27.2192 13.6616 26.9876 13.1582C26.8769 12.9174 26.6896 12.6739 26.5358 12.4599C26.3655 12.2229 26.1748 12.0482 26.0429 11.7615C25.996 11.6597 25.9322 11.4966 26.0017 11.3919C26.024 11.3212 26.0552 11.2917 26.1251 11.2686C26.2442 11.1769 26.5759 11.2992 26.7 11.3508C27.0294 11.4876 27.3042 11.6179 27.5832 11.8026C27.7171 11.8914 27.8525 12.0632 28.0144 12.1107H28.1992C28.4883 12.1772 28.8122 12.1313 29.0823 12.2134C29.5597 12.3585 29.9875 12.5841 30.376 12.8295C31.5598 13.5769 32.5277 14.6409 33.1897 15.9101C33.2962 16.1144 33.3423 16.3095 33.4361 16.5262C33.6254 16.9634 33.8638 17.4131 34.0521 17.8406C34.2401 18.267 34.4232 18.6974 34.6888 19.0523C34.8285 19.2389 35.3679 19.339 35.6129 19.4425C35.7848 19.5151 36.0664 19.5908 36.2291 19.6889C36.54 19.8764 36.8412 20.0997 37.1328 20.3051C37.2785 20.4077 37.7265 20.6329 37.7488 20.8184H37.7487Z" fill="#02031C"/>
<path fill-rule="evenodd" clip-rule="evenodd" d="M28.5678 12.9944C28.4171 12.9917 28.3105 13.0109 28.1978 13.0354V13.056H28.2184C28.2902 13.2037 28.4171 13.2988 28.5061 13.426C28.5745 13.5699 28.6431 13.7138 28.7117 13.8577L28.7322 13.8371C28.8595 13.7474 28.9178 13.6039 28.9171 13.385C28.8661 13.3313 28.8585 13.2639 28.8144 13.1999C28.7556 13.1145 28.6419 13.0662 28.5678 12.9944Z" fill="#02031C"/>
<path fill-rule="evenodd" clip-rule="evenodd" d="M37.2637 26.7313C37.2637 27.249 37.6728 27.5979 38.1304 27.5979C38.588 27.5979 38.997 27.249 38.997 26.7313C38.997 26.2136 38.588 25.8647 38.1304 25.8647C37.6728 25.8647 37.2638 26.2136 37.2638 26.7313H37.2637ZM38.8029 26.7313C38.8029 27.1241 38.5025 27.4177 38.1304 27.4177C37.7538 27.4177 37.4579 27.1241 37.4579 26.7313C37.4579 26.3384 37.7537 26.0449 38.1304 26.0449C38.5025 26.0449 38.8029 26.3384 38.8029 26.7313ZM38.3639 27.2258H38.558L38.2738 26.7915C38.4263 26.7752 38.5417 26.7013 38.5417 26.521C38.5417 26.32 38.4147 26.2368 38.1698 26.2368H37.7838V27.2258H37.9502V26.7983H38.1049L38.3639 27.2259V27.2258ZM37.9502 26.6597V26.3754H38.1419C38.2414 26.3754 38.3615 26.3939 38.3615 26.5095C38.3615 26.6481 38.2529 26.6597 38.128 26.6597H37.9502Z" fill="#657374"/>
</svg>
