<svg width="40" height="41" viewBox="0 0 40 41" fill="none" xmlns="http://www.w3.org/2000/svg">
<path fill-rule="evenodd" clip-rule="evenodd" d="M19.9862 35.5747L26.2341 16.3457H13.7383L19.9862 35.5747Z" fill="#02031C"/>
<path fill-rule="evenodd" clip-rule="evenodd" d="M19.9862 35.5747L13.7382 16.3457H4.98193L19.9862 35.5747Z" fill="#657374"/>
<path fill-rule="evenodd" clip-rule="evenodd" d="M4.98206 16.3457L3.08343 22.1892C2.91025 22.7222 3.09992 23.3061 3.55331 23.6354L19.9863 35.5747L4.98206 16.3457Z" fill="#A8B2B3"/>
<path fill-rule="evenodd" clip-rule="evenodd" d="M4.98193 16.3458H13.7382L9.9751 4.76433C9.78155 4.16832 8.93847 4.16848 8.74492 4.76433L4.98193 16.3458Z" fill="#02031C"/>
<path fill-rule="evenodd" clip-rule="evenodd" d="M19.9863 35.5747L26.2343 16.3457H34.9906L19.9863 35.5747Z" fill="#657374"/>
<path fill-rule="evenodd" clip-rule="evenodd" d="M34.9906 16.3457L36.8892 22.1892C37.0624 22.7222 36.8727 23.3061 36.4193 23.6354L19.9863 35.5747L34.9906 16.3457Z" fill="#A8B2B3"/>
<path fill-rule="evenodd" clip-rule="evenodd" d="M34.9907 16.3458H26.2344L29.9975 4.76433C30.1911 4.16832 31.0342 4.16848 31.2277 4.76433L34.9907 16.3458Z" fill="#02031C"/>
</svg>
