<svg width="41" height="41" viewBox="0 0 41 41" fill="none" xmlns="http://www.w3.org/2000/svg">
<path fill-rule="evenodd" clip-rule="evenodd" d="M23.7483 16.2864H26.9889V19.5991H28.6274C29.3841 19.5991 30.1623 19.4643 30.8789 19.2215C31.231 19.1021 31.6262 18.9359 31.9736 18.727C31.5161 18.1297 31.2826 17.3756 31.2138 16.6322C31.1204 15.6211 31.3244 14.3051 32.0087 13.5138L32.3493 13.1198L32.7553 13.4461C33.7773 14.2671 34.6368 15.4145 34.7883 16.7224C36.0188 16.3604 37.4636 16.446 38.5483 17.0721L38.9933 17.3288L38.7591 17.786C37.8417 19.5763 35.924 20.1309 34.049 20.0328C31.2433 27.0208 25.1351 30.3292 17.7288 30.3292C13.9025 30.3292 10.392 28.8988 8.39289 25.504L8.3601 25.4486L8.06887 24.856C7.39313 23.3617 7.16869 21.7247 7.32095 20.089L7.36664 19.5991H10.1377V16.2864H13.3782V13.0458H19.8595V9.80518H23.7483V16.2864Z" fill="#02031C"/>
<path fill-rule="evenodd" clip-rule="evenodd" d="M34.2474 17.5115C34.4647 15.8229 33.2009 14.4964 32.4172 13.8667C31.514 14.9109 31.3737 17.6475 32.7906 18.7996C31.9999 19.502 30.3335 20.1387 28.6274 20.1387H7.85898C7.69306 21.9197 8.00577 23.5597 8.71984 24.9636L8.95612 25.3957C9.10572 25.6496 9.26914 25.8946 9.44576 26.1305H9.44583C10.2996 26.1853 11.0869 26.2043 11.8071 26.1883H11.8074C13.2228 26.157 14.3776 25.99 15.2529 25.6867C15.3832 25.6414 15.5252 25.7105 15.5703 25.8407C15.6153 25.9709 15.5464 26.113 15.4163 26.1581C15.2999 26.1984 15.1785 26.2361 15.0532 26.272C15.0531 26.2721 15.0529 26.2721 15.0528 26.2721C14.3636 26.4689 13.6246 26.6013 12.6711 26.6601C12.7276 26.661 12.6121 26.6686 12.6118 26.6687C12.5794 26.6707 12.5386 26.6753 12.506 26.6771C12.1307 26.6982 11.7257 26.7026 11.3115 26.7026C10.8586 26.7026 10.4126 26.694 9.91391 26.6687L9.90116 26.6771C11.6316 28.6221 14.3373 29.7886 17.7289 29.7886C24.9068 29.7886 30.9952 26.6067 33.6912 19.4632C35.6039 19.6594 37.4422 19.1717 38.2784 17.5394C36.9464 16.7707 35.2336 17.0158 34.2474 17.5115Z" fill="#A8B2B3"/>
<path fill-rule="evenodd" clip-rule="evenodd" d="M34.2475 17.5115C34.4648 15.8229 33.201 14.4964 32.4173 13.8667C31.5141 14.9109 31.3738 17.6475 32.7907 18.7996C32 19.502 30.3337 20.1387 28.6276 20.1387H9.08892C9.00414 22.8662 10.0163 24.9367 11.8072 26.1883H11.8075C13.2229 26.157 14.3778 25.99 15.253 25.6867C15.3834 25.6414 15.5254 25.7105 15.5705 25.8407C15.6155 25.9709 15.5465 26.113 15.4164 26.1581C15.3 26.1984 15.1787 26.2362 15.0533 26.272C15.0532 26.2721 15.053 26.2721 15.0529 26.2721C14.3637 26.4689 13.5612 26.6183 12.6077 26.6771C12.6074 26.6771 12.5846 26.655 12.5843 26.6551C15.0271 27.9082 18.5692 27.9037 22.6302 26.3437C27.1838 24.5944 31.4209 21.2616 34.3775 17.4497C34.3329 17.4699 34.2895 17.4905 34.2475 17.5115Z" fill="#A8B2B3"/>
<path fill-rule="evenodd" clip-rule="evenodd" d="M7.89795 22.3032C8.02706 23.2572 8.30607 24.1505 8.71995 24.9642L8.95623 25.3963C9.10583 25.6502 9.26925 25.8952 9.44594 26.1311C10.2999 26.1859 11.0872 26.2049 11.8075 26.189C13.2229 26.1576 14.3777 25.9906 15.253 25.6873C15.3833 25.642 15.5254 25.7112 15.5704 25.8413C15.6155 25.9715 15.5465 26.1136 15.4164 26.1587C15.3 26.1991 15.1786 26.2368 15.0533 26.2726C15.0532 26.2727 15.053 26.2727 15.0529 26.2728C14.3637 26.4695 13.5654 26.6104 12.6119 26.6693C12.5792 26.6713 12.5221 26.6717 12.4891 26.6735C12.114 26.6946 11.7131 26.7074 11.2989 26.7074C10.8461 26.7074 10.383 26.6988 9.88442 26.6735C11.6148 28.6185 14.3374 29.7892 17.729 29.7892C23.874 29.7892 29.2203 27.4568 32.3232 22.3032H7.89795Z" fill="#657374"/>
<path fill-rule="evenodd" clip-rule="evenodd" d="M9.27588 22.3032C9.64324 23.9783 10.526 25.2933 11.8075 26.189C13.2229 26.1576 14.3778 25.9906 15.2531 25.6873C15.3834 25.642 15.5254 25.7112 15.5705 25.8413C15.6155 25.9715 15.5466 26.1136 15.4164 26.1587C15.3 26.1991 15.1787 26.2368 15.0534 26.2726C15.0532 26.2727 15.0531 26.2727 15.0529 26.2728C14.3637 26.4695 13.5486 26.6104 12.595 26.6693C15.0376 27.9221 18.5695 27.9042 22.6302 26.3443C25.0868 25.4005 27.4511 23.9954 29.5723 22.3032H9.27588Z" fill="#657374"/>
<path fill-rule="evenodd" clip-rule="evenodd" d="M10.6777 16.8267H13.4862V19.6353H10.6777V16.8267ZM10.9117 17.0607H11.1333V19.4014H10.9117V17.0607ZM11.3284 17.0607H11.5589V19.4014H11.3284V17.0607ZM11.7538 17.0607H11.9843V19.4014H11.7538V17.0607ZM12.1794 17.0607H12.4099V19.4014H12.1794V17.0607ZM12.605 17.0607H12.8355V19.4014H12.605V17.0607ZM13.0305 17.0607H13.2523V19.4014H13.0305V17.0607Z" fill="#657374"/>
<path fill-rule="evenodd" clip-rule="evenodd" d="M13.918 13.5859H16.7267V16.3944H13.918V13.5859ZM14.1522 13.82H14.3737V16.1604H14.1522V13.82ZM14.5689 13.82H14.7993V16.1604H14.5689V13.82ZM14.9942 13.82H15.2247V16.1604H14.9942V13.82ZM15.4198 13.82H15.6503V16.1604H15.4198V13.82ZM15.8455 13.82H16.076V16.1604H15.8455V13.82ZM16.2709 13.82H16.4928V16.1604H16.2709V13.82Z" fill="#657374"/>
<path fill-rule="evenodd" clip-rule="evenodd" d="M13.918 16.8267H16.7267V19.6353H13.918V16.8267ZM14.1522 17.0607H14.3737V19.4014H14.1522V17.0607ZM14.5689 17.0607H14.7993V19.4014H14.5689V17.0607ZM14.9942 17.0607H15.2247V19.4014H14.9942V17.0607ZM15.4198 17.0607H15.6503V19.4014H15.4198V17.0607ZM15.8455 17.0607H16.076V19.4014H15.8455V17.0607ZM16.2709 17.0607H16.4928V19.4014H16.2709V17.0607Z" fill="#657374"/>
<path fill-rule="evenodd" clip-rule="evenodd" d="M17.1587 16.8267H19.9673V19.6353H17.1587V16.8267ZM17.3928 17.0607H17.6142V19.4014H17.3928V17.0607ZM17.8094 17.0607H18.0399V19.4014H17.8094V17.0607ZM18.235 17.0607H18.4655V19.4014H18.235V17.0607ZM18.6605 17.0607H18.891V19.4014H18.6605V17.0607ZM19.086 17.0607H19.3167V19.4014H19.086V17.0607ZM19.5116 17.0607H19.7332V19.4014H19.5116V17.0607Z" fill="#657374"/>
<path fill-rule="evenodd" clip-rule="evenodd" d="M17.1587 13.5859H19.9673V16.3944H17.1587V13.5859ZM17.3928 13.82H17.6142V16.1604H17.3928V13.82ZM17.8094 13.82H18.0399V16.1604H17.8094V13.82ZM18.235 13.82H18.4655V16.1604H18.235V13.82ZM18.6605 13.82H18.891V16.1604H18.6605V13.82ZM19.086 13.82H19.3167V16.1604H19.086V13.82ZM19.5116 13.82H19.7332V16.1604H19.5116V13.82Z" fill="#657374"/>
<path fill-rule="evenodd" clip-rule="evenodd" d="M20.3994 16.8267H23.208V19.6353H20.3994V16.8267ZM20.6335 17.0607H20.855V19.4014H20.6335V17.0607ZM21.0502 17.0607H21.2807V19.4014H21.0502V17.0607ZM21.4756 17.0607H21.7061V19.4014H21.4756V17.0607ZM21.9013 17.0607H22.1318V19.4014H21.9013V17.0607ZM22.3268 17.0607H22.5573V19.4014H22.3268V17.0607ZM22.7523 17.0607H22.974V19.4014H22.7523V17.0607Z" fill="#657374"/>
<path fill-rule="evenodd" clip-rule="evenodd" d="M20.3994 13.5859H23.208V16.3944H20.3994V13.5859ZM20.6335 13.82H20.855V16.1604H20.6335V13.82ZM21.0502 13.82H21.2807V16.1604H21.0502V13.82ZM21.4756 13.82H21.7061V16.1604H21.4756V13.82ZM21.9013 13.82H22.1318V16.1604H21.9013V13.82ZM22.3268 13.82H22.5573V16.1604H22.3268V13.82ZM22.7523 13.82H22.974V16.1604H22.7523V13.82Z" fill="#657374"/>
<path fill-rule="evenodd" clip-rule="evenodd" d="M20.3994 10.3457H23.208V13.1543H20.3994V10.3457ZM20.6335 10.5796H20.855V12.9203H20.6335V10.5796ZM21.0502 10.5796H21.2807V12.9203H21.0502V10.5796ZM21.4756 10.5796H21.7061V12.9203H21.4756V10.5796ZM21.9013 10.5796H22.1318V12.9203H21.9013V10.5796ZM22.3268 10.5796H22.5573V12.9203H22.3268V10.5796ZM22.7523 10.5796H22.974V12.9203H22.7523V10.5796Z" fill="#657374"/>
<path fill-rule="evenodd" clip-rule="evenodd" d="M23.6401 16.8267H26.4488V19.6353H23.6401V16.8267ZM23.8741 17.0607H24.0958V19.4014H23.8741V17.0607ZM24.2908 17.0607H24.5213V19.4014H24.2908V17.0607ZM24.7164 17.0607H24.9469V19.4014H24.7164V17.0607ZM25.1418 17.0607H25.3723V19.4014H25.1418V17.0607ZM25.5676 17.0607H25.798V19.4014H25.5676V17.0607ZM25.9931 17.0607H26.2147V19.4014H25.9931V17.0607Z" fill="#657374"/>
<path fill-rule="evenodd" clip-rule="evenodd" d="M16.5512 24.189C16.9791 24.189 17.326 24.536 17.326 24.9638C17.326 25.3917 16.9791 25.7386 16.5512 25.7386C16.1233 25.7386 15.7764 25.3917 15.7764 24.9638C15.7764 24.536 16.1233 24.189 16.5512 24.189Z" fill="#CED4D4"/>
<path fill-rule="evenodd" clip-rule="evenodd" d="M16.5511 24.4082C16.622 24.4082 16.6896 24.4216 16.752 24.4458C16.6844 24.4849 16.6386 24.5581 16.6386 24.6419C16.6386 24.767 16.74 24.8682 16.8651 24.8682C16.9508 24.8682 17.0252 24.8206 17.0637 24.7504C17.0909 24.8159 17.106 24.8878 17.106 24.9633C17.106 25.2697 16.8576 25.5181 16.5511 25.5181C16.2447 25.5181 15.9961 25.2697 15.9961 24.9633C15.9961 24.6567 16.2447 24.4082 16.5511 24.4082Z" fill="#02031C"/>
<path fill-rule="evenodd" clip-rule="evenodd" d="M2.84619 22.5834H38.8897C38.1049 22.3844 36.4066 22.1154 36.6866 21.0869C35.2596 22.7382 31.8182 22.2454 30.9496 21.4311C29.9824 22.8339 24.3519 22.3007 23.9592 21.2079C22.7467 22.6309 18.9894 22.6309 17.7768 21.2079C17.384 22.3007 11.7535 22.8339 10.7862 21.4311C9.9177 22.2454 6.47652 22.7382 5.04936 21.0869C5.32943 22.1154 3.63116 22.3844 2.84619 22.5834Z" fill="#02031C"/>
<path fill-rule="evenodd" clip-rule="evenodd" d="M18.6108 29.7722C16.6919 28.8616 15.6387 27.6238 15.0526 26.2725C14.3399 26.476 13.4831 26.606 12.4876 26.6618C12.1125 26.6829 11.7181 26.6936 11.304 26.6936C10.8268 26.6936 10.3239 26.6795 9.7959 26.6515C11.5556 28.4101 13.7204 29.7642 17.7287 29.7889C18.0247 29.7889 18.3185 29.7832 18.6108 29.7722Z" fill="#CED4D4"/>
<path fill-rule="evenodd" clip-rule="evenodd" d="M15.7656 27.5195C15.5001 27.1591 15.2426 26.7062 15.0533 26.2725C14.3405 26.476 13.4835 26.6061 12.4878 26.662C13.1717 27.0332 14.1498 27.3772 15.7656 27.5195Z" fill="#CED4D4"/>
</svg>
