<svg width="41" height="41" viewBox="0 0 41 41" fill="none" xmlns="http://www.w3.org/2000/svg">
<path d="M35.9862 20.8516C35.9889 19.6517 35.6203 18.4802 34.9311 17.4979C34.2419 16.5156 33.2658 15.7705 32.1366 15.3646C32.3681 14.1556 32.3302 12.9103 32.0256 11.7176C31.7209 10.5248 31.1571 9.41389 30.3742 8.46389C29.5913 7.5139 28.6086 6.74819 27.496 6.2213C26.3834 5.69441 25.1683 5.41929 23.9373 5.41553C22.6145 5.41395 21.3102 5.72709 20.1323 6.3291C18.9544 6.9311 17.9366 7.80469 17.1629 8.87772C16.5065 8.37073 15.7211 8.05787 14.8959 7.97464C14.0707 7.89142 13.2387 8.04115 12.4942 8.40686C11.7498 8.77256 11.1228 9.3396 10.6843 10.0436C10.2458 10.7477 10.0135 11.5605 10.0136 12.3899C10.0154 12.9185 10.1084 13.4428 10.2885 13.9398C9.15538 14.3452 8.17503 15.0906 7.48146 16.0741C6.78789 17.0577 6.41495 18.2314 6.41358 19.4349C6.41221 20.6384 6.78249 21.8129 7.47382 22.798C8.16515 23.7832 9.1438 24.5308 10.276 24.9388C9.91228 26.8049 10.1977 28.7392 11.0849 30.4208C11.972 32.1023 13.4076 33.4298 15.1533 34.183C16.899 34.9362 18.8498 35.0696 20.6817 34.5612C22.5137 34.0529 24.1168 32.9332 25.2247 31.3882C25.996 32.0012 26.9517 32.3359 27.9369 32.3381C29.1136 32.3378 30.242 31.8702 31.0741 31.0381C31.9061 30.2061 32.3737 29.0777 32.374 27.901C32.3722 27.3724 32.2792 26.8481 32.0991 26.3511C33.2319 25.9424 34.212 25.1959 34.9072 24.2124C35.6023 23.229 35.9789 22.0559 35.9862 20.8516Z" fill="white"/>
<path d="M18.0378 18.1026L24.5122 21.0523L31.0366 15.3279C31.133 14.8549 31.1791 14.3731 31.1741 13.8905C31.1752 12.3324 30.6773 10.8149 29.7533 9.5604C28.8293 8.30586 27.5278 7.3802 26.0396 6.91905C24.5513 6.4579 22.9545 6.48549 21.483 6.99779C20.0116 7.51008 18.7429 8.48015 17.8628 9.76587L16.7754 15.4029L18.0378 18.1026Z" fill="#657374"/>
<path d="M11.3385 24.9516C11.2421 25.433 11.196 25.9231 11.2011 26.414C11.203 27.9785 11.706 29.5013 12.6364 30.7592C13.5667 32.017 14.8756 32.9437 16.371 33.4035C17.8665 33.8634 19.4699 33.8321 20.9462 33.3142C22.4226 32.7964 23.6943 31.8193 24.5748 30.5261L25.6497 24.9141L24.2124 22.1644L17.713 19.2021L11.3385 24.9516Z" fill="#02031C"/>
<path d="M11.3007 13.753L15.7378 14.8029L16.7127 9.76591C16.1108 9.30505 15.3756 9.05209 14.6175 9.04507C13.8595 9.03806 13.1197 9.27736 12.5093 9.727C11.899 10.1766 11.4512 10.8123 11.2332 11.5383C11.0153 12.2644 11.0389 13.0416 11.3007 13.753Z" fill="#02031C"/>
<path d="M10.9136 14.8154C9.95359 15.1305 9.11484 15.7353 8.51276 16.5467C7.91069 17.358 7.57489 18.3361 7.55159 19.3462C7.52829 20.3563 7.81864 21.3487 8.38266 22.187C8.94668 23.0253 9.75666 23.6681 10.7011 24.0271L16.9255 18.4026L15.7881 15.9653L10.9136 14.8154Z" fill="#A8B2B3"/>
<path d="M25.6997 30.5265C26.302 30.9818 27.0354 31.23 27.7904 31.2343C28.5454 31.2385 29.2815 30.9984 29.8889 30.5499C30.4962 30.1014 30.9423 29.4686 31.1604 28.7457C31.3785 28.0229 31.3571 27.249 31.0992 26.5394L26.6746 25.502L25.6997 30.5265Z" fill="#657374"/>
<path d="M26.5994 24.3394L31.474 25.4768C32.4339 25.1618 33.2727 24.5569 33.8748 23.7456C34.4768 22.9342 34.8126 21.9562 34.8359 20.9461C34.8592 19.936 34.5689 18.9435 34.0049 18.1052C33.4409 17.2669 32.6309 16.6241 31.6864 16.2651L25.312 21.8521L26.5994 24.3394Z" fill="#A8B2B3"/>
</svg>
