<svg width="40" height="41" viewBox="0 0 40 41" fill="none" xmlns="http://www.w3.org/2000/svg">
<path d="M25.1875 11.0195L21.7422 5.01953H12.7031C11.8984 5.01953 11.1484 5.44922 10.7578 6.15234L3.44531 18.8945C3.04687 19.5898 3.04687 20.4336 3.44531 21.1367L6.22656 25.9883L9.66406 20.0195L14.8359 11.0195H25.1875Z" fill="#657374"/>
<path d="M36.5781 18.8945L29.2656 6.15234C28.8594 5.45703 28.1172 5.01953 27.3203 5.01953H21.7422L25.1875 11.0195L30.3594 20.0195L25.1875 29.0195H32.0625L36.5781 21.1367C36.9688 20.4414 36.9688 19.5898 36.5781 18.8945Z" fill="#A8B2B3"/>
<path d="M32.0547 29.0117H14.8203L9.64844 20.0117L6.21094 25.9805L10.7422 33.8711C11.1484 34.5664 11.8906 35.0039 12.6875 35.0039H27.3047C28.1094 35.0039 28.8594 34.5742 29.25 33.8711L32.0547 29.0117Z" fill="#02031C"/>
<path d="M25.1719 29.0117H14.8125L9.64844 20.0117L14.8203 11.0117H25.1719L30.3594 20.0117L25.1719 29.0117ZM20 15.5195C17.5078 15.5195 15.5 17.5273 15.5 20.0195C15.5 22.5117 17.5078 24.5195 20 24.5195C22.4922 24.5195 24.5 22.5117 24.5 20.0195C24.5 17.5273 22.4844 15.5195 20 15.5195Z" fill="#CED4D4"/>
</svg>
