<svg width="41" height="41" viewBox="0 0 41 41" fill="none" xmlns="http://www.w3.org/2000/svg">
<path d="M21.1938 32.8943C20.8404 32.8943 20.4894 32.8016 20.1796 32.6233L16.9515 30.7121C16.4694 30.4425 16.7047 30.3471 16.8637 30.2922C17.5065 30.0671 17.637 30.0163 18.3232 29.6266C18.3953 29.5854 18.4897 29.5999 18.5635 29.6435L21.0435 31.1151C21.133 31.1635 21.2601 31.1635 21.3431 31.1151L31.0126 25.5337C31.1021 25.4829 31.1602 25.3788 31.1602 25.2723V14.1143C31.1602 14.0029 31.1021 13.9037 31.0107 13.848L21.3451 8.27142C21.2555 8.21817 21.1369 8.21817 21.0473 8.27142L11.3837 13.848C11.29 13.9013 11.2305 14.0053 11.2305 14.1118V25.2699C11.2305 25.3764 11.2885 25.478 11.3805 25.5288L14.0284 27.0585C15.4662 27.7774 16.3448 26.9303 16.3448 26.0783V15.0655C16.3448 14.9081 16.4682 14.7871 16.6255 14.7871H17.8502C18.0027 14.7871 18.1286 14.9081 18.1286 15.0655V26.0831C18.1286 28.0001 17.083 29.1013 15.2653 29.1013C14.7061 29.1013 14.2656 29.1013 13.0361 28.4962L10.4995 27.0343C9.87262 26.6713 9.48535 25.9936 9.48535 25.2699V14.1118C9.48535 13.3857 9.87262 12.708 10.4995 12.3498L20.1787 6.76594C20.791 6.41982 21.6043 6.41982 22.2118 6.76594L31.8789 12.3522C32.5033 12.7128 32.893 13.3881 32.893 14.1143V25.2723C32.893 25.996 32.5033 26.6713 31.8789 27.0343L22.2118 32.6182C21.902 32.7973 21.551 32.8893 21.1928 32.8893" fill="#02031C"/>
<path d="M24.1793 25.204C19.9478 25.204 19.0605 23.2616 19.0605 21.6324C19.0605 21.4774 19.1855 21.354 19.3406 21.354H20.5898C20.7278 21.354 20.844 21.4544 20.8657 21.5907C21.0546 22.8636 21.6162 23.5056 24.175 23.5056C26.2133 23.5056 27.0799 23.0451 27.0799 21.9642C27.0799 21.3421 26.833 20.8797 23.6666 20.5699C21.0183 20.3084 19.3818 19.725 19.3818 17.6068C19.3818 15.6556 21.0279 14.4937 23.7852 14.4937C26.8814 14.4937 28.4162 15.5685 28.6099 17.8779C28.6171 17.9578 28.5881 18.0353 28.5348 18.0934C28.4816 18.1491 28.4065 18.183 28.3291 18.183H27.0727C26.942 18.183 26.8282 18.091 26.8015 17.9651C26.4989 16.6264 25.7679 16.1979 23.7804 16.1979C21.5557 16.1979 21.2966 16.9726 21.2966 17.5535C21.2966 18.258 21.6017 18.4638 24.6035 18.8608C27.5762 19.2554 28.9875 19.8122 28.9875 21.9013C28.9875 24.0074 27.23 25.2154 24.1653 25.2154L24.1793 25.204Z" fill="#02031C"/>
</svg>
