<svg width="41" height="41" viewBox="0 0 41 41" fill="none" xmlns="http://www.w3.org/2000/svg">
<g clip-path="url(#clip0)">
<path d="M32.3884 17.6348C33.7391 17.5699 34.9346 18.6176 35.0512 19.9694C35.5564 26.5091 29.5714 33.835 21.1374 34.0692C14.0299 34.2447 7.00049 28.5545 7.00049 19.9507C7.00049 18.5948 8.12094 17.4956 9.47311 17.4956C10.8253 17.4956 11.9214 18.5948 11.9214 19.9507C11.9214 25.6101 16.4719 29.2727 21.017 29.1605C26.6121 29.0051 30.2495 24.1604 30.0603 20.2047C29.9954 18.8504 31.0379 17.6998 32.3884 17.6348Z" fill="#02031C"/>
<path d="M26.2715 20.1406C26.2715 18.7521 27.4041 17.6265 28.8013 17.6265H32.488C33.8852 17.6265 35.0529 18.7521 35.0529 20.1406C35.0529 21.5293 33.8852 22.6549 32.488 22.6549H28.8013C27.4041 22.6549 26.2715 21.5293 26.2715 20.1406Z" fill="#657374"/>
<path d="M18.5386 20.1448C18.5386 18.7539 19.6642 17.6265 21.0511 17.6265C22.4382 17.6265 23.5638 18.7539 23.5638 20.1448C23.5638 21.5356 22.4382 22.6632 21.0511 22.6632C19.6642 22.6632 18.5386 21.5356 18.5386 20.1448Z" fill="#657374"/>
<path fill-rule="evenodd" clip-rule="evenodd" d="M23.4945 8.38476C23.5507 9.73965 22.5008 10.8836 21.1497 10.9399C15.3171 11.1828 11.7563 15.767 11.9296 20.1198C11.9836 21.4747 10.9539 22.6171 9.60265 22.6712C8.25143 22.7253 7.06318 21.6317 7.00922 20.2768C6.72678 13.1834 12.633 6.17112 20.9465 6.0334C22.2976 5.97714 23.4385 7.02987 23.4945 8.38476Z" fill="#657374"/>
</g>
<defs>
<clipPath id="clip0">
<rect width="28.0909" height="28.0909" fill="white" transform="translate(6.99365 6.0127)"/>
</clipPath>
</defs>
</svg>
