<svg width="41" height="41" viewBox="0 0 41 41" fill="none" xmlns="http://www.w3.org/2000/svg">
<path d="M22.1524 22.2319C21.4003 22.2479 20.6483 22.2399 19.8962 22.2399V22.2719C19.1841 22.2719 18.48 22.2719 17.7679 22.2719C17.0158 22.2719 16.4318 22.608 15.9757 23.176C15.3197 24.0001 14.7996 24.9602 13.7995 25.4643C13.6875 25.5203 13.5995 25.7363 13.6155 25.8723C13.6235 25.9524 13.8315 26.0484 13.9675 26.0804C15.1516 26.4244 16.3598 26.4724 17.5679 26.2324C19.2801 25.8883 20.8243 25.2083 21.9364 23.8001C22.1924 23.4801 22.3685 23.08 22.5205 22.688C22.6245 22.408 22.5045 22.2239 22.1524 22.2319ZM8.07883 20.0717C7.90281 19.8317 7.71079 19.5676 7.51877 19.3036C7.37475 19.0956 7.23073 19.0476 7.02271 19.2476C6.13461 20.0717 5.81457 22.1519 6.41464 23.192C6.9747 22.1439 7.53477 21.0878 8.07883 20.0717ZM31.9215 20.5117C31.4895 20.4237 31.4495 20.2477 31.2655 20.0157C30.2894 18.8075 29.5613 17.6794 28.2811 16.4313C26.2169 14.279 23.6566 13.1669 20.6643 13.0069C19.0401 12.9189 17.4399 13.0549 15.8477 13.2949C15.0796 13.4149 14.5756 13.1109 14.2075 12.4948C14.0715 12.2628 13.9195 12.0148 13.8635 11.7587C13.6475 10.7986 13.4634 9.83852 13.2874 8.87841C13.2234 8.52637 13.1274 8.44636 12.7994 8.59038C12.2633 8.82241 11.9113 9.24645 11.7512 9.79052C11.6152 10.2546 11.4872 10.7506 11.4952 11.2307C11.5112 12.3348 11.5992 13.4389 11.6872 14.5431C11.7352 15.1591 11.6472 15.6872 11.2232 16.1752C10.7431 16.7273 10.3271 17.3434 9.87903 17.9354C8.26285 20.0557 6.9107 22.3199 6.0386 24.8562C5.59055 26.1444 5.25451 27.4485 5.47853 28.8327C5.55054 29.3047 5.59055 29.7768 5.64655 30.2488C5.71056 30.8169 6.49465 31.505 7.07071 31.489C7.72679 31.481 8.30285 31.201 8.79891 30.8169C9.67901 30.1288 10.6471 29.6168 11.6392 29.1207C12.8234 28.5366 13.9115 27.8086 14.8236 26.8485C14.8876 26.7764 14.9436 26.6964 15.0156 26.6004C14.5516 26.4884 14.1195 26.4004 13.7035 26.2804C13.2474 26.1444 13.1594 25.8003 13.4634 25.4323C13.5675 25.3123 13.7115 25.2243 13.8315 25.1123C14.1835 24.7922 14.5596 24.4962 14.8716 24.1442C15.1756 23.8081 15.3997 23.4161 15.6797 23.064C16.1838 22.432 16.8318 22.0719 17.6559 22.0559C18.144 22.0479 18.64 22.0399 19.1281 22.0479C19.5201 22.0559 19.8242 21.9279 20.1362 21.6799C20.8883 21.0638 21.5204 20.4477 22.3284 19.9117C23.6006 19.1996 24.5527 18.8956 25.7768 19.0156C27.9771 19.2396 29.6093 20.3997 30.9374 22.0799C30.9854 22.1439 31.0254 22.2319 31.0174 22.3199C31.0094 22.408 30.8814 22.3679 30.8814 22.3679C30.8814 22.3679 29.8173 21.2478 29.3132 20.7278C29.0412 21.1118 28.8972 21.3758 28.6652 21.6479C28.3531 22.0239 27.9771 22.3599 27.7051 22.76C27.273 23.4161 27.457 24.4002 28.0411 24.7842C28.0891 24.7042 28.1691 24.6322 28.1851 24.5522C28.2331 24.2322 28.2571 24.0001 28.6332 23.9761C28.8012 23.9681 28.6812 23.7681 29.0012 23.7521C29.1052 23.7601 29.0972 23.8481 29.1932 23.8401C29.2732 23.8321 29.3132 23.6881 29.4013 23.6481C29.5773 23.5761 29.8093 23.5841 29.9773 23.5921C30.2974 23.6081 30.4494 23.4401 30.4894 23.232C30.5134 23.096 30.5294 22.992 30.5934 22.752C30.7454 23.3601 31.1455 23.5441 31.6335 23.5361C31.8655 23.5361 32.1056 23.4881 32.3296 23.5281C32.8736 23.5601 32.9697 23.6881 33.2817 23.8001C33.7537 23.9761 34.1858 24.2002 34.3538 24.7602C34.4018 24.7442 34.4978 24.7362 34.5458 24.6402C34.5938 24.5442 34.5938 24.4082 34.6018 24.2482C34.6498 22.3919 33.7137 21.0718 31.9215 20.5117ZM12.6554 23.4321C13.0874 23.4241 13.1514 23.5201 12.9674 23.8961C12.9274 23.9761 12.8874 24.0721 12.8794 24.1602C12.8234 24.8882 12.4633 25.4083 11.8313 25.7683C11.5112 25.9524 11.2312 26.2004 10.9112 26.3764C10.7351 26.4724 10.4631 26.5764 10.3191 26.5044C10.2471 26.4644 10.1991 26.3604 10.1671 26.2484C10.1031 26.0244 10.0791 25.7843 10.1351 25.5523C10.4071 24.4162 11.4952 23.4481 12.6554 23.4321ZM10.0631 27.3205C10.0711 27.2245 10.5191 26.8405 10.6311 26.8565C10.7431 26.8725 10.7351 26.9525 10.7351 27.0725C10.7351 27.1925 10.2871 27.5925 10.0711 27.4565C10.015 27.4165 10.0471 27.3445 10.0631 27.3205ZM14.3035 26.9365C13.7355 27.4645 13.0954 27.8886 12.4793 28.2726C11.9993 28.5767 11.4712 28.8087 10.9752 29.1047C10.2311 29.5528 9.49499 30.0248 8.75891 30.4809C8.20684 30.8249 7.67078 31.209 6.9667 31.193C6.9747 31.1369 6.9747 31.0889 6.99071 31.0889C7.73479 30.8249 8.28685 30.3369 8.79091 29.7368C9.09494 29.3767 9.559 29.1287 9.98305 28.8887C10.8711 28.3926 11.5912 27.7366 12.1433 26.8725C12.5353 26.2564 12.5513 26.2804 13.1994 26.5684C13.5354 26.7124 13.8235 26.7684 14.3035 26.9365ZM24.7767 18.2155C25.6328 18.1995 26.0169 18.2955 26.6249 18.4395C27.105 18.5595 27.441 18.8796 27.6331 19.1356C26.873 18.9036 26.4809 18.7755 25.7288 18.7115C24.1047 18.5195 22.6805 19.0236 21.4323 20.0477C20.9043 20.4797 20.3762 20.9198 19.9042 21.4078C19.6241 21.6959 19.6161 21.7679 18.9441 21.7279C19.5441 20.7998 20.0882 19.8637 20.6243 18.9356C22.3525 15.9272 26.6969 16.4473 28.1931 18.1915C28.2571 18.2635 28.3451 18.4475 28.3451 18.4475C28.3451 18.4475 26.929 17.6954 25.8969 17.6954C25.2728 17.6954 25.1128 17.7434 24.7287 17.8074C24.6247 17.8234 24.4567 17.9114 24.4567 18.0635C24.4487 18.1995 24.6567 18.1915 24.7767 18.2155ZM33.8898 23.6801C33.4337 22.976 32.7536 23.128 32.1056 23.128C31.9135 23.128 31.7215 23.136 31.5295 23.144C31.2095 23.152 30.9374 23.08 30.7934 22.744C30.7534 22.656 30.6654 22.528 30.5934 22.512C30.5214 22.536 30.4974 22.584 30.4814 22.608C30.1933 23.224 29.6253 23.3281 29.0412 23.3361C28.7052 23.3441 28.4251 23.3921 28.2571 23.7281C28.2251 23.7921 28.0571 23.8721 28.0331 23.8481C27.9611 23.7921 27.8731 23.6561 27.8971 23.5921C27.9851 23.3361 28.0731 23.072 28.2331 22.864C28.6252 22.3279 29.0572 21.8159 29.5133 21.2478C29.7293 21.4718 29.9613 21.7279 30.2013 21.9759C30.3934 22.1679 30.5694 22.392 30.7934 22.536C30.9134 22.616 31.1695 22.624 31.2655 22.544C31.3535 22.48 31.3615 22.2079 31.2975 22.0879C31.1615 21.8399 30.9534 21.6319 30.7854 21.3998C30.6574 21.2318 30.5454 21.0478 30.3934 20.8238C31.9055 20.5517 34.1778 22.408 33.8898 23.6801Z" fill="#02031C"/>
</svg>
