<svg width="41" height="41" viewBox="0 0 41 41" fill="none" xmlns="http://www.w3.org/2000/svg">
<g clip-path="url(#clip0)">
<path d="M28.4409 16.0472C26.3951 7.04088 22.1311 4.64328 21.0433 2.94842C20.5948 2.20179 20.1975 1.42571 19.8541 0.625488C19.7966 1.42558 19.691 1.92964 19.0096 2.53637C17.6412 3.75384 11.8298 8.47972 11.3408 18.7129C10.8851 28.254 18.3695 34.1373 19.3583 34.7454C20.1187 35.1188 21.0447 34.7534 21.4963 34.4107C25.1042 31.9397 30.0337 25.3523 28.4449 16.0472" fill="#657374"/>
<path d="M20.1623 29.6631C19.9739 32.0253 19.8389 33.3978 19.3604 34.7477C19.3604 34.7477 19.6745 36.9965 19.895 39.3788H20.6756C20.8618 37.7012 21.1461 36.036 21.527 34.3916C20.5165 33.8954 20.2011 31.7359 20.1623 29.6631Z" fill="#657374"/>
<path d="M21.5266 34.3928C20.5057 33.9221 20.2104 31.7178 20.1649 29.6643C20.4174 26.2767 20.491 22.8783 20.3854 19.4831C20.332 17.7016 20.4108 2.98255 19.9458 0.827637C20.2639 1.55748 20.6304 2.26536 21.0429 2.94654C22.1306 4.64274 26.3959 7.04034 28.4404 16.0467C30.0332 25.3358 25.1305 31.9058 21.5266 34.3928Z" fill="#02031C"/>
</g>
<defs>
<clipPath id="clip0">
<rect width="40.0046" height="40.0046" fill="white" transform="translate(0 0.00439453)"/>
</clipPath>
</defs>
</svg>
