<svg width="40" height="41" viewBox="0 0 40 41" fill="none" xmlns="http://www.w3.org/2000/svg">
<path d="M36.3584 18.4829L21.5017 3.62802C20.6469 2.77243 19.2594 2.77243 18.4035 3.62802L15.3186 6.71314L19.2316 10.6261C20.1413 10.319 21.184 10.5249 21.9088 11.2499C22.6373 11.9793 22.8418 13.0309 22.5269 13.9436L26.2984 17.715C27.2108 17.4006 28.2635 17.6037 28.9921 18.3336C30.0107 19.3519 30.0107 21.0019 28.9921 22.0205C27.9733 23.0394 26.3233 23.0394 25.304 22.0205C24.5381 21.254 24.3486 20.1287 24.7366 19.185L21.2193 15.6677L21.219 24.9234C21.4673 25.0463 21.7017 25.2104 21.9086 25.4164C22.9269 26.4346 22.9269 28.0844 21.9086 29.1043C20.89 30.1224 19.2392 30.1224 18.2217 29.1043C17.2033 28.0845 17.2033 26.4347 18.2217 25.4164C18.4734 25.1652 18.7646 24.975 19.0754 24.8476V15.5059C18.7645 15.379 18.4736 15.1902 18.2215 14.9369C17.4501 14.1661 17.2643 13.0339 17.6599 12.0866L13.8025 8.22856L3.6165 18.4142C2.76064 19.2705 2.76064 20.658 3.6165 21.5137L18.4723 36.3686C19.3276 37.2242 20.7146 37.2242 21.5711 36.3686L36.3582 21.5839C37.2138 20.7279 37.2138 19.3399 36.3582 18.4841" fill="#02031C"/>
</svg>
