<svg width="41" height="41" viewBox="0 0 41 41" fill="none" xmlns="http://www.w3.org/2000/svg">
<path d="M31.0697 7.95225C30.6922 8.85735 30.2089 9.71458 29.6298 10.506C28.3657 9.23665 26.8619 8.23124 25.2058 7.54823C23.5496 6.86523 21.7742 6.51827 19.9828 6.52752C18.1914 6.53678 16.4197 6.90207 14.7707 7.60215C13.1217 8.30223 11.6284 9.32313 10.3774 10.6055C9.12653 11.8879 8.14302 13.4061 7.4841 15.072C6.82519 16.7379 6.504 18.5181 6.53924 20.3092C6.57447 22.1003 6.9654 23.8665 7.68932 25.5052C8.41324 27.1438 9.45569 28.6222 10.7561 29.8544L11.2555 30.2954C13.1616 31.9014 15.4747 32.9488 17.9391 33.3218C20.4035 33.6949 22.923 33.3789 25.2189 32.4088C27.5149 31.4388 29.4977 29.8526 30.9481 27.8256C32.3985 25.7986 33.2598 23.4099 33.4369 20.9237C33.8054 17.483 32.7951 13.1285 31.0701 7.95267L31.0697 7.95225ZM12.6786 29.9328C12.5347 30.1105 12.3414 30.2415 12.1231 30.3094C11.9048 30.3772 11.6712 30.3787 11.452 30.3138C11.2328 30.2488 11.0378 30.1203 10.8917 29.9445C10.7455 29.7687 10.6548 29.5535 10.631 29.3262C10.6071 29.0988 10.6513 28.8694 10.7579 28.6672C10.8644 28.4649 11.0286 28.2988 11.2296 28.1898C11.4306 28.0809 11.6593 28.034 11.887 28.0551C12.1146 28.0762 12.3309 28.1644 12.5084 28.3084C12.7462 28.5014 12.8977 28.7808 12.9296 29.0854C12.9615 29.3899 12.8712 29.6947 12.6786 29.9328ZM31.0141 25.8856C27.6787 30.3286 20.5572 28.8294 15.9912 29.045C15.9912 29.045 15.1818 29.0926 14.3669 29.2261C14.3669 29.2261 14.6743 29.0955 15.0673 28.9469C18.2738 27.8309 19.7895 27.6161 21.7373 26.6138C25.4045 24.7494 29.0322 20.6664 29.7861 16.4222C28.3908 20.5051 24.1542 24.0162 20.2978 25.4422C17.6547 26.4162 12.8799 27.3651 12.8799 27.3651L12.6874 27.2619C9.43874 25.6826 9.33851 18.6467 15.2467 16.3776C17.8337 15.3811 20.3088 15.9282 23.1026 15.2615C26.0859 14.5528 29.5376 12.3178 30.9421 9.40096C32.5129 14.0672 34.4055 21.3706 31.012 25.8886L31.0141 25.8856Z" fill="#657374"/>
</svg>
