<svg width="41" height="41" viewBox="0 0 41 41" fill="none" xmlns="http://www.w3.org/2000/svg">
<g clip-path="url(#clip0)">
<path d="M31.4206 8.16895L29.5596 29.0168L21.1944 31.3359L12.8522 29.02L10.9932 8.16895H31.4206Z" fill="#02031C"/>
<path d="M27.9665 27.6889L29.5569 9.87354H21.207V29.5629L27.9665 27.6889Z" fill="#657374"/>
<path d="M15.2549 17.6069L15.4841 20.1642H21.2068V17.6069H15.2549Z" fill="#EBEBEB"/>
<path d="M21.2069 12.4312H21.1981H14.7944L15.0269 14.9885H21.2069V12.4312Z" fill="#EBEBEB"/>
<path d="M21.2071 26.9092V24.2485L21.1959 24.2515L18.3478 23.4824L18.1658 21.4429H16.7818H15.5986L15.9569 25.4582L21.1953 26.9124L21.2071 26.9092Z" fill="#EBEBEB"/>
<path d="M24.3473 20.1645L24.0504 23.4811L21.1982 24.2509V26.9115L26.4408 25.4585L26.4793 25.0264L27.0802 18.2939L27.1426 17.6072L27.6043 12.4312H21.1982V14.9885H24.8017L24.569 17.6072H21.1982V20.1645H24.3473Z" fill="white"/>
</g>
<defs>
<clipPath id="clip0">
<rect width="22" height="24" fill="white" transform="translate(9.99902 8)"/>
</clipPath>
</defs>
</svg>
