<svg width="41" height="41" viewBox="0 0 41 41" fill="none" xmlns="http://www.w3.org/2000/svg">
<path fill-rule="evenodd" clip-rule="evenodd" d="M17.9295 26.8612C17.9295 26.8612 16.9731 27.4177 18.6109 27.6057C20.5957 27.8324 21.6094 27.7998 23.7959 27.3861C23.7959 27.3861 24.3716 27.7466 25.1751 28.0584C20.2722 30.1593 14.079 27.9369 17.9295 26.8612ZM17.3302 24.1196C17.3302 24.1196 16.2572 24.9138 17.8965 25.0833C20.0167 25.3023 21.6902 25.3202 24.588 24.7626C24.588 24.7626 24.9881 25.1687 25.6178 25.3906C19.6907 27.1242 13.0896 25.5271 17.3302 24.1196Z" fill="#657374"/>
<path fill-rule="evenodd" clip-rule="evenodd" d="M22.3802 19.4721C23.5889 20.8634 22.0634 22.1146 22.0634 22.1146C22.0634 22.1146 25.1309 20.5314 23.722 18.5481C22.4066 16.6994 21.3976 15.781 26.8593 12.6138C26.8591 12.6136 18.2859 14.7541 22.3802 19.4721Z" fill="#02031C"/>
<path fill-rule="evenodd" clip-rule="evenodd" d="M28.8625 28.8891C28.8625 28.8891 29.5703 29.4728 28.0828 29.9241C25.2543 30.7808 16.3078 31.0392 13.8228 29.9581C12.9301 29.5693 14.605 29.0304 15.1319 28.9166C15.6814 28.7978 15.9951 28.8194 15.9951 28.8194C15.0017 28.1198 9.57399 30.1932 13.2385 30.7881C23.2311 32.4083 31.4541 30.0587 28.8625 28.8891ZM18.39 21.2805C18.39 21.2805 13.8398 22.3615 16.7789 22.7545C18.0203 22.9204 20.4931 22.8822 22.7983 22.6889C24.6816 22.5308 26.5721 22.1927 26.5721 22.1927C26.5721 22.1927 25.9085 22.4774 25.4277 22.8052C20.8063 24.0208 11.88 23.4546 14.45 22.212C16.6229 21.1608 18.39 21.2805 18.39 21.2805ZM26.5532 25.8429C31.2506 23.4025 29.0787 21.0568 27.5624 21.3729C27.1916 21.4504 27.0253 21.5173 27.0253 21.5173C27.0253 21.5173 27.1636 21.3008 27.4265 21.2078C30.4258 20.1537 32.7321 24.3174 26.4595 25.9663C26.4593 25.9663 26.5316 25.901 26.5532 25.8429Z" fill="#657374"/>
<path fill-rule="evenodd" clip-rule="evenodd" d="M23.723 7.50049C23.723 7.50049 26.3241 10.1032 21.2552 14.1043C17.1902 17.315 20.3284 19.1451 21.254 21.2369C18.8807 19.096 17.14 17.2111 18.3077 15.4573C20.0221 12.8828 24.7725 11.6342 23.723 7.50049Z" fill="#02031C"/>
<path fill-rule="evenodd" clip-rule="evenodd" d="M18.8514 32.4555C23.3599 32.7438 30.2846 32.2954 30.4489 30.1616C30.4489 30.1616 30.1336 30.9704 26.7224 31.612C22.8739 32.3365 18.1263 32.2522 15.3115 31.7875C15.3115 31.7875 15.8883 32.2648 18.8514 32.4555Z" fill="#657374"/>
</svg>
