<svg width="41" height="41" viewBox="0 0 41 41" fill="none" xmlns="http://www.w3.org/2000/svg">
<path fill-rule="evenodd" clip-rule="evenodd" d="M34.9249 20.0969C34.8936 20.0301 34.8796 19.9965 34.8627 19.9644C34.4109 19.1048 33.9601 18.2452 33.5036 17.3856C33.4579 17.2994 33.4637 17.2485 33.5263 17.1742C34.2453 16.3343 34.9551 15.4898 35.6753 14.6535C35.7007 14.624 35.7234 14.5927 35.7329 14.5401C35.5238 14.5946 35.3147 14.6485 35.1045 14.7039C34.2367 14.9339 33.362 15.1627 32.5024 15.3962C32.4217 15.4179 32.3851 15.3943 32.3444 15.3272C31.8519 14.5036 31.3559 13.6777 30.8575 12.8645C30.8321 12.8219 30.8043 12.7806 30.75 12.7449C30.71 12.9644 30.6696 13.1828 30.6303 13.4024C30.4921 14.1772 30.3539 14.9473 30.2168 15.7256C30.2018 15.8092 30.1814 15.8929 30.1742 15.9766C30.1673 16.0565 30.1261 16.086 30.0533 16.109C29.0299 16.4308 28.0089 16.7548 26.9866 17.0789C26.9418 17.093 26.8978 17.1116 26.8496 17.1551C27.6859 17.4874 28.5223 17.8196 29.3703 18.1576C29.3394 18.1821 29.319 18.2012 29.2963 18.2157C28.7736 18.5538 28.2497 18.8918 27.7281 19.231C27.6655 19.2719 27.616 19.2777 27.5457 19.246C26.9208 18.9649 26.2912 18.6884 25.6639 18.4096C25.3828 18.2841 25.1307 18.118 24.9344 17.8764C24.4895 17.3328 24.5778 16.7148 25.1702 16.3314C25.3642 16.2071 25.5849 16.1154 25.8044 16.0433C26.8069 15.7169 27.8141 15.4021 28.8131 15.0862C28.8974 15.0593 28.9362 15.0217 28.9525 14.9305C29.0872 14.1545 29.2254 13.3739 29.366 12.6072C29.4408 12.1925 29.4803 11.7685 29.682 11.3875C29.7592 11.2412 29.8516 11.0983 29.9631 10.9763C30.3627 10.5326 30.9191 10.5163 31.3454 10.9382C31.4883 11.0811 31.6103 11.2484 31.716 11.4215C32.1806 12.18 32.6383 12.9432 33.0983 13.7099C33.1523 13.8001 33.2009 13.8182 33.3005 13.792C34.4214 13.4911 35.5424 13.1949 36.6692 12.8987C36.9015 12.8375 37.135 12.8153 37.3731 12.8598C37.8901 12.9564 38.1166 13.35 37.9412 13.8507C37.8618 14.0783 37.7239 14.27 37.5694 14.4524C36.7865 15.3736 36.0012 16.2994 35.223 17.2171C35.1589 17.2923 35.1577 17.346 35.202 17.4308C35.6713 18.3148 36.136 19.1965 36.6076 20.0909C36.7192 20.3024 36.8051 20.5231 36.8074 20.7658C36.8129 21.3188 36.4078 21.7718 35.8584 21.8531C35.5505 21.8981 35.2648 21.8323 34.9755 21.7434C34.2727 21.5261 33.57 21.3124 32.8614 21.0998C32.796 21.0803 32.771 21.0544 32.7592 20.9841C32.6784 20.4881 32.5897 19.9932 32.5037 19.4972C32.5015 19.4836 32.5055 19.4691 32.5079 19.4387C33.3106 19.6606 34.1109 19.8789 34.9357 20.1078" fill="#657374"/>
<path fill-rule="evenodd" clip-rule="evenodd" d="M33.53 27.3542C32.8957 27.3533 32.2637 27.3502 31.6247 27.353C31.5407 27.353 31.4934 27.3289 31.447 27.2576C30.6965 26.1144 29.9367 24.9689 29.1932 23.8304C29.1691 23.7942 29.1437 23.7592 29.1011 23.698C28.9396 24.9294 28.7804 26.1377 28.6213 27.3459H26.96C26.9795 27.1844 26.9968 27.0276 27.0172 26.8719C27.1787 25.6288 27.3425 24.3974 27.5052 23.1543C27.6608 21.9693 27.8154 20.7843 27.9734 19.5993C27.9779 19.5644 28.0015 19.5194 28.03 19.5008C28.6016 19.1279 29.1755 18.7585 29.7494 18.389C29.7577 18.3836 29.7694 18.3831 29.7989 18.3745C29.6258 19.6989 29.4539 21.0117 29.2808 22.3245C29.2876 22.329 29.2944 22.334 29.3012 22.3385C30.2016 21.3417 31.1019 20.3403 32.0197 19.3296C32.0461 19.4829 32.0692 19.6142 32.0919 19.7455C32.1563 20.1207 32.2185 20.4983 32.287 20.8735C32.3011 20.9493 32.2806 20.9955 32.2303 21.049C31.6483 21.6577 31.0686 22.2688 30.4877 22.8845C30.4623 22.9114 30.4382 22.939 30.4092 22.9708C30.4278 23.0002 30.4437 23.0289 30.4623 23.0552C31.4625 24.4609 32.4605 25.8666 33.4596 27.2723C33.4777 27.2978 33.504 27.3178 33.5263 27.3404V27.3626" fill="#02031C"/>
<path fill-rule="evenodd" clip-rule="evenodd" d="M13.9031 23.6409C13.8776 23.512 13.8595 23.3215 13.8019 23.1437C13.5231 22.2852 12.6436 21.8193 11.734 22.0273C10.7337 22.2596 10.0146 23.0461 9.92166 24.0719C9.84498 24.8271 10.2516 25.559 11.0067 25.8262C11.6155 26.0457 12.2033 25.954 12.7494 25.6275C13.4708 25.1954 13.8611 24.5529 13.9111 23.6409H13.9031ZM9.51168 26.8357C9.46265 27.2052 9.41549 27.5525 9.36994 27.9011C9.30919 28.3634 9.24796 28.827 9.18987 29.2952C9.18314 29.3492 9.16676 29.3732 9.10867 29.3728C8.6521 29.371 8.19554 29.3715 7.73781 29.3706C7.72735 29.3706 7.7169 29.3651 7.69238 29.3579C7.72003 29.1395 7.74687 28.9199 7.77545 28.7015C7.87617 27.9347 7.97643 27.168 8.07866 26.4012C8.196 25.523 8.28778 24.647 8.43764 23.7757C8.70252 22.2306 10.0176 20.9062 11.5511 20.5693C12.4422 20.3764 13.2937 20.4658 14.0721 20.9678C14.8482 21.4673 15.2919 22.1992 15.3965 23.1054C15.5406 24.3949 15.0654 25.4637 14.1534 26.3583C13.5517 26.9403 12.829 27.3097 12.0042 27.4352C11.148 27.5642 10.3429 27.4216 9.62262 26.9171C9.59625 26.8985 9.56767 26.8822 9.52237 26.8536" fill="#02031C"/>
<path fill-rule="evenodd" clip-rule="evenodd" d="M8.74532 19.5155C8.23415 19.8965 7.74041 20.2637 7.24666 20.6319C7.16685 20.5065 7.09564 20.381 7.01199 20.2637C6.79707 19.9628 6.52987 19.7385 6.14184 19.7118C5.81888 19.6891 5.54238 19.7952 5.32281 20.0336C5.12648 20.2462 5.10092 20.5494 5.28424 20.7899C5.48638 21.0548 5.70712 21.3057 5.93366 21.5509C6.3089 21.9575 6.70041 22.3478 7.07217 22.7591C7.41024 23.1308 7.68092 23.5468 7.76457 24.0602C7.86402 24.6644 7.74331 25.2336 7.45787 25.768C6.92927 26.7497 6.09863 27.3248 4.99497 27.499C4.50936 27.5774 4.02607 27.5621 3.5544 27.4227C2.92589 27.238 2.48792 26.8255 2.20677 26.2493C2.10744 26.0437 2.03135 25.8264 1.94189 25.6057C2.4914 25.3118 3.02697 25.0248 3.56834 24.7356C3.58693 24.7805 3.60052 24.8182 3.61783 24.8541C3.71042 25.0388 3.78628 25.2351 3.90014 25.4059C4.24053 25.9113 4.78887 26.0646 5.3407 25.8148C5.4836 25.7504 5.62184 25.6603 5.73918 25.5558C6.097 25.2374 6.16438 24.7937 5.8995 24.394C5.74731 24.164 5.55679 23.9572 5.37091 23.7516C4.92712 23.259 4.46474 22.7815 4.0349 22.2761C3.73633 21.9299 3.53302 21.528 3.46797 21.0679C3.39768 20.5614 3.49887 20.0851 3.76189 19.6622C4.41595 18.6039 5.3651 18.059 6.61978 18.0939C7.33658 18.1198 7.90932 18.4552 8.35079 19.0128C8.48206 19.1778 8.60521 19.3485 8.73881 19.5275" fill="#02031C"/>
<path fill-rule="evenodd" clip-rule="evenodd" d="M20.8714 25.1495C20.7878 25.7873 20.7087 26.3926 20.6274 26.9967C20.6229 27.0276 20.5988 27.0693 20.5729 27.0811C19.3298 27.655 17.7034 27.5749 16.6927 26.4201C16.1466 25.7997 15.9178 25.0609 15.9515 24.2476C16.0308 22.354 17.6011 20.6927 19.4832 20.4603C20.581 20.3256 21.5395 20.6218 22.283 21.4757C22.7895 22.0566 23.0242 22.7536 22.9893 23.5204C22.9667 24.0269 22.8872 24.5299 22.8244 25.0306C22.7349 25.744 22.6373 26.4596 22.5432 27.1683C22.5396 27.1931 22.5346 27.2186 22.5287 27.2509H21.0533C21.0728 27.0871 21.0909 26.9267 21.1118 26.7664C21.2189 25.9427 21.3372 25.1167 21.4313 24.2919C21.4899 23.7784 21.453 23.2684 21.2176 22.7932C20.9678 22.2879 20.5495 22.0195 19.9977 21.9614C18.8569 21.8406 17.7672 22.6329 17.5348 23.7505C17.3745 24.4917 17.6274 25.2027 18.2179 25.5977C18.793 25.9799 19.4029 25.9811 20.0302 25.7336C20.3486 25.6081 20.6181 25.4083 20.876 25.14" fill="#02031C"/>
<path fill-rule="evenodd" clip-rule="evenodd" d="M27.1422 20.6531C27.0746 21.1666 27.0075 21.6719 26.9401 22.1866C26.6264 22.1866 26.3197 22.1848 26.013 22.187C25.7644 22.1889 25.5379 22.3497 25.4623 22.582C25.4333 22.6728 25.4225 22.7702 25.4097 22.8655C25.254 24.0505 25.0995 25.2238 24.945 26.3972C24.906 26.6946 24.8683 26.992 24.8293 27.2941H23.2842C23.3128 27.0675 23.3399 26.848 23.3685 26.6284C23.4688 25.864 23.5695 25.0949 23.6706 24.3397C23.7582 23.6787 23.8367 23.0154 23.9401 22.3532C24.0783 21.4702 24.9566 20.6802 25.8454 20.6454C26.2706 20.6268 26.6969 20.6423 27.1349 20.6423" fill="#02031C"/>
<path d="M35.3882 27.3543V26.7033H35.3846L35.1289 27.3543H35.0476L34.7918 26.7033H34.7877V27.3543H34.6598V26.5742H34.8587L35.0912 27.1672L35.3202 26.5742H35.5179V27.3543H35.3882ZM34.2558 26.6789V27.3543H34.1279V26.6789H33.8838V26.5743H34.5011V26.6789H34.257" fill="#02031C"/>
<path d="M10.8 18.4239H11.1825L11.0921 17.8449L10.8 18.4239ZM11.243 18.7982H10.607L10.4047 19.1947H9.95361L10.9477 17.3345H11.3825L11.7208 19.1947H11.3034L11.2434 18.7982" fill="#02031C"/>
<path d="M13.5196 17.7143H13.2929L13.2166 18.1433H13.4433C13.5805 18.1433 13.6886 18.0534 13.6886 17.884C13.6886 17.7718 13.6205 17.7143 13.5189 17.7143H13.5196ZM12.9708 17.3399H13.5661C13.8777 17.3399 14.0951 17.5259 14.0951 17.8445C14.0951 18.2468 13.8114 18.5165 13.4068 18.5165H13.1499L13.0289 19.1966H12.6406L12.9685 17.3364" fill="#02031C"/>
<path d="M15.4125 18.4229H15.795L15.7047 17.8439L15.4125 18.4229ZM15.8543 18.7972H15.2183L15.016 19.1937H14.5649L15.559 17.3335H15.9938L16.3321 19.1937H15.9148L15.8548 18.7972" fill="#02031C"/>
<path d="M18.3165 19.1324C18.1851 19.1924 18.0409 19.2282 17.8956 19.2282C17.4038 19.2282 17.0957 18.8597 17.0957 18.3981C17.0957 17.8075 17.5921 17.311 18.1828 17.311C18.3304 17.311 18.4641 17.3465 18.5734 17.4064L18.5189 17.8517C18.4371 17.7613 18.305 17.6982 18.1422 17.6982C17.8039 17.6982 17.5027 18.004 17.5027 18.3586C17.5027 18.6283 17.6725 18.8399 17.9399 18.8399C18.1038 18.8399 18.2619 18.7768 18.3689 18.6899L18.3172 19.1317" fill="#02031C"/>
<path d="M20.7548 18.4452H19.9468L19.8154 19.1927H19.4282L19.7561 17.3325H20.1444L20.0142 18.0673H20.8222L20.9536 17.3325H21.3419L21.0141 19.1927H20.6257L20.7559 18.4452" fill="#02031C"/>
<path d="M22.1475 19.1878L22.4753 17.3276H23.5054L23.44 17.702H22.7982L22.7327 18.0624H23.3222L23.2567 18.4368H22.6673L22.6018 18.8112H23.2436L23.1781 19.1855H22.148" fill="#02031C"/>
</svg>
