<svg width="41" height="41" viewBox="0 0 41 41" fill="none" xmlns="http://www.w3.org/2000/svg">
<g clip-path="url(#clip0)">
<path d="M28.0071 0.0151137C27.3749 0.387743 26.3229 1.44275 25.0679 2.97286L26.2179 5.14342C27.0274 3.9906 27.8485 2.94957 28.6673 2.06923C28.7326 1.99936 28.7629 1.96676 28.7629 1.96676C28.7326 1.99936 28.6976 2.03663 28.6673 2.06923C28.399 2.36268 27.5849 3.31288 26.3579 5.19C27.5406 5.13178 29.3438 4.88957 30.8367 4.63805C31.2799 2.16938 30.4051 1.05149 30.4051 1.05149C30.4051 1.05149 29.2948 -0.74179 28.0024 0.0244294L28.0071 0.0151137Z" fill="#02031C"/>
<path d="M26.0481 12.4007C26.0551 12.3983 26.0645 12.3983 26.0738 12.396L25.9079 12.4147L25.8799 12.4287C25.9336 12.417 25.992 12.4077 26.0481 12.4007Z" fill="#02031C"/>
<path d="M24.8843 16.2822C24.7906 16.3033 24.6946 16.3196 24.5962 16.336C24.6946 16.3196 24.7906 16.3009 24.8843 16.2822Z" fill="#02031C"/>
<path d="M16.8819 25C16.8936 24.9697 16.9053 24.9348 16.9169 24.9045C17.1711 24.2362 17.423 23.5866 17.6703 22.9532C17.9478 22.243 18.223 21.5561 18.4982 20.8901C18.7851 20.1892 19.0697 19.5093 19.3472 18.8527C19.6387 18.1657 19.928 17.5021 20.2125 16.8641C20.4434 16.3448 20.6696 15.8419 20.8935 15.3552C20.9682 15.1922 21.0428 15.0315 21.1174 14.8732C21.2644 14.5565 21.409 14.2491 21.5536 13.9464C21.6865 13.6693 21.8171 13.3969 21.9501 13.1268C21.9944 13.0383 22.0364 12.9498 22.0807 12.8613C22.0877 12.8474 22.0947 12.8334 22.1017 12.8171L21.9594 12.8311L21.8475 12.6099C21.8358 12.6308 21.8265 12.6541 21.8148 12.6751C21.6142 13.0779 21.4113 13.4807 21.2131 13.8882C21.0988 14.1257 20.9845 14.3632 20.8702 14.5984C20.5553 15.2574 20.2475 15.9257 19.9419 16.5916C19.6341 17.2693 19.3332 17.9492 19.0347 18.6314C18.7455 19.3021 18.4586 19.9727 18.181 20.641C17.9035 21.3092 17.6306 21.9752 17.3647 22.6342C17.0872 23.3234 16.819 24.008 16.5577 24.6833C16.4971 24.837 16.4411 24.9883 16.3805 25.1397C16.1706 25.6846 15.9653 26.2248 15.7671 26.7557L15.9443 27.105L16.1029 27.0887C16.1076 27.0724 16.1146 27.0584 16.1193 27.0398C16.3782 26.3459 16.6324 25.6636 16.8819 25Z" fill="#657374"/>
<path d="M24.1374 18.2363C23.9903 18.262 23.8409 18.2899 23.6845 18.3156C23.6845 18.3156 23.6821 18.3156 23.6821 18.3179C23.7615 18.3063 23.8385 18.2946 23.9156 18.2829C23.988 18.2666 24.0627 18.2526 24.1374 18.2363Z" fill="#02031C"/>
<path d="M24.1374 18.2363C23.9903 18.262 23.8409 18.2899 23.6845 18.3156C23.6845 18.3156 23.6821 18.3156 23.6821 18.3179C23.7615 18.3063 23.8385 18.2946 23.9156 18.2829C23.988 18.2666 24.0627 18.2526 24.1374 18.2363Z" fill="#02031C"/>
<path d="M24.5307 16.3637C24.5283 16.3637 24.5283 16.3637 24.5283 16.366C24.5517 16.3637 24.5773 16.3591 24.6007 16.3544C24.6987 16.3404 24.7945 16.3241 24.8878 16.3008C24.7711 16.3218 24.6544 16.3427 24.5307 16.3637Z" fill="#02031C"/>
<path d="M24.5307 16.3637C24.5283 16.3637 24.5283 16.3637 24.5283 16.366C24.5517 16.3637 24.5773 16.3591 24.6007 16.3544C24.6987 16.3404 24.7945 16.3241 24.8878 16.3008C24.7711 16.3218 24.6544 16.3427 24.5307 16.3637Z" fill="#02031C"/>
<path d="M22.8317 10.7591C23.1816 10.1047 23.5362 9.46655 23.8931 8.84705C24.264 8.19961 24.6419 7.57545 25.0221 6.96993C25.0431 6.935 25.0688 6.89773 25.0898 6.8628C25.4653 6.26892 25.8456 5.696 26.2258 5.15103L25.0758 2.98047C24.9895 3.08527 24.9031 3.1924 24.8145 3.30419C24.4809 3.71874 24.138 4.16124 23.7834 4.63401C23.3845 5.16501 22.9763 5.73327 22.5588 6.32947C22.1762 6.8791 21.7843 7.45435 21.3924 8.05288C21.0588 8.56059 20.7276 9.08227 20.3963 9.61793C20.3847 9.63656 20.373 9.65752 20.3613 9.67848L21.8613 12.6362C22.1785 11.9958 22.5051 11.3693 22.8317 10.7591Z" fill="#02031C"/>
<path d="M15.9954 27.3846C15.7971 27.9272 15.5965 28.4839 15.3982 29.0498C15.3958 29.0568 15.3935 29.0661 15.3888 29.0731C15.3609 29.1523 15.3305 29.2338 15.3049 29.313C15.1696 29.6949 15.0529 30.0396 14.7847 30.8198C15.2256 31.0201 15.5801 31.5511 15.916 32.1519C15.881 31.5301 15.6244 30.9455 15.1322 30.4937C17.3087 30.5915 19.1912 30.0419 20.1476 28.4536C20.2339 28.3115 20.3132 28.1648 20.3855 28.0041C19.9447 28.563 19.3965 28.7983 18.3677 28.7424C18.3654 28.7424 18.3631 28.7447 18.3607 28.7447C18.3631 28.7447 18.3654 28.7424 18.3677 28.7424C19.884 28.0646 20.6421 27.4149 21.307 26.3436C21.4656 26.0874 21.6219 25.8102 21.7805 25.5005C20.4555 26.8583 18.9346 27.2449 17.3017 26.9514L16.0887 27.0842C16.049 27.1866 16.014 27.2868 15.9744 27.3893L15.9954 27.3846Z" fill="#657374"/>
<path d="M16.5795 24.6918C16.8407 24.0165 17.1112 23.3319 17.3864 22.6427C17.6523 21.9814 17.9229 21.3154 18.2028 20.6495C18.4826 19.9835 18.7672 19.3106 19.0564 18.6399C19.3503 17.9577 19.6535 17.2778 19.9637 16.6002C20.2692 15.9295 20.5771 15.2636 20.8919 14.6069C21.0039 14.3694 21.1205 14.1319 21.2348 13.8967C21.433 13.4892 21.6336 13.0841 21.8365 12.6836C21.8482 12.6626 21.8575 12.6393 21.8692 12.6184L20.3695 9.66113C20.3462 9.70072 20.3205 9.74263 20.2948 9.77989C19.945 10.3504 19.5975 10.9325 19.257 11.5263C18.9118 12.127 18.5736 12.7395 18.2424 13.3612C17.9649 13.8851 17.692 14.4113 17.4238 14.9469C17.3701 15.054 17.3188 15.1635 17.2652 15.2706C16.9386 15.9435 16.6448 16.5885 16.3765 17.2149C16.0733 17.9204 15.8075 18.5957 15.5766 19.2361C15.4226 19.6575 15.285 20.0627 15.1567 20.4539C15.0518 20.7869 14.9538 21.1222 14.8559 21.4551C14.632 22.2375 14.4384 23.0199 14.2798 23.807L15.7865 26.7875C15.9847 26.2566 16.19 25.7164 16.3999 25.1715C16.4628 25.0155 16.5188 24.8618 16.5795 24.7128V24.6918Z" fill="#02031C"/>
<path d="M14.2479 23.8973C14.059 24.8474 13.9237 25.7928 13.8561 26.7381L13.8491 26.8359C13.378 26.0838 12.1208 25.3503 12.1232 25.3573C13.0258 26.6613 13.7091 27.9653 13.8094 29.2227C13.3266 29.3205 12.6666 29.1784 11.9039 28.899C12.6993 29.6302 13.2963 29.8304 13.5319 29.8863C12.7995 29.9329 12.0392 30.4335 11.2719 31.011C12.3937 30.5546 13.301 30.373 13.954 30.5197C12.9232 33.4303 11.8923 36.6437 10.8521 40.0667C11.1692 39.9735 11.3582 39.7593 11.4631 39.4729C11.6474 38.8558 12.8672 34.7925 14.775 29.4835C14.831 29.3321 14.8846 29.1784 14.9406 29.0271C14.9546 28.9829 14.9709 28.9409 14.9873 28.9014C15.1878 28.3425 15.4001 27.772 15.6147 27.1899C15.6636 27.0572 15.7126 26.9244 15.7639 26.7917C15.7639 26.7894 15.7663 26.787 15.7663 26.7847L14.2572 23.8042C14.2526 23.8345 14.2456 23.8694 14.2386 23.9043L14.2479 23.8973Z" fill="#657374"/>
<path d="M22.0828 12.8701C22.0385 12.9585 21.9965 13.047 21.9522 13.1355C21.8216 13.4033 21.691 13.6757 21.5557 13.9552C21.4111 14.2579 21.2665 14.5652 21.1196 14.8819C21.0449 15.0402 20.9703 15.2009 20.8957 15.3639C20.6718 15.8506 20.4455 16.3535 20.2146 16.8728C19.9324 17.5085 19.6409 18.1721 19.3493 18.8614C19.0718 19.518 18.7849 20.1956 18.5004 20.8988C18.2275 21.5648 17.9523 22.254 17.6724 22.9619C17.4229 23.5929 17.171 24.2449 16.9191 24.9132C16.9074 24.9435 16.8957 24.9784 16.8841 25.0087C16.6322 25.6723 16.378 26.3546 16.1237 27.0531C16.1191 27.0694 16.1121 27.0834 16.1074 27.102L17.3202 26.9693C17.2969 26.9647 17.2713 26.9623 17.2479 26.9577C18.6963 26.7784 20.6298 25.6956 21.8659 24.3497C22.4397 23.735 22.9598 23.0085 23.4402 22.1586C23.7971 21.5275 24.1353 20.8243 24.4571 20.0489C24.737 19.3713 25.0052 18.6355 25.2641 17.8415C24.9306 18.0161 24.5504 18.1465 24.1306 18.235C24.056 18.2513 23.9813 18.2653 23.9044 18.2792C23.8274 18.2932 23.7504 18.3048 23.6711 18.3142C23.6711 18.3142 23.6735 18.3142 23.6735 18.3118C25.0262 17.7926 25.8775 16.7913 26.4956 15.5642C26.1411 15.8063 25.5627 16.123 24.87 16.2744C24.7767 16.2953 24.681 16.3116 24.5831 16.3279C24.5598 16.3303 24.5341 16.3349 24.5108 16.3396H24.5131H24.5154C24.9866 16.144 25.3807 15.9228 25.7236 15.6643C25.7982 15.6084 25.8705 15.5525 25.9358 15.492C26.0408 15.4012 26.1387 15.3057 26.2367 15.2079C26.2973 15.1427 26.3556 15.0775 26.414 15.01C26.5492 14.8493 26.6752 14.677 26.7918 14.4907C26.8268 14.4325 26.8641 14.3766 26.8967 14.3161C26.9434 14.2299 26.9854 14.1438 27.0274 14.0623C27.2163 13.685 27.3679 13.3451 27.4868 13.0494C27.5475 12.9003 27.5988 12.7653 27.6454 12.6349C27.6641 12.5836 27.6804 12.5347 27.6967 12.4858C27.7457 12.3438 27.783 12.2181 27.8133 12.1063C27.86 11.9386 27.888 11.8059 27.902 11.7104C27.8553 11.7454 27.804 11.7826 27.7434 11.8176C27.3352 12.0621 26.6355 12.2809 26.0711 12.3857L27.1836 12.2646L26.0711 12.3857C26.0641 12.3881 26.0548 12.3881 26.0454 12.3904C25.9871 12.3997 25.9335 12.409 25.8752 12.416L25.9032 12.402L22.1015 12.8188C22.1015 12.8281 22.0945 12.8444 22.0875 12.8584L22.0828 12.8701Z" fill="#02031C"/>
<path d="M26.3758 5.17392C26.0376 5.69327 25.669 6.28249 25.2678 6.95089C25.2468 6.9835 25.2235 7.02309 25.2048 7.05569C24.8619 7.63327 24.498 8.26674 24.1107 8.96309C23.7795 9.56395 23.4343 10.2067 23.075 10.8984C22.7624 11.5016 22.4405 12.1421 22.1069 12.8198L25.9093 12.4029C27.0197 11.8929 27.5142 11.4341 27.9947 10.7657C28.1207 10.5817 28.2513 10.3907 28.3773 10.1904C28.7692 9.58026 29.1518 8.90952 29.4947 8.24112C29.8259 7.59601 30.1175 6.95788 30.3415 6.3803C30.4838 6.01466 30.5981 5.67464 30.6774 5.3742C30.7474 5.11103 30.801 4.85951 30.843 4.61963C29.3664 4.87348 27.5538 5.11569 26.3642 5.17392H26.3758Z" fill="#02031C"/>
<path d="M23.9019 18.2939C23.8245 18.308 23.7472 18.3197 23.6675 18.3291C23.7472 18.322 23.8269 18.308 23.9019 18.2939Z" fill="#02031C"/>
<path opacity="0.35" d="M23.9019 18.2939C23.8245 18.308 23.7472 18.3197 23.6675 18.3291C23.7472 18.322 23.8269 18.308 23.9019 18.2939Z" fill="#02031C"/>
<path d="M23.9019 18.2939C23.8245 18.308 23.7472 18.3197 23.6675 18.3291C23.7472 18.322 23.8269 18.308 23.9019 18.2939Z" fill="#02031C"/>
<path d="M24.5332 16.3524C24.5564 16.3501 24.5819 16.3455 24.6051 16.3408C24.5819 16.3431 24.5587 16.3501 24.5332 16.3524Z" fill="#02031C"/>
<path opacity="0.35" d="M24.5332 16.3524C24.5564 16.3501 24.5819 16.3455 24.6051 16.3408C24.5819 16.3431 24.5587 16.3501 24.5332 16.3524Z" fill="#02031C"/>
<path d="M24.5332 16.3524C24.5564 16.3501 24.5819 16.3455 24.6051 16.3408C24.5819 16.3431 24.5587 16.3501 24.5332 16.3524Z" fill="#02031C"/>
</g>
<defs>
<clipPath id="clip0">
<rect width="40.0046" height="40.0046" fill="white" transform="translate(0.981934 0.00927734)"/>
</clipPath>
</defs>
</svg>
