<svg width="41" height="41" viewBox="0 0 41 41" fill="none" xmlns="http://www.w3.org/2000/svg">
<path d="M32.4316 21.7576C31.3224 21.7638 30.362 22.0303 29.5565 22.4268C29.2591 21.8382 28.9616 21.3239 28.9121 20.9397C28.8563 20.4936 28.7881 20.2209 28.8563 19.6881C28.9245 19.1552 29.2343 18.3992 29.2343 18.3373C29.2281 18.2815 29.1661 18.0089 28.5279 18.0027C27.8897 17.9965 27.3382 18.1266 27.2762 18.2939C27.2143 18.4612 27.0904 18.8454 27.0098 19.2419C26.8983 19.8244 25.7334 21.8877 25.0704 22.9721C24.8535 22.5508 24.6676 22.179 24.6304 21.8816C24.5747 21.4354 24.5065 21.1628 24.5747 20.6299C24.6428 20.097 24.9526 19.3411 24.9526 19.2791C24.9464 19.2233 24.8845 18.9507 24.2463 18.9445C23.608 18.9383 23.0566 19.0684 22.9946 19.2357C22.9326 19.403 22.8645 19.7996 22.7282 20.1838C22.598 20.5679 21.049 24.0131 20.6462 24.9115C20.4417 25.3701 20.262 25.7356 20.1319 25.9835C20.0018 26.2313 20.1257 26.0021 20.1133 26.0269C20.0018 26.2375 19.9398 26.3553 19.9398 26.3553V26.3615C19.8531 26.5164 19.7601 26.6651 19.7168 26.6651C19.6858 26.6651 19.6238 26.2499 19.7292 25.6799C19.9584 24.484 20.5161 22.6189 20.5099 22.5508C20.5099 22.5198 20.6152 22.1914 20.1505 22.0241C19.6982 21.8568 19.5371 22.1356 19.4999 22.1356C19.4627 22.1356 19.4317 22.2347 19.4317 22.2347C19.4317 22.2347 19.9336 20.1342 18.4713 20.1342C17.5543 20.1342 16.2902 21.1318 15.6644 22.0427C15.2678 22.2595 14.4251 22.7181 13.5329 23.2076C13.1921 23.3934 12.8389 23.5917 12.5043 23.7714L12.4361 23.6971C10.664 21.8072 7.38615 20.4688 7.52247 17.9283C7.57204 17.0051 7.89425 14.5699 13.8179 11.6205C18.6696 9.20394 22.5547 9.86694 23.2301 11.3417C24.1905 13.4484 21.1543 17.3645 16.1105 17.9283C14.1897 18.1452 13.1797 17.4016 12.9256 17.1228C12.6592 16.8316 12.622 16.8192 12.5229 16.8749C12.3618 16.9617 12.4609 17.2219 12.5229 17.3768C12.6716 17.7672 13.2912 18.4612 14.3446 18.8082C15.2678 19.1118 17.5233 19.2791 20.2497 18.2257C23.3044 17.0422 25.69 13.7582 24.9898 11.0133C24.2772 8.21873 19.6424 7.30168 15.2616 8.85695C12.653 9.78639 9.82749 11.2363 7.79511 13.1386C5.37855 15.394 4.99438 17.3645 5.15549 18.1824C5.71935 21.1008 9.74074 23.0031 11.3518 24.4096C11.2712 24.453 11.1969 24.4964 11.1287 24.5336C10.3232 24.9301 7.25603 26.535 6.48769 28.2328C5.62021 30.1536 6.62401 31.5354 7.29321 31.7213C9.36277 32.2975 11.4819 31.2627 12.6282 29.5588C13.7683 27.8548 13.632 25.6427 13.1053 24.6327L13.0867 24.5955L13.7188 24.2238C14.1277 23.9821 14.5305 23.759 14.8837 23.5669C14.6854 24.106 14.5429 24.7442 14.4685 25.6737C14.3818 26.7642 14.8279 28.177 15.4165 28.7347C15.6768 28.9763 15.9866 28.9825 16.1787 28.9825C16.8603 28.9825 17.1701 28.4186 17.5109 27.7432C17.9322 26.9191 18.304 25.9649 18.304 25.9649C18.304 25.9649 17.8393 28.5488 19.1095 28.5488C19.5743 28.5488 20.039 27.9477 20.2497 27.6379V27.6441C20.2497 27.6441 20.262 27.6255 20.2868 27.5821C20.3364 27.5078 20.3612 27.4644 20.3612 27.4644V27.452C20.5471 27.1298 20.9622 26.3925 21.5819 25.1718C22.3812 23.5979 23.1495 21.6275 23.1495 21.6275C23.1495 21.6275 23.2239 22.1108 23.4531 22.9039C23.5895 23.3749 23.8869 23.8892 24.1161 24.3911C23.9303 24.6513 23.8187 24.8 23.8187 24.8L23.8249 24.8062C23.6762 25.0045 23.5089 25.2152 23.3354 25.4258C22.7034 26.1818 21.9474 27.0431 21.8483 27.2909C21.7306 27.5821 21.7554 27.799 21.9846 27.9725C22.1519 28.0964 22.4493 28.1212 22.7653 28.0964C23.3354 28.0593 23.732 27.9167 23.9303 27.83C24.2401 27.7185 24.5933 27.5512 24.9341 27.3033C25.5537 26.8448 25.9317 26.1942 25.8945 25.3267C25.8759 24.8496 25.721 24.3787 25.5289 23.9325C25.5847 23.852 25.6404 23.7714 25.6962 23.6847C26.6752 22.2533 27.4312 20.6795 27.4312 20.6795C27.4312 20.6795 27.5055 21.1628 27.7348 21.9559C27.8525 22.3587 28.088 22.7986 28.2986 23.2323C27.3816 23.9821 26.8053 24.8496 26.607 25.4196C26.2415 26.473 26.5265 26.9501 27.0656 27.0617C27.3072 27.1112 27.6542 26.9997 27.9145 26.8882C28.2367 26.7828 28.627 26.6031 28.9864 26.3367C29.6061 25.8782 30.2009 25.2399 30.1699 24.3787C30.1513 23.9821 30.046 23.5917 29.9035 23.22C30.6842 22.8977 31.6942 22.7119 32.9768 22.8668C35.7342 23.189 36.2795 24.9115 36.1741 25.6303C36.0688 26.3491 35.4925 26.7456 35.3004 26.8696C35.1084 26.9873 35.0464 27.0307 35.065 27.1174C35.0898 27.2475 35.1765 27.2413 35.3438 27.2166C35.5731 27.1794 36.7938 26.6279 36.8433 25.3019C36.9177 23.5979 35.3004 21.739 32.4316 21.7576ZM11.1659 28.9267C10.255 29.9243 8.9724 30.3023 8.42713 29.9801C7.83848 29.6393 8.06774 28.1708 9.18927 27.1112C9.87086 26.4668 10.7569 25.872 11.3394 25.5064C11.4695 25.4258 11.6678 25.3081 11.9032 25.1656C11.9404 25.1408 11.9652 25.1284 11.9652 25.1284C12.0086 25.1036 12.0582 25.0726 12.1077 25.0417C12.5229 26.5536 12.1263 27.8796 11.1659 28.9267ZM17.8269 24.3972C17.5109 25.1718 16.8417 27.1608 16.4389 27.0493C16.0919 26.9563 15.8813 25.4506 16.3708 23.9635C16.6186 23.2138 17.1453 22.3215 17.4551 21.9745C17.957 21.4168 18.5023 21.2309 18.6386 21.4602C18.7997 21.7576 18.0252 23.9139 17.8269 24.3972ZM23.323 27.0245C23.1867 27.0926 23.0628 27.1422 23.007 27.105C22.9636 27.0802 23.0628 26.9873 23.0628 26.9873C23.0628 26.9873 23.7506 26.2499 24.0232 25.9091C24.1781 25.7109 24.364 25.4816 24.5623 25.2214V25.2957C24.5623 26.188 23.7072 26.7828 23.323 27.0245ZM27.5613 26.0579C27.4621 25.9835 27.4745 25.7542 27.8091 25.0355C27.9393 24.7504 28.2367 24.2733 28.751 23.821C28.8129 24.0069 28.8501 24.1866 28.8439 24.3539C28.8377 25.4692 28.0446 25.8844 27.5613 26.0579Z" fill="#02031C"/>
</svg>
