<svg width="41" height="41" viewBox="0 0 41 41" fill="none" xmlns="http://www.w3.org/2000/svg">
<path d="M23.2356 14.6964L22.1356 16.6332L18.3735 10.0077L6.82442 30.3444H14.6439C14.6439 31.414 15.4967 32.2812 16.5488 32.2812H6.82442C6.14394 32.2812 5.51522 31.9118 5.17503 31.3126C4.83485 30.7134 4.83489 29.9751 5.17513 29.3759L16.7242 9.03927C17.0644 8.43998 17.6933 8.0708 18.3739 8.0708C19.0544 8.0708 19.6833 8.43998 20.0235 9.03927L23.2356 14.6964V14.6964Z" fill="#A8B2B3"/>
<path d="M31.5738 29.3776L24.3365 16.6342L23.2364 14.6973L22.1362 16.6342L14.8997 29.3776C14.5595 29.9768 14.5595 30.7151 14.8997 31.3144C15.2399 31.9136 15.8686 32.283 16.5491 32.283H29.922C30.6027 32.283 31.2317 31.914 31.5721 31.3147C31.9125 30.7154 31.9125 29.9769 31.5722 29.3776H31.5738ZM16.5491 30.3461L23.2364 18.5711L29.922 30.3461H16.5491H16.5491Z" fill="#02031C"/>
<path d="M36.7464 31.3122C36.4062 31.9113 35.7775 32.2806 35.0971 32.2806H29.9206C30.9727 32.2806 31.8255 31.4134 31.8255 30.3437H35.0931L25.8212 14.0155L24.3354 16.6326L23.2354 14.6958L24.1719 13.0471C24.5122 12.4478 25.141 12.0786 25.8216 12.0786C26.5022 12.0786 27.131 12.4478 27.4713 13.0471L36.7464 29.3753C37.0867 29.9746 37.0867 30.7129 36.7464 31.3122Z" fill="#657374"/>
</svg>
