<svg width="41" height="41" viewBox="0 0 41 41" fill="none" xmlns="http://www.w3.org/2000/svg">
<path d="M30.6573 9.41206C27.819 6.57078 24.0487 5.00732 20.0378 5.00732C11.7545 5.00732 5.0166 11.7512 5.0166 20.0406C5.0166 28.3299 11.7545 35.0738 20.0378 35.0738C24.0487 35.0738 27.822 33.5103 30.6573 30.6691C33.4956 27.8278 35.056 24.0544 35.056 20.0406C35.056 16.0267 33.4956 12.2503 30.6573 9.41206ZM20.0378 34.0335C12.3288 34.0335 6.0569 27.7556 6.0569 20.0406C6.0569 12.3255 12.3288 6.04762 20.0378 6.04762C27.7469 6.04762 34.0187 12.3255 34.0187 20.0406C34.0187 27.7556 27.7469 34.0335 20.0378 34.0335Z" fill="#02031C"/>
<path d="M24.97 20.3962C24.0078 19.5362 22.7479 18.9619 21.5271 18.4056L21.5181 18.4026C19.3651 17.4194 17.5038 16.5684 17.6361 14.5568C17.6933 13.79 18.2495 13.3269 18.7066 13.0773C19.2208 12.7947 19.9033 12.6263 20.5348 12.6263C20.61 12.6263 20.6851 12.6293 20.7573 12.6323C22.5946 12.7556 24.0439 13.5344 25.4602 15.1521L25.5444 15.2514L25.6436 15.1672L26.1969 14.6861L26.2961 14.5989L26.2089 14.4996C24.6302 12.6895 22.9163 11.7784 20.8205 11.637C20.7303 11.628 20.634 11.625 20.5288 11.625C20.4656 11.625 20.3965 11.625 20.3243 11.628H20.2341C18.8599 11.628 17.3535 12.079 16.2078 12.8368C14.8397 13.7419 14.0729 14.9867 14.0519 16.3429C13.9977 19.6415 16.695 20.751 19.0734 21.7343L19.0794 21.7373L19.1035 21.7463C21.2084 22.6183 23.0245 23.3701 22.9855 25.3847C22.9674 26.7138 21.067 27.4475 19.762 27.4475H19.7079H19.5786V27.4505C17.6331 27.3933 15.8951 26.5544 14.4127 24.9637L14.3225 24.8675L14.2263 24.9547L13.688 25.4539L13.5918 25.5441L13.682 25.6403C15.3659 27.4535 17.4437 28.4277 19.6929 28.4548H19.7951C21.2474 28.4548 22.8261 28.0639 24.0168 27.4054C25.5083 26.5905 26.3773 25.4028 26.4675 24.0617C26.5697 22.5883 26.0796 21.3885 24.97 20.3962ZM17.9879 17.5276C18.8449 18.2613 20.0056 18.7875 21.1272 19.2957L21.1482 19.3047C22.336 19.852 23.4605 20.3692 24.2754 21.0878C25.1775 21.8816 25.5594 22.8018 25.4782 23.9835C25.403 25.1532 24.534 25.935 23.7432 26.4071C23.8966 26.0944 23.9807 25.7546 23.9898 25.3937C24.0078 24.1789 23.5417 23.2077 22.5615 22.4199C21.7045 21.7313 20.5679 21.2652 19.4673 20.8112C17.1791 19.87 15.0171 18.98 15.0562 16.3519C15.0682 15.3416 15.6756 14.3854 16.7671 13.6607C16.8032 13.6366 16.8393 13.6126 16.8784 13.5885C16.7491 13.8712 16.6769 14.1659 16.6589 14.4756C16.5717 15.6934 17.0077 16.6917 17.9879 17.5276Z" fill="#02031C"/>
</svg>
