<svg width="886" height="410" viewBox="0 0 886 410" fill="none" xmlns="http://www.w3.org/2000/svg">
<path d="M224.968 58V56.272H220.024V46.832H217.928V58H224.968ZM230.722 58.192C233.218 58.192 234.754 56.528 234.754 53.872C234.754 51.216 233.218 49.552 230.722 49.552C228.226 49.552 226.69 51.216 226.69 53.872C226.69 56.528 228.226 58.192 230.722 58.192ZM230.722 56.624C229.554 56.624 228.818 55.888 228.818 54.512V53.232C228.818 51.856 229.554 51.12 230.722 51.12C231.89 51.12 232.626 51.856 232.626 53.232V54.512C232.626 55.888 231.89 56.624 230.722 56.624ZM244.732 58.864C244.732 57.488 243.82 56.528 241.532 56.528H239.66C238.972 56.528 238.412 56.48 238.412 55.968C238.412 55.584 238.748 55.36 239.052 55.248C239.42 55.344 239.82 55.376 240.236 55.376C242.332 55.376 243.724 54.304 243.724 52.464C243.724 51.392 243.26 50.592 242.46 50.112V49.84H244.412V48.304H242.924C242.172 48.304 241.74 48.784 241.74 49.424V49.776C241.308 49.632 240.796 49.552 240.236 49.552C238.14 49.552 236.764 50.64 236.764 52.464C236.764 53.664 237.356 54.544 238.332 55.008V55.088C237.452 55.296 236.844 55.648 236.844 56.464C236.844 57.136 237.244 57.504 237.884 57.712V57.84C236.924 58.08 236.364 58.528 236.364 59.44C236.364 60.624 237.292 61.392 240.284 61.392C243.308 61.392 244.732 60.592 244.732 58.864ZM242.812 59.008C242.812 59.664 242.204 60.016 241.004 60.016H239.676C238.54 60.016 238.092 59.584 238.092 59.008C238.092 58.656 238.252 58.384 238.572 58.208H241.42C242.476 58.208 242.812 58.512 242.812 59.008ZM240.236 54.032C239.212 54.032 238.732 53.472 238.732 52.672V52.256C238.732 51.456 239.212 50.896 240.236 50.896C241.276 50.896 241.756 51.456 241.756 52.256V52.672C241.756 53.472 241.276 54.032 240.236 54.032ZM246.677 58H253.973V56.384H251.445V49.744H246.677V51.36H249.397V56.384H246.677V58ZM252.645 46.08L250.917 45.216L249.397 48.208L250.629 48.8L252.645 46.08ZM259.471 58.192C261.807 58.192 263.199 57.152 263.199 55.456C263.199 53.824 261.887 53.296 260.495 53.088L259.183 52.88C258.511 52.784 258.031 52.608 258.031 52.016C258.031 51.376 258.575 51.04 259.599 51.04C260.783 51.04 261.551 51.504 262.015 52.016L263.087 50.832C262.367 50.032 261.247 49.552 259.663 49.552C257.423 49.552 256.031 50.512 256.031 52.224C256.031 53.856 257.343 54.4 258.719 54.608L260.047 54.816C260.719 54.912 261.183 55.072 261.183 55.664C261.183 56.368 260.511 56.704 259.487 56.704C258.319 56.704 257.439 56.272 256.767 55.536L255.567 56.624C256.303 57.584 257.663 58.192 259.471 58.192ZM272.761 58V56.384H269.401V51.36H272.761V49.744H269.401V46.832H267.497V48.832C267.497 49.52 267.241 49.744 266.585 49.744H264.953V51.36H267.353V55.76C267.353 57.072 268.089 58 269.657 58H272.761ZM279.203 48.464C280.163 48.464 280.515 48 280.515 47.424V47.04C280.515 46.464 280.163 46 279.203 46C278.243 46 277.891 46.464 277.891 47.04V47.424C277.891 48 278.243 48.464 279.203 48.464ZM275.459 58H282.755V56.384H280.227V49.744H275.459V51.36H278.179V56.384H275.459V58ZM288.604 58.192C290.38 58.192 291.484 57.376 292.044 56.208L290.508 55.296C290.14 56.032 289.596 56.528 288.62 56.528C287.372 56.528 286.7 55.744 286.7 54.56V53.184C286.7 51.984 287.388 51.216 288.588 51.216C289.516 51.216 290.044 51.696 290.332 52.4L291.916 51.536C291.372 50.352 290.332 49.552 288.588 49.552C286.092 49.552 284.556 51.216 284.556 53.872C284.556 56.528 286.076 58.192 288.604 58.192ZM302.118 58V56.464H301.142V52.576C301.142 50.592 299.83 49.552 297.67 49.552C295.878 49.552 294.726 50.272 294.214 51.184L295.382 52.176C295.83 51.536 296.422 51.088 297.462 51.088C298.598 51.088 299.094 51.632 299.094 52.672V53.216H297.638C295.206 53.216 293.974 54.048 293.974 55.712C293.974 57.264 295.046 58.192 296.694 58.192C297.974 58.192 298.886 57.6 299.19 56.576H299.27C299.366 57.456 299.926 58 300.918 58H302.118ZM297.382 56.784C296.534 56.784 296.006 56.432 296.006 55.776V55.456C296.006 54.768 296.566 54.4 297.686 54.4H299.094V55.504C299.094 56.288 298.358 56.784 297.382 56.784Z" fill="#02031C"/>
<path d="M1 228H870" stroke="#02031C" stroke-width="0.5" stroke-linecap="round" stroke-linejoin="round"/>
<path d="M864 222L870 228L864 234" stroke="#02031C" stroke-width="0.5" stroke-linecap="round" stroke-linejoin="round"/>
<path d="M216 228C216 222.477 220.477 218 226 218C231.523 218 236 222.477 236 228C236 233.523 231.523 238 226 238C220.477 238 216 233.523 216 228Z" fill="#DBDBDB"/>
<path d="M216 228H236" stroke="#F7F7F7" stroke-width="0.5"/>
<path d="M236 228C236 150.68 298.68 88 376 88C453.32 88 516 150.68 516 228C516 305.32 453.32 368 376 368C298.68 368 236 305.32 236 228Z" fill="#17249A"/>
<path d="M236 228H516" stroke="#F7F7F7" stroke-width="0.5"/>
<path d="M516 228C516 216.954 524.954 208 536 208C547.046 208 556 216.954 556 228C556 239.046 547.046 248 536 248C524.954 248 516 239.046 516 228Z" fill="#56CDF2"/>
<path d="M516 228H556" stroke="#F7F7F7" stroke-width="0.5"/>
<path d="M572 228C572 205.909 589.909 188 612 188C634.091 188 652 205.909 652 228C652 250.091 634.091 268 612 268C589.909 268 572 250.091 572 228Z" fill="#17249A"/>
<path d="M572 228H652" stroke="#F7F7F7" stroke-width="0.5"/>
<path d="M652 228C652 216.954 660.954 208 672 208C683.046 208 692 216.954 692 228C692 239.046 683.046 248 672 248C660.954 248 652 239.046 652 228Z" fill="#56CDF2"/>
<path d="M652 228H692" stroke="#F7F7F7" stroke-width="0.5"/>
<path d="M708 228C708 216.954 716.954 208 728 208C739.046 208 748 216.954 748 228C748 239.046 739.046 248 728 248C716.954 248 708 239.046 708 228Z" fill="#17249A"/>
<path d="M708 228H748" stroke="#F7F7F7" stroke-width="0.5"/>
<path d="M748 228C748 216.954 756.954 208 768 208C779.046 208 788 216.954 788 228C788 239.046 779.046 248 768 248C756.954 248 748 239.046 748 228Z" fill="#56CDF2"/>
<path d="M748 228H788" stroke="#F7F7F7" stroke-width="0.5"/>
</svg>
