<svg width="624" height="330" viewBox="0 0 624 330" fill="none" xmlns="http://www.w3.org/2000/svg">
<path d="M223.242 58H225.066V46.832H222.73L221.162 50.944H221.05L219.498 46.832H217.002V58H218.826V52.832L218.73 49.6H218.874L221.034 55.344L223.194 49.6H223.338L223.242 52.832V58ZM234.868 58V56.464H233.892V52.576C233.892 50.592 232.58 49.552 230.42 49.552C228.628 49.552 227.476 50.272 226.964 51.184L228.132 52.176C228.58 51.536 229.172 51.088 230.212 51.088C231.348 51.088 231.844 51.632 231.844 52.672V53.216H230.388C227.956 53.216 226.724 54.048 226.724 55.712C226.724 57.264 227.796 58.192 229.444 58.192C230.724 58.192 231.636 57.6 231.94 56.576H232.02C232.116 57.456 232.676 58 233.668 58H234.868ZM230.132 56.784C229.284 56.784 228.756 56.432 228.756 55.776V55.456C228.756 54.768 229.316 54.4 230.436 54.4H231.844V55.504C231.844 56.288 231.108 56.784 230.132 56.784ZM238.67 58V52.48C238.67 51.6 239.47 51.168 240.302 51.168C241.326 51.168 241.854 51.776 241.854 52.96V58H243.902V52.672C243.902 50.672 242.782 49.552 241.166 49.552C239.822 49.552 239.118 50.304 238.75 51.2H238.67V49.744H236.622V58H238.67ZM251.368 58H253.416V49.744H251.368V55.264C251.368 56.144 250.568 56.576 249.736 56.576C248.712 56.576 248.184 55.968 248.184 54.784V49.744H246.136V55.072C246.136 57.072 247.256 58.192 248.872 58.192C250.216 58.192 250.92 57.44 251.288 56.544H251.368V58ZM255.809 58H263.073V56.384H260.385V51.36H263.441V49.744H260.385V47.776H263.441V46.16H260.657C259.073 46.16 258.337 47.088 258.337 48.4V49.744H255.649V51.36H258.337V56.384H255.809V58ZM273.243 58V56.464H272.267V52.576C272.267 50.592 270.955 49.552 268.795 49.552C267.003 49.552 265.851 50.272 265.339 51.184L266.507 52.176C266.955 51.536 267.547 51.088 268.587 51.088C269.723 51.088 270.219 51.632 270.219 52.672V53.216H268.763C266.331 53.216 265.099 54.048 265.099 55.712C265.099 57.264 266.171 58.192 267.819 58.192C269.099 58.192 270.011 57.6 270.315 56.576H270.395C270.491 57.456 271.051 58 272.043 58H273.243ZM268.507 56.784C267.659 56.784 267.131 56.432 267.131 55.776V55.456C267.131 54.768 267.691 54.4 268.811 54.4H270.219V55.504C270.219 56.288 269.483 56.784 268.507 56.784ZM278.917 58.192C280.693 58.192 281.797 57.376 282.357 56.208L280.821 55.296C280.453 56.032 279.909 56.528 278.933 56.528C277.685 56.528 277.013 55.744 277.013 54.56V53.184C277.013 51.984 277.701 51.216 278.901 51.216C279.829 51.216 280.357 51.696 280.645 52.4L282.229 51.536C281.685 50.352 280.645 49.552 278.901 49.552C276.405 49.552 274.869 51.216 274.869 53.872C274.869 56.528 276.389 58.192 278.917 58.192ZM291.855 58V56.384H288.495V51.36H291.855V49.744H288.495V46.832H286.591V48.832C286.591 49.52 286.335 49.744 285.679 49.744H284.047V51.36H286.447V55.76C286.447 57.072 287.183 58 288.751 58H291.855ZM299.336 58H301.384V49.744H299.336V55.264C299.336 56.144 298.536 56.576 297.704 56.576C296.68 56.576 296.152 55.968 296.152 54.784V49.744H294.104V55.072C294.104 57.072 295.224 58.192 296.84 58.192C298.184 58.192 298.888 57.44 299.256 56.544H299.336V58ZM303.778 58H310.738V56.384H307.874V53.6C307.874 52.544 308.562 51.664 309.858 51.664H311.554V49.744H310.658C309.01 49.744 308.306 50.832 308.002 52H307.874V49.744H303.778V51.36H305.826V56.384H303.778V58ZM321.212 58V56.464H320.236V52.576C320.236 50.592 318.924 49.552 316.764 49.552C314.972 49.552 313.82 50.272 313.308 51.184L314.476 52.176C314.924 51.536 315.516 51.088 316.556 51.088C317.692 51.088 318.188 51.632 318.188 52.672V53.216H316.732C314.3 53.216 313.068 54.048 313.068 55.712C313.068 57.264 314.14 58.192 315.788 58.192C317.068 58.192 317.98 57.6 318.284 56.576H318.364C318.46 57.456 319.02 58 320.012 58H321.212ZM316.476 56.784C315.628 56.784 315.1 56.432 315.1 55.776V55.456C315.1 54.768 315.66 54.4 316.78 54.4H318.188V55.504C318.188 56.288 317.452 56.784 316.476 56.784Z" fill="#02031C"/>
<path d="M1 188H607" stroke="#02031C" stroke-width="0.5" stroke-linecap="round" stroke-linejoin="round"/>
<path d="M601 182L607 188L601 194" stroke="#02031C" stroke-width="0.5" stroke-linecap="round" stroke-linejoin="round"/>
<path d="M216 188C216 182.477 220.477 178 226 178C231.523 178 236 182.477 236 188C236 193.523 231.523 198 226 198C220.477 198 216 193.523 216 188Z" fill="#FFCC00"/>
<path d="M216 188H236" stroke="#FFCC00" stroke-width="0.5"/>
<path d="M252 188C252 132.772 296.772 88 352 88C407.228 88 452 132.772 452 188C452 243.228 407.228 288 352 288C296.772 288 252 243.228 252 188Z" fill="#17249A"/>
<path d="M252 188H452" stroke="#F7F7F7" stroke-width="0.5"/>
<path d="M452 188C452 182.477 456.477 178 462 178C467.523 178 472 182.477 472 188C472 193.523 467.523 198 462 198C456.477 198 452 193.523 452 188Z" fill="#FF0049"/>
<path d="M452 188H472" stroke="#F7F7F7" stroke-width="0.5"/>
<path d="M472 188C472 176.954 480.954 168 492 168C503.046 168 512 176.954 512 188C512 199.046 503.046 208 492 208C480.954 208 472 199.046 472 188Z" fill="#56CDF2"/>
<path d="M472 188H512" stroke="#F7F7F7" stroke-width="0.5"/>
</svg>
