<svg width="571" height="330" viewBox="0 0 571 330" fill="none" xmlns="http://www.w3.org/2000/svg">
<path d="M217.311 58H221.599C223.599 58 224.863 56.736 224.863 54.88C224.863 53.36 224.031 52.544 222.687 52.224V52.144C223.823 51.808 224.495 51.056 224.495 49.776C224.495 47.968 223.295 46.832 221.199 46.832H217.311V58ZM219.359 56.48V53.056H220.959C222.127 53.056 222.719 53.456 222.719 54.496V55.024C222.719 56.08 222.127 56.48 220.959 56.48H219.359ZM219.359 51.6V48.352H220.687C221.807 48.352 222.351 48.72 222.351 49.712V50.24C222.351 51.232 221.807 51.6 220.687 51.6H219.359ZM226.777 58H234.089V56.384H231.449V46.16H226.777V47.776H229.401V56.384H226.777V58ZM240.019 58.192C242.515 58.192 244.051 56.528 244.051 53.872C244.051 51.216 242.515 49.552 240.019 49.552C237.523 49.552 235.987 51.216 235.987 53.872C235.987 56.528 237.523 58.192 240.019 58.192ZM240.019 56.624C238.851 56.624 238.115 55.888 238.115 54.512V53.232C238.115 51.856 238.851 51.12 240.019 51.12C241.187 51.12 241.923 51.856 241.923 53.232V54.512C241.923 55.888 241.187 56.624 240.019 56.624ZM249.933 58.192C251.709 58.192 252.812 57.376 253.373 56.208L251.837 55.296C251.469 56.032 250.925 56.528 249.949 56.528C248.701 56.528 248.029 55.744 248.029 54.56V53.184C248.029 51.984 248.717 51.216 249.917 51.216C250.845 51.216 251.373 51.696 251.661 52.4L253.245 51.536C252.701 50.352 251.661 49.552 249.917 49.552C247.421 49.552 245.885 51.216 245.885 53.872C245.885 56.528 247.405 58.192 249.933 58.192ZM255.638 58H257.686V55.088L258.662 54.16L261.302 58H263.75L260.118 52.992L263.398 49.744H261.014L258.982 51.792L257.782 53.104H257.686V46.16H255.638V58ZM269.12 58.192C270.896 58.192 272 57.376 272.56 56.208L271.024 55.296C270.656 56.032 270.112 56.528 269.136 56.528C267.888 56.528 267.216 55.744 267.216 54.56V53.184C267.216 51.984 267.904 51.216 269.104 51.216C270.032 51.216 270.56 51.696 270.848 52.4L272.432 51.536C271.888 50.352 270.848 49.552 269.104 49.552C266.608 49.552 265.072 51.216 265.072 53.872C265.072 56.528 266.592 58.192 269.12 58.192ZM274.794 58H276.842V52.48C276.842 51.6 277.642 51.168 278.474 51.168C279.498 51.168 280.026 51.776 280.026 52.96V58H282.074V52.672C282.074 50.672 280.954 49.552 279.338 49.552C277.994 49.552 277.29 50.304 276.922 51.2H276.842V46.16H274.794V58ZM292.227 58V56.464H291.252V52.576C291.252 50.592 289.94 49.552 287.78 49.552C285.988 49.552 284.836 50.272 284.324 51.184L285.492 52.176C285.94 51.536 286.532 51.088 287.572 51.088C288.708 51.088 289.204 51.632 289.204 52.672V53.216H287.748C285.316 53.216 284.084 54.048 284.084 55.712C284.084 57.264 285.156 58.192 286.804 58.192C288.084 58.192 288.996 57.6 289.3 56.576H289.38C289.476 57.456 290.036 58 291.028 58H292.227ZM287.492 56.784C286.644 56.784 286.116 56.432 286.116 55.776V55.456C286.116 54.768 286.676 54.4 287.796 54.4H289.204V55.504C289.204 56.288 288.468 56.784 287.492 56.784ZM298.093 48.464C299.053 48.464 299.405 48 299.405 47.424V47.04C299.405 46.464 299.053 46 298.093 46C297.133 46 296.781 46.464 296.781 47.04V47.424C296.781 48 297.133 48.464 298.093 48.464ZM294.349 58H301.645V56.384H299.117V49.744H294.349V51.36H297.069V56.384H294.349V58ZM305.623 58V52.48C305.623 51.6 306.423 51.168 307.255 51.168C308.279 51.168 308.807 51.776 308.807 52.96V58H310.855V52.672C310.855 50.672 309.735 49.552 308.119 49.552C306.775 49.552 306.071 50.304 305.703 51.2H305.623V49.744H303.575V58H305.623Z" fill="#02031C"/>
<path d="M1 188H553" stroke="#02031C" stroke-width="0.5" stroke-linecap="round" stroke-linejoin="round"/>
<path d="M548 182L554 188L548 194" stroke="#02031C" stroke-width="0.5" stroke-linecap="round" stroke-linejoin="round"/>
<path d="M216 188C216 132.772 260.772 88 316 88C371.228 88 416 132.772 416 188C416 243.228 371.228 288 316 288C260.772 288 216 243.228 216 188Z" fill="#17249A"/>
<path d="M216 188H416" stroke="#F7F7F7" stroke-width="0.5"/>
<path d="M416 188C416 182.477 420.477 178 426 178C431.523 178 436 182.477 436 188C436 193.523 431.523 198 426 198C420.477 198 416 193.523 416 188Z" fill="#FF0049"/>
<path d="M416 188H436" stroke="#F7F7F7" stroke-width="0.5"/>
<path d="M436 188C436 176.954 444.954 168 456 168C467.046 168 476 176.954 476 188C476 199.046 467.046 208 456 208C444.954 208 436 199.046 436 188Z" fill="#56CDF2"/>
<path d="M436 188H476" stroke="#F7F7F7" stroke-width="0.5"/>
</svg>
