<svg width="515" height="230" viewBox="0 0 515 230" fill="none" xmlns="http://www.w3.org/2000/svg">
<path d="M217.656 58V46.832H224.712V48.56H219.752V51.472H224.536V53.2H219.752V56.272H224.712V58H217.656ZM231.042 58.192C230.413 58.192 229.847 58.0907 229.346 57.888C228.845 57.6853 228.418 57.3973 228.066 57.024C227.725 56.6507 227.458 56.1973 227.266 55.664C227.085 55.1307 226.994 54.5333 226.994 53.872C226.994 53.2107 227.085 52.6133 227.266 52.08C227.458 51.5467 227.725 51.0933 228.066 50.72C228.418 50.3467 228.839 50.0587 229.33 49.856C229.831 49.6533 230.397 49.552 231.026 49.552C231.901 49.552 232.605 49.7333 233.138 50.096C233.671 50.4587 234.077 50.9387 234.354 51.536L232.77 52.4C232.621 52.048 232.407 51.7653 232.13 51.552C231.863 51.328 231.495 51.216 231.026 51.216C230.418 51.216 229.949 51.392 229.618 51.744C229.298 52.096 229.138 52.576 229.138 53.184V54.56C229.138 55.1573 229.298 55.6373 229.618 56C229.949 56.352 230.429 56.528 231.058 56.528C231.549 56.528 231.938 56.416 232.226 56.192C232.525 55.968 232.765 55.6693 232.946 55.296L234.482 56.208C234.205 56.7947 233.783 57.2747 233.218 57.648C232.663 58.0107 231.938 58.192 231.042 58.192ZM240.316 58.192C239.686 58.192 239.121 58.0907 238.62 57.888C238.129 57.6853 237.708 57.3973 237.356 57.024C237.014 56.6507 236.748 56.1973 236.556 55.664C236.374 55.1307 236.284 54.5333 236.284 53.872C236.284 53.2107 236.374 52.6133 236.556 52.08C236.748 51.5467 237.014 51.0933 237.356 50.72C237.708 50.3467 238.129 50.0587 238.62 49.856C239.121 49.6533 239.686 49.552 240.316 49.552C240.934 49.552 241.494 49.6533 241.996 49.856C242.497 50.0587 242.918 50.3467 243.26 50.72C243.612 51.0933 243.878 51.5467 244.06 52.08C244.252 52.6133 244.348 53.2107 244.348 53.872C244.348 54.5333 244.252 55.1307 244.06 55.664C243.878 56.1973 243.612 56.6507 243.26 57.024C242.918 57.3973 242.497 57.6853 241.996 57.888C241.494 58.0907 240.934 58.192 240.316 58.192ZM240.316 56.624C240.902 56.624 241.366 56.448 241.708 56.096C242.049 55.7333 242.22 55.2053 242.22 54.512V53.232C242.22 52.5387 242.049 52.016 241.708 51.664C241.366 51.3013 240.902 51.12 240.316 51.12C239.729 51.12 239.265 51.3013 238.924 51.664C238.582 52.016 238.412 52.5387 238.412 53.232V54.512C238.412 55.2053 238.582 55.7333 238.924 56.096C239.265 56.448 239.729 56.624 240.316 56.624ZM245.701 58V49.744H247.397V50.88H247.493C247.621 50.5173 247.803 50.208 248.037 49.952C248.283 49.6853 248.624 49.552 249.061 49.552C249.477 49.552 249.808 49.6747 250.053 49.92C250.299 50.1547 250.459 50.4907 250.533 50.928H250.613C250.752 50.5547 250.955 50.2347 251.221 49.968C251.499 49.6907 251.888 49.552 252.389 49.552C252.997 49.552 253.435 49.7707 253.701 50.208C253.968 50.6453 254.101 51.2907 254.101 52.144V58H252.421V52.384C252.421 51.904 252.352 51.568 252.213 51.376C252.085 51.184 251.888 51.088 251.621 51.088C251.376 51.088 251.168 51.168 250.997 51.328C250.837 51.488 250.757 51.7333 250.757 52.064V58H249.061V52.384C249.061 51.904 248.997 51.568 248.869 51.376C248.741 51.184 248.544 51.088 248.277 51.088C248.021 51.088 247.808 51.168 247.637 51.328C247.477 51.488 247.397 51.7333 247.397 52.064V58H245.701ZM255.295 58V49.744H256.991V50.88H257.087C257.215 50.5173 257.396 50.208 257.631 49.952C257.876 49.6853 258.218 49.552 258.655 49.552C259.071 49.552 259.402 49.6747 259.647 49.92C259.892 50.1547 260.052 50.4907 260.127 50.928H260.207C260.346 50.5547 260.548 50.2347 260.815 49.968C261.092 49.6907 261.482 49.552 261.983 49.552C262.591 49.552 263.028 49.7707 263.295 50.208C263.562 50.6453 263.695 51.2907 263.695 52.144V58H262.015V52.384C262.015 51.904 261.946 51.568 261.807 51.376C261.679 51.184 261.482 51.088 261.215 51.088C260.97 51.088 260.762 51.168 260.591 51.328C260.431 51.488 260.351 51.7333 260.351 52.064V58H258.655V52.384C258.655 51.904 258.591 51.568 258.463 51.376C258.335 51.184 258.138 51.088 257.871 51.088C257.615 51.088 257.402 51.168 257.231 51.328C257.071 51.488 256.991 51.7333 256.991 52.064V58H255.295ZM269.289 58.192C268.628 58.192 268.041 58.0907 267.529 57.888C267.017 57.6853 266.585 57.3973 266.233 57.024C265.892 56.6507 265.63 56.2027 265.449 55.68C265.268 55.1467 265.177 54.5493 265.177 53.888C265.177 53.216 265.268 52.6133 265.449 52.08C265.641 51.5467 265.908 51.0933 266.249 50.72C266.59 50.3467 267.001 50.0587 267.481 49.856C267.972 49.6533 268.521 49.552 269.129 49.552C269.726 49.552 270.265 49.6533 270.745 49.856C271.225 50.048 271.63 50.3253 271.961 50.688C272.302 51.0507 272.564 51.488 272.745 52C272.926 52.512 273.017 53.0773 273.017 53.696V54.368H267.225V54.576C267.225 55.1733 267.412 55.6587 267.785 56.032C268.158 56.3947 268.681 56.576 269.353 56.576C269.865 56.576 270.302 56.4747 270.665 56.272C271.038 56.0587 271.348 55.7813 271.593 55.44L272.761 56.608C272.462 57.0453 272.025 57.4187 271.449 57.728C270.884 58.0373 270.164 58.192 269.289 58.192ZM269.145 51.056C268.569 51.056 268.105 51.2373 267.753 51.6C267.401 51.9627 267.225 52.4427 267.225 53.04V53.152H270.969V53.008C270.969 52.4107 270.804 51.936 270.473 51.584C270.153 51.232 269.71 51.056 269.145 51.056ZM275.091 56.384H277.139V51.36H275.091V49.744H279.187V52H279.315C279.389 51.712 279.491 51.4347 279.619 51.168C279.757 50.8907 279.928 50.6507 280.131 50.448C280.344 50.2347 280.6 50.064 280.899 49.936C281.197 49.808 281.555 49.744 281.971 49.744H282.867V51.664H281.171C280.552 51.664 280.067 51.8453 279.715 52.208C279.363 52.5707 279.187 53.0347 279.187 53.6V56.384H282.051V58H275.091V56.384ZM288.604 58.192C287.975 58.192 287.41 58.0907 286.908 57.888C286.407 57.6853 285.98 57.3973 285.628 57.024C285.287 56.6507 285.02 56.1973 284.828 55.664C284.647 55.1307 284.556 54.5333 284.556 53.872C284.556 53.2107 284.647 52.6133 284.828 52.08C285.02 51.5467 285.287 51.0933 285.628 50.72C285.98 50.3467 286.402 50.0587 286.892 49.856C287.394 49.6533 287.959 49.552 288.588 49.552C289.463 49.552 290.167 49.7333 290.7 50.096C291.234 50.4587 291.639 50.9387 291.916 51.536L290.332 52.4C290.183 52.048 289.97 51.7653 289.692 51.552C289.426 51.328 289.058 51.216 288.588 51.216C287.98 51.216 287.511 51.392 287.18 51.744C286.86 52.096 286.7 52.576 286.7 53.184V54.56C286.7 55.1573 286.86 55.6373 287.18 56C287.511 56.352 287.991 56.528 288.62 56.528C289.111 56.528 289.5 56.416 289.788 56.192C290.087 55.968 290.327 55.6693 290.508 55.296L292.044 56.208C291.767 56.7947 291.346 57.2747 290.78 57.648C290.226 58.0107 289.5 58.192 288.604 58.192ZM298.07 58.192C297.409 58.192 296.822 58.0907 296.31 57.888C295.798 57.6853 295.366 57.3973 295.014 57.024C294.673 56.6507 294.411 56.2027 294.23 55.68C294.049 55.1467 293.958 54.5493 293.958 53.888C293.958 53.216 294.049 52.6133 294.23 52.08C294.422 51.5467 294.689 51.0933 295.03 50.72C295.371 50.3467 295.782 50.0587 296.262 49.856C296.753 49.6533 297.302 49.552 297.91 49.552C298.507 49.552 299.046 49.6533 299.526 49.856C300.006 50.048 300.411 50.3253 300.742 50.688C301.083 51.0507 301.345 51.488 301.526 52C301.707 52.512 301.798 53.0773 301.798 53.696V54.368H296.006V54.576C296.006 55.1733 296.193 55.6587 296.566 56.032C296.939 56.3947 297.462 56.576 298.134 56.576C298.646 56.576 299.083 56.4747 299.446 56.272C299.819 56.0587 300.129 55.7813 300.374 55.44L301.542 56.608C301.243 57.0453 300.806 57.4187 300.23 57.728C299.665 58.0373 298.945 58.192 298.07 58.192ZM297.926 51.056C297.35 51.056 296.886 51.2373 296.534 51.6C296.182 51.9627 296.006 52.4427 296.006 53.04V53.152H299.75V53.008C299.75 52.4107 299.585 51.936 299.254 51.584C298.934 51.232 298.491 51.056 297.926 51.056Z" fill="#02031C"/>
<path d="M1 138H498" stroke="#02031C" stroke-width="0.5" stroke-linecap="round" stroke-linejoin="round"/>
<path d="M492 132L498 138L492 144" stroke="#02031C" stroke-width="0.5" stroke-linecap="round" stroke-linejoin="round"/>
<path d="M216 138C216 129.716 222.716 123 231 123C239.284 123 246 129.716 246 138C246 146.284 239.284 153 231 153C222.716 153 216 146.284 216 138Z" fill="#FFCC00"/>
<path d="M216 138H246" stroke="#FFCC00" stroke-width="0.5"/>
<path d="M262 138C262 104.863 288.863 78 322 78C355.137 78 382 104.863 382 138C382 171.137 355.137 198 322 198C288.863 198 262 171.137 262 138Z" fill="#17249A"/>
<path d="M262 138H382" stroke="#F7F7F7" stroke-width="0.5"/>
<path d="M382 138C382 132.477 386.477 128 392 128C397.523 128 402 132.477 402 138C402 143.523 397.523 148 392 148C386.477 148 382 143.523 382 138Z" fill="#FF0049"/>
<path d="M382 138H402" stroke="#F7F7F7" stroke-width="0.5"/>
<path d="M402 138C402 135.239 404.239 133 407 133C409.761 133 412 135.239 412 138C412 140.761 409.761 143 407 143C404.239 143 402 140.761 402 138Z" fill="#56CDF2"/>
<path d="M402 138H412" stroke="#F7F7F7" stroke-width="0.5"/>
</svg>
