<svg width="566" height="290" viewBox="0 0 566 290" fill="none" xmlns="http://www.w3.org/2000/svg">
<path d="M220.688 58.192C223.392 58.192 224.848 56.736 224.848 54.656C224.848 52.992 223.904 51.888 221.984 51.536L220.816 51.328C219.584 51.12 219.12 50.704 219.12 49.856C219.12 48.864 219.744 48.352 220.944 48.352C222.064 48.352 222.896 48.8 223.488 49.504L224.72 48.192C223.952 47.232 222.672 46.64 220.928 46.64C218.496 46.64 217.008 47.824 217.008 49.952C217.008 51.504 217.808 52.752 219.872 53.104L221.056 53.296C222.272 53.488 222.736 53.92 222.736 54.8C222.736 55.872 222.032 56.48 220.752 56.48C219.648 56.48 218.672 56.032 217.84 55.072L216.576 56.384C217.424 57.472 218.784 58.192 220.688 58.192ZM234.649 58V56.464H233.673V52.576C233.673 50.592 232.361 49.552 230.201 49.552C228.409 49.552 227.257 50.272 226.745 51.184L227.913 52.176C228.361 51.536 228.953 51.088 229.993 51.088C231.129 51.088 231.625 51.632 231.625 52.672V53.216H230.169C227.737 53.216 226.505 54.048 226.505 55.712C226.505 57.264 227.577 58.192 229.225 58.192C230.505 58.192 231.417 57.6 231.721 56.576H231.801C231.897 57.456 232.457 58 233.449 58H234.649ZM229.913 56.784C229.065 56.784 228.537 56.432 228.537 55.776V55.456C228.537 54.768 229.097 54.4 230.217 54.4H231.625V55.504C231.625 56.288 230.889 56.784 229.913 56.784ZM236.355 58H243.667V56.384H241.027V46.16H236.355V47.776H238.979V56.384H236.355V58ZM251.149 58H253.197V49.744H251.149V55.264C251.149 56.144 250.349 56.576 249.517 56.576C248.493 56.576 247.965 55.968 247.965 54.784V49.744H245.917V55.072C245.917 57.072 247.037 58.192 248.653 58.192C249.997 58.192 250.701 57.44 251.069 56.544H251.149V58ZM260.839 58H262.887V46.16H260.839V51.2H260.727C260.279 50.208 259.527 49.552 258.263 49.552C256.375 49.552 255.111 50.96 255.111 53.872C255.111 56.784 256.375 58.192 258.263 58.192C259.527 58.192 260.279 57.536 260.727 56.544H260.839V58ZM259.127 56.56C257.943 56.56 257.255 55.776 257.255 54.528V53.216C257.255 51.968 257.943 51.184 259.127 51.184C260.055 51.184 260.839 51.632 260.839 52.576V55.168C260.839 56.112 260.055 56.56 259.127 56.56Z" fill="#02031C"/>
<path d="M1 168.5H549" stroke="#02031C" stroke-width="0.5" stroke-linecap="round" stroke-linejoin="round"/>
<path d="M543 162L549 168L543 174" stroke="#02031C" stroke-width="0.5" stroke-linecap="round" stroke-linejoin="round"/>
<path d="M216 168C216 159.716 222.716 153 231 153C239.284 153 246 159.716 246 168C246 176.284 239.284 183 231 183C222.716 183 216 176.284 216 168Z" fill="#DBDBDB"/>
<path d="M216 168H246" stroke="#F7F7F7" stroke-width="0.5"/>
<path d="M262 168C262 123.817 297.817 88 342 88C386.183 88 422 123.817 422 168C422 212.183 386.183 248 342 248C297.817 248 262 212.183 262 168Z" fill="#17249A"/>
<path d="M262 168H422" stroke="#F7F7F7" stroke-width="0.5"/>
<path d="M422 168C422 162.477 426.477 158 432 158C437.523 158 442 162.477 442 168C442 173.523 437.523 178 432 178C426.477 178 422 173.523 422 168Z" fill="#FF0049"/>
<path d="M422 168H442" stroke="#F7F7F7" stroke-width="0.5"/>
<path d="M442 168C442 156.954 450.954 148 462 148C473.046 148 482 156.954 482 168C482 179.046 473.046 188 462 188C450.954 188 442 179.046 442 168Z" fill="#56CDF2"/>
<path d="M442 168H482" stroke="#F7F7F7" stroke-width="0.5"/>
</svg>
