<svg width="365" height="170" viewBox="0 0 365 170" fill="none" xmlns="http://www.w3.org/2000/svg">
<path d="M219.595 53.664H220.859L222.987 58H225.291L222.907 53.424C224.299 53.12 225.099 51.92 225.099 50.288C225.099 48.16 223.899 46.832 221.739 46.832H217.499V58H219.595V53.664ZM219.595 52.032V48.544H221.307C222.427 48.544 222.891 48.992 222.891 49.984V50.592C222.891 51.584 222.427 52.032 221.307 52.032H219.595ZM230.805 58.192C232.549 58.192 233.685 57.472 234.277 56.608L233.109 55.44C232.613 56.128 231.877 56.576 230.869 56.576C229.525 56.576 228.741 55.76 228.741 54.576V54.368H234.533V53.696C234.533 51.2 233.029 49.552 230.645 49.552C228.229 49.552 226.693 51.216 226.693 53.888C226.693 56.528 228.164 58.192 230.805 58.192ZM230.661 51.056C231.781 51.056 232.485 51.824 232.485 53.008V53.152H228.741V53.04C228.741 51.856 229.509 51.056 230.661 51.056ZM243.87 58V56.384H240.51V51.36H243.87V49.744H240.51V46.832H238.606V48.832C238.606 49.52 238.35 49.744 237.694 49.744H236.062V51.36H238.462V55.76C238.462 57.072 239.198 58 240.766 58H243.87ZM254.04 58V56.464H253.064V52.576C253.064 50.592 251.752 49.552 249.592 49.552C247.8 49.552 246.648 50.272 246.136 51.184L247.304 52.176C247.752 51.536 248.344 51.088 249.384 51.088C250.52 51.088 251.016 51.632 251.016 52.672V53.216H249.56C247.128 53.216 245.896 54.048 245.896 55.712C245.896 57.264 246.968 58.192 248.616 58.192C249.896 58.192 250.808 57.6 251.112 56.576H251.192C251.288 57.456 251.848 58 252.84 58H254.04ZM249.304 56.784C248.456 56.784 247.928 56.432 247.928 55.776V55.456C247.928 54.768 248.488 54.4 249.608 54.4H251.016V55.504C251.016 56.288 250.28 56.784 249.304 56.784ZM259.906 48.464C260.866 48.464 261.218 48 261.218 47.424V47.04C261.218 46.464 260.866 46 259.906 46C258.946 46 258.594 46.464 258.594 47.04V47.424C258.594 48 258.946 48.464 259.906 48.464ZM256.162 58H263.458V56.384H260.93V49.744H256.162V51.36H258.882V56.384H256.162V58ZM265.34 58H272.652V56.384H270.012V46.16H265.34V47.776H267.964V56.384H265.34V58Z" fill="#02031C"/>
<path d="M1 108.5H348" stroke="#02031C" stroke-width="0.5" stroke-linecap="round" stroke-linejoin="round"/>
<path d="M342 102.5L348 108.5L342 114.5" stroke="#02031C" stroke-width="0.5" stroke-linecap="round" stroke-linejoin="round"/>
<path d="M216 108C216 96.9543 224.954 88 236 88C247.046 88 256 96.9543 256 108C256 119.046 247.046 128 236 128C224.954 128 216 119.046 216 108Z" fill="#17249A"/>
<path d="M216 108H256" stroke="#F7F7F7" stroke-width="0.5"/>
</svg>
