<svg width="1077" height="390" viewBox="0 0 1077 390" fill="none" xmlns="http://www.w3.org/2000/svg">
<path d="M224.728 58V56.272H219.768V53.2H224.552V51.472H219.768V48.56H224.728V46.832H217.672V58H224.728ZM228.226 58V52.064C228.226 51.408 228.594 51.088 229.106 51.088C229.634 51.088 229.89 51.424 229.89 52.384V58H231.586V52.064C231.586 51.408 231.954 51.088 232.45 51.088C232.978 51.088 233.25 51.424 233.25 52.384V58H234.93V52.144C234.93 50.448 234.418 49.552 233.218 49.552C232.21 49.552 231.73 50.176 231.442 50.928H231.362C231.218 50.064 230.722 49.552 229.89 49.552C229.01 49.552 228.578 50.144 228.322 50.88H228.226V49.744H226.53V58H228.226ZM236.635 61.2H238.683V56.544H238.795C239.243 57.536 239.995 58.192 241.259 58.192C243.147 58.192 244.411 56.784 244.411 53.872C244.411 50.96 243.147 49.552 241.259 49.552C239.995 49.552 239.243 50.208 238.795 51.2H238.683V49.744H236.635V61.2ZM240.395 56.56C239.467 56.56 238.683 56.112 238.683 55.168V52.576C238.683 51.632 239.467 51.184 240.395 51.184C241.579 51.184 242.267 51.968 242.267 53.216V54.528C242.267 55.776 241.579 56.56 240.395 56.56ZM246.325 58H253.285V56.384H250.421V53.6C250.421 52.544 251.109 51.664 252.405 51.664H254.101V49.744H253.205C251.557 49.744 250.853 50.832 250.549 52H250.421V49.744H246.325V51.36H248.373V56.384H246.325V58ZM259.711 58.192C261.455 58.192 262.591 57.472 263.183 56.608L262.015 55.44C261.519 56.128 260.783 56.576 259.775 56.576C258.431 56.576 257.647 55.76 257.647 54.576V54.368H263.439V53.696C263.439 51.2 261.935 49.552 259.551 49.552C257.135 49.552 255.599 51.216 255.599 53.888C255.599 56.528 257.071 58.192 259.711 58.192ZM259.567 51.056C260.687 51.056 261.391 51.824 261.391 53.008V53.152H257.647V53.04C257.647 51.856 258.415 51.056 259.567 51.056ZM267.561 58V52.48C267.561 51.6 268.361 51.168 269.193 51.168C270.217 51.168 270.745 51.776 270.745 52.96V58H272.793V52.672C272.793 50.672 271.673 49.552 270.057 49.552C268.713 49.552 268.009 50.304 267.641 51.2H267.561V49.744H265.513V58H267.561ZM280.354 58H282.402V46.16H280.354V51.2H280.242C279.794 50.208 279.042 49.552 277.778 49.552C275.89 49.552 274.626 50.96 274.626 53.872C274.626 56.784 275.89 58.192 277.778 58.192C279.042 58.192 279.794 57.536 280.242 56.544H280.354V58ZM278.642 56.56C277.458 56.56 276.77 55.776 276.77 54.528V53.216C276.77 51.968 277.458 51.184 278.642 51.184C279.57 51.184 280.354 51.632 280.354 52.576V55.168C280.354 56.112 279.57 56.56 278.642 56.56ZM288.812 48.464C289.772 48.464 290.124 48 290.124 47.424V47.04C290.124 46.464 289.772 46 288.812 46C287.852 46 287.5 46.464 287.5 47.04V47.424C287.5 48 287.852 48.464 288.812 48.464ZM285.068 58H292.364V56.384H289.836V49.744H285.068V51.36H287.788V56.384H285.068V58ZM295.382 58V52.064C295.382 51.408 295.75 51.088 296.262 51.088C296.79 51.088 297.046 51.424 297.046 52.384V58H298.742V52.064C298.742 51.408 299.11 51.088 299.606 51.088C300.134 51.088 300.406 51.424 300.406 52.384V58H302.086V52.144C302.086 50.448 301.574 49.552 300.374 49.552C299.366 49.552 298.886 50.176 298.598 50.928H298.518C298.374 50.064 297.878 49.552 297.046 49.552C296.166 49.552 295.734 50.144 295.478 50.88H295.382V49.744H293.686V58H295.382ZM308 48.464C308.96 48.464 309.312 48 309.312 47.424V47.04C309.312 46.464 308.96 46 308 46C307.04 46 306.688 46.464 306.688 47.04V47.424C306.688 48 307.04 48.464 308 48.464ZM304.256 58H311.552V56.384H309.024V49.744H304.256V51.36H306.976V56.384H304.256V58ZM317.273 58.192C319.017 58.192 320.153 57.472 320.745 56.608L319.577 55.44C319.081 56.128 318.345 56.576 317.337 56.576C315.993 56.576 315.209 55.76 315.209 54.576V54.368H321.001V53.696C321.001 51.2 319.497 49.552 317.113 49.552C314.697 49.552 313.161 51.216 313.161 53.888C313.161 56.528 314.633 58.192 317.273 58.192ZM317.129 51.056C318.249 51.056 318.953 51.824 318.953 53.008V53.152H315.209V53.04C315.209 51.856 315.977 51.056 317.129 51.056ZM325.123 58V52.48C325.123 51.6 325.923 51.168 326.755 51.168C327.779 51.168 328.307 51.776 328.307 52.96V58H330.355V52.672C330.355 50.672 329.235 49.552 327.619 49.552C326.275 49.552 325.571 50.304 325.203 51.2H325.123V49.744H323.075V58H325.123ZM339.933 58V56.384H336.573V51.36H339.933V49.744H336.573V46.832H334.669V48.832C334.669 49.52 334.413 49.744 333.757 49.744H332.125V51.36H334.525V55.76C334.525 57.072 335.261 58 336.829 58H339.933ZM345.863 58.192C348.359 58.192 349.895 56.528 349.895 53.872C349.895 51.216 348.359 49.552 345.863 49.552C343.367 49.552 341.831 51.216 341.831 53.872C341.831 56.528 343.367 58.192 345.863 58.192ZM345.863 56.624C344.695 56.624 343.959 55.888 343.959 54.512V53.232C343.959 51.856 344.695 51.12 345.863 51.12C347.031 51.12 347.767 51.856 347.767 53.232V54.512C347.767 55.888 347.031 56.624 345.863 56.624Z" fill="#02031C"/>
<path d="M1 218H1061" stroke="#02031C" stroke-width="0.5" stroke-linecap="round" stroke-linejoin="round"/>
<path d="M1055 212L1061 218L1055 224" stroke="#02031C" stroke-width="0.5" stroke-linecap="round" stroke-linejoin="round"/>
<path d="M216 218C216 215.239 218.239 213 221 213C223.761 213 226 215.239 226 218C226 220.761 223.761 223 221 223C218.239 223 216 220.761 216 218Z" fill="#DBDBDB"/>
<path d="M216 218H226" stroke="#F7F7F7" stroke-width="0.5"/>
<path d="M226 218C226 146.203 284.203 88 356 88C427.797 88 486 146.203 486 218C486 289.797 427.797 348 356 348C284.203 348 226 289.797 226 218Z" fill="#17249A"/>
<path d="M226 218H486" stroke="#F7F7F7" stroke-width="0.5"/>
<path d="M486 218C486 206.954 494.954 198 506 198C517.046 198 526 206.954 526 218C526 229.046 517.046 238 506 238C494.954 238 486 229.046 486 218Z" fill="#56CDF2"/>
<path d="M486 218H526" stroke="#F7F7F7" stroke-width="0.5"/>
<path d="M542 218C542 215.239 544.239 213 547 213C549.761 213 552 215.239 552 218C552 220.761 549.761 223 547 223C544.239 223 542 220.761 542 218Z" fill="#FF0049"/>
<path d="M542 218H552" stroke="#F7F7F7" stroke-width="0.5"/>
<path d="M568 218C568 215.239 570.239 213 573 213C575.761 213 578 215.239 578 218C578 220.761 575.761 223 573 223C570.239 223 568 220.761 568 218Z" fill="#FF0049"/>
<path d="M568 218H578" stroke="#F7F7F7" stroke-width="0.5"/>
<path d="M594 218C594 184.863 620.863 158 654 158C687.137 158 714 184.863 714 218C714 251.137 687.137 278 654 278C620.863 278 594 251.137 594 218Z" fill="#17249A"/>
<path d="M594 218H714" stroke="#F7F7F7" stroke-width="0.5"/>
<path d="M714 218C714 212.477 718.477 208 724 208C729.523 208 734 212.477 734 218C734 223.523 729.523 228 724 228C718.477 228 714 223.523 714 218Z" fill="#FF0049"/>
<path d="M714 218H734" stroke="#F7F7F7" stroke-width="0.5"/>
<path d="M734 218C734 206.954 742.954 198 754 198C765.046 198 774 206.954 774 218C774 229.046 765.046 238 754 238C742.954 238 734 229.046 734 218Z" fill="#56CDF2"/>
<path d="M734 218H774" stroke="#F7F7F7" stroke-width="0.5"/>
<path d="M790 218C790 215.239 792.239 213 795 213C797.761 213 800 215.239 800 218C800 220.761 797.761 223 795 223C792.239 223 790 220.761 790 218Z" fill="#FF0049"/>
<path d="M790 218H800" stroke="#F7F7F7" stroke-width="0.5"/>
<path d="M816 218C816 215.239 818.239 213 821 213C823.761 213 826 215.239 826 218C826 220.761 823.761 223 821 223C818.239 223 816 220.761 816 218Z" fill="#56CDF2"/>
<path d="M816 218H826" stroke="#F7F7F7" stroke-width="0.5"/>
<path d="M842 218C842 195.909 859.909 178 882 178C904.091 178 922 195.909 922 218C922 240.091 904.091 258 882 258C859.909 258 842 240.091 842 218Z" fill="#17249A"/>
<path d="M842 218H922" stroke="#F7F7F7" stroke-width="0.5"/>
<path d="M922 218C922 212.477 926.477 208 932 208C937.523 208 942 212.477 942 218C942 223.523 937.523 228 932 228C926.477 228 922 223.523 922 218Z" fill="#FF0049"/>
<path d="M922 218H942" stroke="#F7F7F7" stroke-width="0.5"/>
<path d="M942 218C942 206.954 950.954 198 962 198C973.046 198 982 206.954 982 218C982 229.046 973.046 238 962 238C950.954 238 942 229.046 942 218Z" fill="#56CDF2"/>
<path d="M942 218H982" stroke="#F7F7F7" stroke-width="0.5"/>
</svg>
