<svg width="64" height="65" viewBox="0 0 64 65" fill="none" xmlns="http://www.w3.org/2000/svg">
<rect y="0.5" width="64" height="64" rx="32" fill="#02031C"/>
<path d="M44.6992 44.4082L44.5332 44.5244C42.2422 44.458 40.5378 44.4248 39.4199 44.4248C37.0293 44.4248 35.3249 44.458 34.3066 44.5244L34.1572 44.375L34.1406 43.2461L34.3066 43.0801C35.4355 43.0137 36.083 42.9583 36.249 42.9141C36.57 42.8255 36.7581 42.6208 36.8135 42.2998C36.9574 41.5029 37.0293 39.7874 37.0293 37.1533V28.2217C37.0293 25.986 36.9795 24.1764 36.8799 22.793H26.8027C26.7031 24.1764 26.6533 25.986 26.6533 28.2217V37.1533C26.6533 39.7874 26.7253 41.5029 26.8691 42.2998C26.9245 42.6208 27.1126 42.8255 27.4336 42.9141C27.5996 42.9583 28.2415 43.0137 29.3594 43.0801L29.542 43.2461V44.375L29.3926 44.5244C27.0573 44.458 25.3529 44.4248 24.2793 44.4248C22.5085 44.4248 20.7985 44.458 19.1494 44.5244L19 44.375V43.2461L19.166 43.0801C20.2949 43.0137 20.9424 42.9583 21.1084 42.9141C21.4294 42.8255 21.6175 42.6208 21.6729 42.2998C21.8167 41.5029 21.8887 39.7874 21.8887 37.1533V28.3711C21.8887 25.737 21.8167 24.0215 21.6729 23.2246C21.6175 22.9036 21.4294 22.6989 21.1084 22.6104C20.9424 22.5661 20.2949 22.5107 19.166 22.4443L19 22.2783V21.1494L19.166 21L28.1973 21.0996H37.5273C38.8444 21.0996 41.1797 21.0664 44.5332 21L44.6992 21.1494V22.2783L44.5166 22.4443C43.3877 22.5107 42.7402 22.5661 42.5742 22.6104C42.2533 22.6989 42.0651 22.9036 42.0098 23.2246C41.8659 24.0215 41.7939 25.737 41.7939 28.3711V37.1533C41.7939 39.7874 41.8659 41.5029 42.0098 42.2998C42.0651 42.6208 42.2533 42.8255 42.5742 42.9141C42.7292 42.9583 43.3822 43.0137 44.5332 43.0801L44.6992 43.2461V44.4082Z" fill="white"/>
</svg>
