<svg width="64" height="65" viewBox="0 0 64 65" fill="none" xmlns="http://www.w3.org/2000/svg">
<rect y="0.163086" width="64" height="64" rx="32" fill="#F7F7F7"/>
<path d="M31.2139 32.3232L22 17.5479V17H41.4902L41.9551 22.4453H40.6934C40.5827 21.5599 40.3337 20.8682 39.9463 20.3701C39.57 19.8721 39.1328 19.5234 38.6348 19.3242C38.1478 19.1139 37.3398 19.0088 36.2109 19.0088H28.0264L34.9492 30.1152L26.25 43.3799H36.6426C37.7715 43.3799 38.5794 43.3024 39.0664 43.1475C39.5645 43.0036 40.0072 42.6771 40.3945 42.168C40.7819 41.6589 41.0254 40.9561 41.125 40.0596H42.4033L41.9551 46.8828H22V46.501L31.2139 32.3232Z" fill="#02031C"/>
</svg>
