<svg width="1440" height="422" viewBox="0 0 1440 422" fill="none" xmlns="http://www.w3.org/2000/svg">
<path d="M0 166H1224" stroke="#02031C" stroke-width="0.5" stroke-linecap="round" stroke-linejoin="round"/>
<path d="M1211 153L1224 166L1211 179" stroke="#02031C" stroke-width="0.5" stroke-linecap="round" stroke-linejoin="round"/>
<rect x="520" y="141" width="50" height="50" rx="25" fill="#FFCC00"/>
<rect x="570" y="16" width="300" height="300" rx="150" fill="#17249A"/>
<circle cx="600" cy="166" r="29" stroke="#56CDF2" stroke-width="2"/>
<circle cx="660" cy="166" r="29" stroke="#56CDF2" stroke-width="2"/>
<circle cx="720" cy="166" r="29" stroke="#56CDF2" stroke-width="2"/>
<circle cx="780" cy="166" r="29" stroke="#56CDF2" stroke-width="2"/>
<circle cx="840" cy="166" r="29" stroke="#56CDF2" stroke-width="2"/>
<rect x="870" y="116" width="100" height="100" rx="50" fill="#FF0049"/>
<circle cx="882.5" cy="166" r="11.5" stroke="white" stroke-width="2"/>
<circle cx="907.5" cy="166" r="11.5" stroke="white" stroke-width="2"/>
<circle cx="932.5" cy="166" r="11.5" stroke="white" stroke-width="2"/>
<circle cx="957.5" cy="166" r="11.5" stroke="white" stroke-width="2"/>
<rect x="970" y="141" width="50" height="50" rx="25" fill="#56CDF2"/>
<path d="M236.604 136.25V145H235.428V136.25H232.166V135.228H239.866V136.25H236.604ZM244.859 136.18C244.532 136.18 244.304 136.115 244.173 135.984C244.042 135.844 243.977 135.671 243.977 135.466V135.242C243.977 135.037 244.042 134.869 244.173 134.738C244.304 134.598 244.532 134.528 244.859 134.528C245.186 134.528 245.414 134.598 245.545 134.738C245.676 134.869 245.741 135.037 245.741 135.242V135.466C245.741 135.671 245.676 135.844 245.545 135.984C245.414 136.115 245.186 136.18 244.859 136.18ZM241.695 144.048H244.299V138.728H241.695V137.776H245.419V144.048H247.855V145H241.695V144.048ZM252.931 145.168C252.409 145.168 251.937 145.079 251.517 144.902C251.107 144.725 250.752 144.473 250.453 144.146C250.164 143.81 249.94 143.413 249.781 142.956C249.623 142.489 249.543 141.971 249.543 141.402C249.543 140.823 249.623 140.301 249.781 139.834C249.949 139.367 250.178 138.971 250.467 138.644C250.757 138.308 251.102 138.051 251.503 137.874C251.914 137.697 252.367 137.608 252.861 137.608C253.347 137.608 253.785 137.697 254.177 137.874C254.579 138.051 254.919 138.299 255.199 138.616C255.479 138.924 255.694 139.293 255.843 139.722C255.993 140.151 256.067 140.623 256.067 141.136V141.668H250.719V142.004C250.719 142.321 250.771 142.615 250.873 142.886C250.976 143.157 251.121 143.39 251.307 143.586C251.503 143.782 251.737 143.936 252.007 144.048C252.287 144.151 252.595 144.202 252.931 144.202C253.417 144.202 253.837 144.09 254.191 143.866C254.546 143.642 254.817 143.334 255.003 142.942L255.829 143.502C255.615 143.987 255.255 144.389 254.751 144.706C254.257 145.014 253.65 145.168 252.931 145.168ZM252.861 138.532C252.553 138.532 252.269 138.588 252.007 138.7C251.746 138.812 251.517 138.966 251.321 139.162C251.135 139.358 250.985 139.591 250.873 139.862C250.771 140.123 250.719 140.413 250.719 140.73V140.828H254.863V140.674C254.863 140.357 254.812 140.067 254.709 139.806C254.616 139.545 254.481 139.321 254.303 139.134C254.135 138.938 253.925 138.789 253.673 138.686C253.431 138.583 253.16 138.532 252.861 138.532ZM257.756 145V137.776H258.792V138.616H258.848C258.96 138.336 259.119 138.098 259.324 137.902C259.529 137.706 259.833 137.608 260.234 137.608C260.654 137.608 260.967 137.715 261.172 137.93C261.377 138.135 261.503 138.406 261.55 138.742H261.592C261.723 138.415 261.909 138.145 262.152 137.93C262.395 137.715 262.731 137.608 263.16 137.608C263.748 137.608 264.14 137.813 264.336 138.224C264.541 138.635 264.644 139.223 264.644 139.988V145H263.608V140.17C263.608 139.554 263.543 139.129 263.412 138.896C263.291 138.653 263.062 138.532 262.726 138.532C262.427 138.532 262.185 138.63 261.998 138.826C261.811 139.013 261.718 139.302 261.718 139.694V145H260.682V140.17C260.682 139.554 260.617 139.129 260.486 138.896C260.365 138.653 260.141 138.532 259.814 138.532C259.515 138.532 259.268 138.63 259.072 138.826C258.885 139.013 258.792 139.302 258.792 139.694V145H257.756ZM266.725 137.776H267.845V138.952H267.901C268.367 138.056 269.109 137.608 270.127 137.608C271.013 137.608 271.704 137.939 272.199 138.602C272.703 139.265 272.955 140.193 272.955 141.388C272.955 142.583 272.703 143.511 272.199 144.174C271.704 144.837 271.013 145.168 270.127 145.168C269.109 145.168 268.367 144.72 267.901 143.824H267.845V147.8H266.725V137.776ZM269.693 144.174C270.346 144.174 270.85 143.978 271.205 143.586C271.569 143.185 271.751 142.657 271.751 142.004V140.772C271.751 140.119 271.569 139.596 271.205 139.204C270.85 138.803 270.346 138.602 269.693 138.602C269.441 138.602 269.203 138.635 268.979 138.7C268.755 138.765 268.559 138.863 268.391 138.994C268.223 139.115 268.087 139.269 267.985 139.456C267.891 139.633 267.845 139.843 267.845 140.086V142.69C267.845 142.933 267.891 143.147 267.985 143.334C268.087 143.511 268.223 143.665 268.391 143.796C268.559 143.917 268.755 144.011 268.979 144.076C269.203 144.141 269.441 144.174 269.693 144.174ZM277.989 145.168C277.485 145.168 277.028 145.079 276.617 144.902C276.216 144.725 275.87 144.473 275.581 144.146C275.301 143.81 275.086 143.413 274.937 142.956C274.788 142.489 274.713 141.967 274.713 141.388C274.713 140.819 274.788 140.301 274.937 139.834C275.086 139.367 275.301 138.971 275.581 138.644C275.87 138.308 276.216 138.051 276.617 137.874C277.028 137.697 277.485 137.608 277.989 137.608C278.493 137.608 278.946 137.697 279.347 137.874C279.758 138.051 280.103 138.308 280.383 138.644C280.672 138.971 280.892 139.367 281.041 139.834C281.19 140.301 281.265 140.819 281.265 141.388C281.265 141.967 281.19 142.489 281.041 142.956C280.892 143.413 280.672 143.81 280.383 144.146C280.103 144.473 279.758 144.725 279.347 144.902C278.946 145.079 278.493 145.168 277.989 145.168ZM277.989 144.202C278.614 144.202 279.118 144.015 279.501 143.642C279.884 143.269 280.075 142.69 280.075 141.906V140.87C280.075 140.086 279.884 139.507 279.501 139.134C279.118 138.761 278.614 138.574 277.989 138.574C277.364 138.574 276.86 138.761 276.477 139.134C276.094 139.507 275.903 140.086 275.903 140.87V141.906C275.903 142.69 276.094 143.269 276.477 143.642C276.86 144.015 277.364 144.202 277.989 144.202Z" fill="#657374"/>
<path d="M477.721 402C482.153 402 484.838 399.259 484.838 394.713C484.838 390.182 482.153 387.455 477.764 387.455H472.565V402H477.721ZM475.64 399.365V390.089H477.6C480.328 390.089 481.77 391.482 481.77 394.713C481.77 397.959 480.328 399.365 477.593 399.365H475.64ZM487.059 402H490.085V391.091H487.059V402ZM488.579 389.685C489.481 389.685 490.219 388.996 490.219 388.151C490.219 387.312 489.481 386.624 488.579 386.624C487.684 386.624 486.945 387.312 486.945 388.151C486.945 388.996 487.684 389.685 488.579 389.685ZM501.585 394.202C501.315 392.192 499.696 390.949 496.94 390.949C494.149 390.949 492.309 392.241 492.316 394.344C492.309 395.977 493.339 397.036 495.47 397.462L497.359 397.838C498.311 398.03 498.744 398.378 498.758 398.925C498.744 399.571 498.041 400.033 496.983 400.033C495.903 400.033 495.186 399.571 495.001 398.683L492.025 398.839C492.309 400.928 494.085 402.213 496.975 402.213C499.802 402.213 501.826 400.771 501.833 398.619C501.826 397.043 500.797 396.098 498.68 395.665L496.706 395.267C495.69 395.047 495.314 394.699 495.321 394.173C495.314 393.52 496.052 393.094 496.99 393.094C498.041 393.094 498.666 393.669 498.815 394.372L501.585 394.202ZM508.668 402.213C511.572 402.213 513.398 400.509 513.54 398.001H510.685C510.507 399.166 509.74 399.82 508.703 399.82C507.29 399.82 506.374 398.634 506.374 396.545C506.374 394.486 507.297 393.307 508.703 393.307C509.811 393.307 510.521 394.038 510.685 395.125H513.54C513.412 392.604 511.501 390.949 508.653 390.949C505.344 390.949 503.298 393.243 503.298 396.588C503.298 399.905 505.308 402.213 508.668 402.213ZM520.406 402.213C523.716 402.213 525.775 399.947 525.775 396.588C525.775 393.207 523.716 390.949 520.406 390.949C517.096 390.949 515.037 393.207 515.037 396.588C515.037 399.947 517.096 402.213 520.406 402.213ZM520.42 399.869C518.893 399.869 518.112 398.47 518.112 396.567C518.112 394.663 518.893 393.257 520.42 393.257C521.919 393.257 522.7 394.663 522.7 396.567C522.7 398.47 521.919 399.869 520.42 399.869ZM537.542 391.091H534.339L532.08 398.896H531.967L529.701 391.091H526.505L530.319 402H533.728L537.542 391.091ZM543.691 402.213C546.39 402.213 548.208 400.899 548.634 398.875L545.836 398.69C545.53 399.521 544.749 399.955 543.74 399.955C542.228 399.955 541.269 398.953 541.269 397.327V397.32H548.698V396.489C548.698 392.781 546.453 390.949 543.57 390.949C540.36 390.949 538.279 393.229 538.279 396.595C538.279 400.054 540.331 402.213 543.691 402.213ZM541.269 395.445C541.333 394.202 542.277 393.207 543.62 393.207C544.934 393.207 545.843 394.145 545.85 395.445H541.269ZM550.672 402H553.698V395.828C553.698 394.486 554.678 393.562 556.013 393.562C556.432 393.562 557.007 393.634 557.292 393.726V391.041C557.022 390.977 556.645 390.935 556.34 390.935C555.118 390.935 554.117 391.645 553.719 392.994H553.605V391.091H550.672V402ZM561.056 406.091C563.307 406.091 564.5 404.94 565.118 403.179L569.358 391.105L566.155 391.091L563.875 399.102H563.762L561.503 391.091H558.321L562.235 402.312L562.057 402.774C561.659 403.797 560.9 403.847 559.834 403.52L559.152 405.778C559.586 405.963 560.289 406.091 561.056 406.091Z" fill="#02031C"/>
<path d="M658.771 389L659.851 385.683H665.099L666.179 389H669.474L664.46 374.455H660.497L655.476 389H658.771ZM660.632 383.283L662.422 377.778H662.536L664.325 383.283H660.632ZM671.168 393.091H674.194V387.253H674.286C674.705 388.162 675.621 389.178 677.383 389.178C679.869 389.178 681.808 387.21 681.808 383.56C681.808 379.81 679.783 377.949 677.39 377.949C675.565 377.949 674.691 379.036 674.286 379.923H674.151V378.091H671.168V393.091ZM674.13 383.545C674.13 381.599 674.954 380.357 676.424 380.357C677.923 380.357 678.718 381.656 678.718 383.545C678.718 385.449 677.908 386.77 676.424 386.77C674.968 386.77 674.13 385.491 674.13 383.545ZM683.825 393.091H686.85V387.253H686.942C687.362 388.162 688.278 389.178 690.039 389.178C692.525 389.178 694.464 387.21 694.464 383.56C694.464 379.81 692.44 377.949 690.046 377.949C688.221 377.949 687.347 379.036 686.942 379.923H686.808V378.091H683.825V393.091ZM686.786 383.545C686.786 381.599 687.61 380.357 689.08 380.357C690.579 380.357 691.374 381.656 691.374 383.545C691.374 385.449 690.565 386.77 689.08 386.77C687.624 386.77 686.786 385.491 686.786 383.545ZM699.506 374.455H696.481V389H699.506V374.455ZM701.93 389H704.956V378.091H701.93V389ZM703.45 376.685C704.352 376.685 705.091 375.996 705.091 375.151C705.091 374.312 704.352 373.624 703.45 373.624C702.555 373.624 701.816 374.312 701.816 375.151C701.816 375.996 702.555 376.685 703.45 376.685ZM712.308 389.213C715.213 389.213 717.038 387.509 717.18 385.001H714.325C714.148 386.166 713.381 386.82 712.344 386.82C710.93 386.82 710.014 385.634 710.014 383.545C710.014 381.486 710.938 380.307 712.344 380.307C713.452 380.307 714.162 381.038 714.325 382.125H717.18C717.053 379.604 715.142 377.949 712.294 377.949C708.984 377.949 706.939 380.243 706.939 383.588C706.939 386.905 708.949 389.213 712.308 389.213ZM722.228 389.206C723.841 389.206 724.885 388.503 725.417 387.487H725.502V389H728.372V381.642C728.372 379.043 726.17 377.949 723.741 377.949C721.127 377.949 719.409 379.199 718.99 381.188L721.788 381.415C721.994 380.69 722.64 380.158 723.727 380.158C724.757 380.158 725.346 380.676 725.346 381.571V381.614C725.346 382.317 724.6 382.409 722.704 382.594C720.545 382.793 718.606 383.517 718.606 385.953C718.606 388.112 720.147 389.206 722.228 389.206ZM723.095 387.118C722.164 387.118 721.497 386.685 721.497 385.854C721.497 385.001 722.2 384.582 723.265 384.433C723.926 384.341 725.005 384.185 725.368 383.943V385.101C725.368 386.244 724.423 387.118 723.095 387.118ZM736.522 378.091H734.469V375.477H731.444V378.091H729.952V380.364H731.444V386.045C731.429 388.183 732.885 389.241 735.08 389.149C735.861 389.121 736.415 388.964 736.721 388.865L736.245 386.614C736.096 386.642 735.776 386.713 735.492 386.713C734.888 386.713 734.469 386.486 734.469 385.648V380.364H736.522V378.091ZM738.493 389H741.518V378.091H738.493V389ZM740.012 376.685C740.914 376.685 741.653 375.996 741.653 375.151C741.653 374.312 740.914 373.624 740.012 373.624C739.118 373.624 738.379 374.312 738.379 375.151C738.379 375.996 739.118 376.685 740.012 376.685ZM748.871 389.213C752.18 389.213 754.24 386.947 754.24 383.588C754.24 380.207 752.18 377.949 748.871 377.949C745.561 377.949 743.501 380.207 743.501 383.588C743.501 386.947 745.561 389.213 748.871 389.213ZM748.885 386.869C747.358 386.869 746.577 385.47 746.577 383.567C746.577 381.663 747.358 380.257 748.885 380.257C750.384 380.257 751.165 381.663 751.165 383.567C751.165 385.47 750.384 386.869 748.885 386.869ZM759.233 382.693C759.24 381.287 760.078 380.463 761.3 380.463C762.514 380.463 763.246 381.259 763.239 382.594V389H766.264V382.054C766.264 379.511 764.773 377.949 762.5 377.949C760.881 377.949 759.709 378.744 759.219 380.016H759.091V378.091H756.207V389H759.233V382.693ZM661.42 415C665.852 415 668.537 412.259 668.537 407.713C668.537 403.182 665.852 400.455 661.463 400.455H656.264V415H661.42ZM659.339 412.365V403.089H661.3C664.027 403.089 665.469 404.482 665.469 407.713C665.469 410.959 664.027 412.365 661.293 412.365H659.339ZM675.73 415.213C678.429 415.213 680.247 413.899 680.673 411.875L677.875 411.69C677.569 412.521 676.788 412.955 675.779 412.955C674.267 412.955 673.308 411.953 673.308 410.327V410.32H680.737V409.489C680.737 405.781 678.493 403.949 675.609 403.949C672.399 403.949 670.318 406.229 670.318 409.595C670.318 413.054 672.37 415.213 675.73 415.213ZM673.308 408.445C673.372 407.202 674.316 406.207 675.659 406.207C676.973 406.207 677.882 407.145 677.889 408.445H673.308ZM692.569 404.091H689.366L687.108 411.896H686.994L684.728 404.091H681.532L685.346 415H688.755L692.569 404.091ZM698.718 415.213C701.417 415.213 703.235 413.899 703.661 411.875L700.863 411.69C700.558 412.521 699.776 412.955 698.768 412.955C697.255 412.955 696.296 411.953 696.296 410.327V410.32H703.725V409.489C703.725 405.781 701.481 403.949 698.597 403.949C695.387 403.949 693.306 406.229 693.306 409.595C693.306 413.054 695.359 415.213 698.718 415.213ZM696.296 408.445C696.36 407.202 697.305 406.207 698.647 406.207C699.961 406.207 700.87 407.145 700.877 408.445H696.296ZM708.725 400.455H705.7V415H708.725V400.455ZM716.078 415.213C719.387 415.213 721.447 412.947 721.447 409.588C721.447 406.207 719.387 403.949 716.078 403.949C712.768 403.949 710.708 406.207 710.708 409.588C710.708 412.947 712.768 415.213 716.078 415.213ZM716.092 412.869C714.565 412.869 713.784 411.47 713.784 409.567C713.784 407.663 714.565 406.257 716.092 406.257C717.591 406.257 718.372 407.663 718.372 409.567C718.372 411.47 717.591 412.869 716.092 412.869ZM723.414 419.091H726.44V413.253H726.532C726.951 414.162 727.868 415.178 729.629 415.178C732.115 415.178 734.054 413.21 734.054 409.56C734.054 405.81 732.029 403.949 729.636 403.949C727.811 403.949 726.937 405.036 726.532 405.923H726.397V404.091H723.414V419.091ZM726.376 409.545C726.376 407.599 727.2 406.357 728.67 406.357C730.169 406.357 730.964 407.656 730.964 409.545C730.964 411.449 730.154 412.77 728.67 412.77C727.214 412.77 726.376 411.491 726.376 409.545ZM736.071 415H739.096V408.452C739.096 407.244 739.863 406.442 740.872 406.442C741.866 406.442 742.534 407.124 742.534 408.196V415H745.467V408.338C745.467 407.209 746.113 406.442 747.214 406.442C748.18 406.442 748.904 407.045 748.904 408.26V415H751.923V407.663C751.923 405.298 750.517 403.949 748.485 403.949C746.887 403.949 745.645 404.766 745.197 406.016H745.083C744.735 404.751 743.62 403.949 742.122 403.949C740.652 403.949 739.537 404.73 739.082 406.016H738.954V404.091H736.071V415ZM759.284 415.213C761.983 415.213 763.801 413.899 764.228 411.875L761.429 411.69C761.124 412.521 760.343 412.955 759.334 412.955C757.821 412.955 756.863 411.953 756.863 410.327V410.32H764.292V409.489C764.292 405.781 762.047 403.949 759.164 403.949C755.953 403.949 753.873 406.229 753.873 409.595C753.873 413.054 755.925 415.213 759.284 415.213ZM756.863 408.445C756.926 407.202 757.871 406.207 759.213 406.207C760.527 406.207 761.436 407.145 761.444 408.445H756.863ZM769.292 408.693C769.299 407.287 770.137 406.463 771.358 406.463C772.573 406.463 773.304 407.259 773.297 408.594V415H776.323V408.054C776.323 405.511 774.831 403.949 772.559 403.949C770.939 403.949 769.767 404.744 769.277 406.016H769.15V404.091H766.266V415H769.292V408.693ZM784.51 404.091H782.457V401.477H779.432V404.091H777.94V406.364H779.432V412.045C779.418 414.183 780.874 415.241 783.068 415.149C783.849 415.121 784.403 414.964 784.709 414.865L784.233 412.614C784.084 412.642 783.764 412.713 783.48 412.713C782.876 412.713 782.457 412.486 782.457 411.648V406.364H784.51V404.091Z" fill="#02031C"/>
<path d="M873.771 389L874.851 385.683H880.099L881.179 389H884.474L879.46 374.455H875.497L870.476 389H873.771ZM875.632 383.283L877.422 377.778H877.536L879.325 383.283H875.632ZM886.168 393.091H889.194V387.253H889.286C889.705 388.162 890.621 389.178 892.383 389.178C894.869 389.178 896.808 387.21 896.808 383.56C896.808 379.81 894.783 377.949 892.39 377.949C890.565 377.949 889.691 379.036 889.286 379.923H889.151V378.091H886.168V393.091ZM889.13 383.545C889.13 381.599 889.954 380.357 891.424 380.357C892.923 380.357 893.718 381.656 893.718 383.545C893.718 385.449 892.908 386.77 891.424 386.77C889.968 386.77 889.13 385.491 889.13 383.545ZM898.825 393.091H901.85V387.253H901.942C902.362 388.162 903.278 389.178 905.039 389.178C907.525 389.178 909.464 387.21 909.464 383.56C909.464 379.81 907.44 377.949 905.046 377.949C903.221 377.949 902.347 379.036 901.942 379.923H901.808V378.091H898.825V393.091ZM901.786 383.545C901.786 381.599 902.61 380.357 904.08 380.357C905.579 380.357 906.374 381.656 906.374 383.545C906.374 385.449 905.565 386.77 904.08 386.77C902.624 386.77 901.786 385.491 901.786 383.545ZM914.506 374.455H911.481V389H914.506V374.455ZM916.93 389H919.956V378.091H916.93V389ZM918.45 376.685C919.352 376.685 920.091 375.996 920.091 375.151C920.091 374.312 919.352 373.624 918.45 373.624C917.555 373.624 916.816 374.312 916.816 375.151C916.816 375.996 917.555 376.685 918.45 376.685ZM927.308 389.213C930.213 389.213 932.038 387.509 932.18 385.001H929.325C929.148 386.166 928.381 386.82 927.344 386.82C925.93 386.82 925.014 385.634 925.014 383.545C925.014 381.486 925.938 380.307 927.344 380.307C928.452 380.307 929.162 381.038 929.325 382.125H932.18C932.053 379.604 930.142 377.949 927.294 377.949C923.984 377.949 921.939 380.243 921.939 383.588C921.939 386.905 923.949 389.213 927.308 389.213ZM937.228 389.206C938.841 389.206 939.885 388.503 940.417 387.487H940.502V389H943.372V381.642C943.372 379.043 941.17 377.949 938.741 377.949C936.127 377.949 934.409 379.199 933.99 381.188L936.788 381.415C936.994 380.69 937.64 380.158 938.727 380.158C939.757 380.158 940.346 380.676 940.346 381.571V381.614C940.346 382.317 939.6 382.409 937.704 382.594C935.545 382.793 933.606 383.517 933.606 385.953C933.606 388.112 935.147 389.206 937.228 389.206ZM938.095 387.118C937.164 387.118 936.497 386.685 936.497 385.854C936.497 385.001 937.2 384.582 938.265 384.433C938.926 384.341 940.005 384.185 940.368 383.943V385.101C940.368 386.244 939.423 387.118 938.095 387.118ZM951.522 378.091H949.469V375.477H946.444V378.091H944.952V380.364H946.444V386.045C946.429 388.183 947.885 389.241 950.08 389.149C950.861 389.121 951.415 388.964 951.721 388.865L951.245 386.614C951.096 386.642 950.776 386.713 950.492 386.713C949.888 386.713 949.469 386.486 949.469 385.648V380.364H951.522V378.091ZM953.493 389H956.518V378.091H953.493V389ZM955.012 376.685C955.914 376.685 956.653 375.996 956.653 375.151C956.653 374.312 955.914 373.624 955.012 373.624C954.118 373.624 953.379 374.312 953.379 375.151C953.379 375.996 954.118 376.685 955.012 376.685ZM963.871 389.213C967.18 389.213 969.24 386.947 969.24 383.588C969.24 380.207 967.18 377.949 963.871 377.949C960.561 377.949 958.501 380.207 958.501 383.588C958.501 386.947 960.561 389.213 963.871 389.213ZM963.885 386.869C962.358 386.869 961.577 385.47 961.577 383.567C961.577 381.663 962.358 380.257 963.885 380.257C965.384 380.257 966.165 381.663 966.165 383.567C966.165 385.47 965.384 386.869 963.885 386.869ZM974.233 382.693C974.24 381.287 975.078 380.463 976.3 380.463C977.514 380.463 978.246 381.259 978.239 382.594V389H981.264V382.054C981.264 379.511 979.773 377.949 977.5 377.949C975.881 377.949 974.709 378.744 974.219 380.016H974.091V378.091H971.207V389H974.233V382.693ZM871.264 400.455V415H874.247V405.497H874.368L878.132 414.929H880.163L883.928 405.533H884.048V415H887.031V400.455H883.239L879.233 410.227H879.062L875.057 400.455H871.264ZM892.619 415.206C894.231 415.206 895.275 414.503 895.808 413.487H895.893V415H898.762V407.642C898.762 405.043 896.561 403.949 894.132 403.949C891.518 403.949 889.799 405.199 889.38 407.188L892.179 407.415C892.385 406.69 893.031 406.158 894.118 406.158C895.147 406.158 895.737 406.676 895.737 407.571V407.614C895.737 408.317 894.991 408.409 893.095 408.594C890.936 408.793 888.997 409.517 888.997 411.953C888.997 414.112 890.538 415.206 892.619 415.206ZM893.485 413.118C892.555 413.118 891.887 412.685 891.887 411.854C891.887 411.001 892.591 410.582 893.656 410.433C894.316 410.341 895.396 410.185 895.758 409.943V411.101C895.758 412.244 894.814 413.118 893.485 413.118ZM901.11 415H904.135V404.091H901.11V415ZM902.63 402.685C903.532 402.685 904.27 401.996 904.27 401.151C904.27 400.312 903.532 399.624 902.63 399.624C901.735 399.624 900.996 400.312 900.996 401.151C900.996 401.996 901.735 402.685 902.63 402.685ZM909.585 408.693C909.592 407.287 910.43 406.463 911.651 406.463C912.866 406.463 913.597 407.259 913.59 408.594V415H916.616V408.054C916.616 405.511 915.124 403.949 912.852 403.949C911.232 403.949 910.06 404.744 909.57 406.016H909.442V404.091H906.559V415H909.585V408.693ZM924.803 404.091H922.75V401.477H919.725V404.091H918.233V406.364H919.725V412.045C919.711 414.183 921.167 415.241 923.361 415.149C924.142 415.121 924.696 414.964 925.002 414.865L924.526 412.614C924.377 412.642 924.057 412.713 923.773 412.713C923.169 412.713 922.75 412.486 922.75 411.648V406.364H924.803V404.091ZM931.628 415.213C934.327 415.213 936.145 413.899 936.571 411.875L933.773 411.69C933.468 412.521 932.686 412.955 931.678 412.955C930.165 412.955 929.206 411.953 929.206 410.327V410.32H936.635V409.489C936.635 405.781 934.391 403.949 931.507 403.949C928.297 403.949 926.216 406.229 926.216 409.595C926.216 413.054 928.269 415.213 931.628 415.213ZM929.206 408.445C929.27 407.202 930.215 406.207 931.557 406.207C932.871 406.207 933.78 407.145 933.787 408.445H929.206ZM941.635 408.693C941.642 407.287 942.48 406.463 943.702 406.463C944.917 406.463 945.648 407.259 945.641 408.594V415H948.667V408.054C948.667 405.511 947.175 403.949 944.902 403.949C943.283 403.949 942.111 404.744 941.621 406.016H941.493V404.091H938.61V415H941.635V408.693ZM954.162 415.206C955.774 415.206 956.818 414.503 957.351 413.487H957.436V415H960.305V407.642C960.305 405.043 958.104 403.949 955.675 403.949C953.061 403.949 951.342 405.199 950.923 407.188L953.722 407.415C953.928 406.69 954.574 406.158 955.661 406.158C956.69 406.158 957.28 406.676 957.28 407.571V407.614C957.28 408.317 956.534 408.409 954.638 408.594C952.479 408.793 950.54 409.517 950.54 411.953C950.54 414.112 952.081 415.206 954.162 415.206ZM955.028 413.118C954.098 413.118 953.43 412.685 953.43 411.854C953.43 411.001 954.134 410.582 955.199 410.433C955.859 410.341 956.939 410.185 957.301 409.943V411.101C957.301 412.244 956.357 413.118 955.028 413.118ZM965.678 408.693C965.685 407.287 966.523 406.463 967.745 406.463C968.96 406.463 969.691 407.259 969.684 408.594V415H972.71V408.054C972.71 405.511 971.218 403.949 968.945 403.949C967.326 403.949 966.154 404.744 965.664 406.016H965.536V404.091H962.653V415H965.678V408.693ZM980.023 415.213C982.928 415.213 984.753 413.509 984.895 411.001H982.04C981.863 412.166 981.096 412.82 980.059 412.82C978.645 412.82 977.729 411.634 977.729 409.545C977.729 407.486 978.652 406.307 980.059 406.307C981.167 406.307 981.877 407.038 982.04 408.125H984.895C984.767 405.604 982.857 403.949 980.009 403.949C976.699 403.949 974.654 406.243 974.654 409.588C974.654 412.905 976.664 415.213 980.023 415.213ZM991.804 415.213C994.503 415.213 996.321 413.899 996.747 411.875L993.949 411.69C993.643 412.521 992.862 412.955 991.854 412.955C990.341 412.955 989.382 411.953 989.382 410.327V410.32H996.811V409.489C996.811 405.781 994.567 403.949 991.683 403.949C988.473 403.949 986.392 406.229 986.392 409.595C986.392 413.054 988.445 415.213 991.804 415.213ZM989.382 408.445C989.446 407.202 990.391 406.207 991.733 406.207C993.047 406.207 993.956 407.145 993.963 408.445H989.382ZM1007.87 415.213C1009.15 415.213 1010.52 414.858 1011.6 414.02L1012.48 415H1015.63L1013.44 412.493C1014.25 411.42 1014.76 409.879 1014.76 407.905H1012.26C1012.26 408.857 1012.02 409.702 1011.64 410.419L1009.24 407.663L1010.09 407.053C1011.31 406.172 1012.02 405.064 1012.02 403.693C1012.02 401.832 1010.58 400.263 1008.24 400.263C1005.86 400.263 1004.27 401.889 1004.27 403.999C1004.27 405.291 1004.9 406.371 1005.66 407.337C1004.07 408.423 1003.01 409.453 1003.01 411.136C1003.01 413.43 1004.85 415.213 1007.87 415.213ZM1009.96 412.202C1009.35 412.578 1008.68 412.784 1008.02 412.784C1006.76 412.784 1005.94 412.003 1005.94 410.966C1005.94 410.412 1006.32 409.773 1007.12 409.19L1007.21 409.134L1009.96 412.202ZM1007.78 405.938C1007.24 405.256 1006.87 404.652 1006.87 404.048C1006.87 403.317 1007.42 402.706 1008.27 402.699C1009.12 402.692 1009.6 403.288 1009.6 403.864C1009.6 404.474 1009.27 404.979 1008.54 405.44L1007.78 405.938ZM1029.47 404.638H1032.41C1032.37 402.045 1030.24 400.256 1027 400.256C1023.81 400.256 1021.48 402.017 1021.49 404.659C1021.48 406.804 1023 408.033 1025.45 408.622L1027.04 409.02C1028.62 409.403 1029.5 409.858 1029.51 410.838C1029.5 411.903 1028.49 412.628 1026.93 412.628C1025.33 412.628 1024.18 411.889 1024.08 410.433H1021.11C1021.19 413.58 1023.44 415.206 1026.97 415.206C1030.52 415.206 1032.61 413.509 1032.61 410.845C1032.61 408.423 1030.78 407.138 1028.25 406.57L1026.95 406.257C1025.68 405.966 1024.62 405.497 1024.64 404.453C1024.64 403.516 1025.48 402.827 1026.98 402.827C1028.45 402.827 1029.35 403.494 1029.47 404.638ZM1041.62 410.355C1041.63 411.818 1040.63 412.585 1039.54 412.585C1038.4 412.585 1037.66 411.783 1037.65 410.497V404.091H1034.63V411.037C1034.63 413.587 1036.12 415.142 1038.32 415.142C1039.96 415.142 1041.14 414.297 1041.63 413.018H1041.74V415H1044.65V404.091H1041.62V410.355ZM1047.07 419.091H1050.09V413.253H1050.18C1050.6 414.162 1051.52 415.178 1053.28 415.178C1055.77 415.178 1057.71 413.21 1057.71 409.56C1057.71 405.81 1055.68 403.949 1053.29 403.949C1051.46 403.949 1050.59 405.036 1050.18 405.923H1050.05V404.091H1047.07V419.091ZM1050.03 409.545C1050.03 407.599 1050.85 406.357 1052.32 406.357C1053.82 406.357 1054.62 407.656 1054.62 409.545C1054.62 411.449 1053.81 412.77 1052.32 412.77C1050.87 412.77 1050.03 411.491 1050.03 409.545ZM1059.72 419.091H1062.75V413.253H1062.84C1063.26 414.162 1064.18 415.178 1065.94 415.178C1068.42 415.178 1070.36 413.21 1070.36 409.56C1070.36 405.81 1068.34 403.949 1065.94 403.949C1064.12 403.949 1063.25 405.036 1062.84 405.923H1062.71V404.091H1059.72V419.091ZM1062.68 409.545C1062.68 407.599 1063.51 406.357 1064.98 406.357C1066.48 406.357 1067.27 407.656 1067.27 409.545C1067.27 411.449 1066.46 412.77 1064.98 412.77C1063.52 412.77 1062.68 411.491 1062.68 409.545ZM1077.31 415.213C1080.62 415.213 1082.68 412.947 1082.68 409.588C1082.68 406.207 1080.62 403.949 1077.31 403.949C1074 403.949 1071.94 406.207 1071.94 409.588C1071.94 412.947 1074 415.213 1077.31 415.213ZM1077.32 412.869C1075.8 412.869 1075.01 411.47 1075.01 409.567C1075.01 407.663 1075.8 406.257 1077.32 406.257C1078.82 406.257 1079.6 407.663 1079.6 409.567C1079.6 411.47 1078.82 412.869 1077.32 412.869ZM1084.64 415H1087.67V408.828C1087.67 407.486 1088.65 406.562 1089.99 406.562C1090.4 406.562 1090.98 406.634 1091.26 406.726V404.041C1090.99 403.977 1090.62 403.935 1090.31 403.935C1089.09 403.935 1088.09 404.645 1087.69 405.994H1087.58V404.091H1084.64V415ZM1099.18 404.091H1097.13V401.477H1094.1V404.091H1092.61V406.364H1094.1V412.045C1094.09 414.183 1095.54 415.241 1097.74 415.149C1098.52 415.121 1099.07 414.964 1099.38 414.865L1098.9 412.614C1098.75 412.642 1098.43 412.713 1098.15 412.713C1097.54 412.713 1097.13 412.486 1097.13 411.648V406.364H1099.18V404.091Z" fill="#02031C"/>
</svg>
