<svg width="1441" height="380" viewBox="0 0 1441 380" fill="none" xmlns="http://www.w3.org/2000/svg">
<path d="M1 166H1225" stroke="#02031C" stroke-width="0.5" stroke-linecap="round" stroke-linejoin="round"/>
<path d="M1212 153L1225 166L1212 179" stroke="#02031C" stroke-width="0.5" stroke-linecap="round" stroke-linejoin="round"/>
<rect x="521" y="141" width="50" height="50" rx="25" fill="#DBDBDB"/>
<rect x="571" y="16" width="300" height="300" rx="150" fill="#17249A"/>
<circle cx="601" cy="166" r="29" stroke="#56CDF2" stroke-width="2"/>
<circle cx="661" cy="166" r="29" stroke="#56CDF2" stroke-width="2"/>
<circle cx="721" cy="166" r="29" stroke="#56CDF2" stroke-width="2"/>
<circle cx="781" cy="166" r="29" stroke="#56CDF2" stroke-width="2"/>
<circle cx="841" cy="166" r="29" stroke="#56CDF2" stroke-width="2"/>
<rect x="871" y="116" width="100" height="100" rx="50" fill="#FF0049"/>
<circle cx="883.5" cy="166" r="11.5" stroke="white" stroke-width="2"/>
<circle cx="908.5" cy="166" r="11.5" stroke="white" stroke-width="2"/>
<circle cx="933.5" cy="166" r="11.5" stroke="white" stroke-width="2"/>
<circle cx="958.5" cy="166" r="11.5" stroke="white" stroke-width="2"/>
<rect x="971" y="141" width="50" height="50" rx="25" fill="#56CDF2"/>
<g clip-path="url(#clip0)">
<path d="M223.389 134.086V142.836H222.213V134.086H218.951V133.064H226.651V134.086H223.389Z" fill="#657374"/>
<path d="M231.643 134.016C231.317 134.016 231.088 133.951 230.957 133.82C230.827 133.68 230.761 133.507 230.761 133.302V133.078C230.761 132.873 230.827 132.705 230.957 132.574C231.088 132.434 231.317 132.364 231.643 132.364C231.97 132.364 232.199 132.434 232.329 132.574C232.46 132.705 232.525 132.873 232.525 133.078V133.302C232.525 133.507 232.46 133.68 232.329 133.82C232.199 133.951 231.97 134.016 231.643 134.016ZM228.479 141.884H231.083V136.564H228.479V135.612H232.203V141.884H234.639V142.836H228.479V141.884Z" fill="#657374"/>
<path d="M239.716 143.004C239.193 143.004 238.722 142.915 238.302 142.738C237.891 142.561 237.536 142.309 237.238 141.982C236.948 141.646 236.724 141.249 236.566 140.792C236.407 140.325 236.328 139.807 236.328 139.238C236.328 138.659 236.407 138.137 236.566 137.67C236.734 137.203 236.962 136.807 237.252 136.48C237.541 136.144 237.886 135.887 238.288 135.71C238.698 135.533 239.151 135.444 239.646 135.444C240.131 135.444 240.57 135.533 240.962 135.71C241.363 135.887 241.704 136.135 241.984 136.452C242.264 136.76 242.478 137.129 242.628 137.558C242.777 137.987 242.852 138.459 242.852 138.972V139.504H237.504V139.84C237.504 140.157 237.555 140.451 237.658 140.722C237.76 140.993 237.905 141.226 238.092 141.422C238.288 141.618 238.521 141.772 238.792 141.884C239.072 141.987 239.38 142.038 239.716 142.038C240.201 142.038 240.621 141.926 240.976 141.702C241.33 141.478 241.601 141.17 241.788 140.778L242.614 141.338C242.399 141.823 242.04 142.225 241.536 142.542C241.041 142.85 240.434 143.004 239.716 143.004ZM239.646 136.368C239.338 136.368 239.053 136.424 238.792 136.536C238.53 136.648 238.302 136.802 238.106 136.998C237.919 137.194 237.77 137.427 237.658 137.698C237.555 137.959 237.504 138.249 237.504 138.566V138.664H241.648V138.51C241.648 138.193 241.596 137.903 241.494 137.642C241.4 137.381 241.265 137.157 241.088 136.97C240.92 136.774 240.71 136.625 240.458 136.522C240.215 136.419 239.944 136.368 239.646 136.368Z" fill="#657374"/>
<path d="M244.54 142.836V135.612H245.576V136.452H245.632C245.744 136.172 245.903 135.934 246.108 135.738C246.314 135.542 246.617 135.444 247.018 135.444C247.438 135.444 247.751 135.551 247.956 135.766C248.162 135.971 248.288 136.242 248.334 136.578H248.376C248.507 136.251 248.694 135.981 248.936 135.766C249.179 135.551 249.515 135.444 249.944 135.444C250.532 135.444 250.924 135.649 251.12 136.06C251.326 136.471 251.428 137.059 251.428 137.824V142.836H250.392V138.006C250.392 137.39 250.327 136.965 250.196 136.732C250.075 136.489 249.846 136.368 249.51 136.368C249.212 136.368 248.969 136.466 248.782 136.662C248.596 136.849 248.502 137.138 248.502 137.53V142.836H247.466V138.006C247.466 137.39 247.401 136.965 247.27 136.732C247.149 136.489 246.925 136.368 246.598 136.368C246.3 136.368 246.052 136.466 245.856 136.662C245.67 136.849 245.576 137.138 245.576 137.53V142.836H244.54Z" fill="#657374"/>
<path d="M253.509 135.612H254.629V136.788H254.685C255.151 135.892 255.893 135.444 256.911 135.444C257.797 135.444 258.488 135.775 258.983 136.438C259.487 137.101 259.739 138.029 259.739 139.224C259.739 140.419 259.487 141.347 258.983 142.01C258.488 142.673 257.797 143.004 256.911 143.004C255.893 143.004 255.151 142.556 254.685 141.66H254.629V145.636H253.509V135.612ZM256.477 142.01C257.13 142.01 257.634 141.814 257.989 141.422C258.353 141.021 258.535 140.493 258.535 139.84V138.608C258.535 137.955 258.353 137.432 257.989 137.04C257.634 136.639 257.13 136.438 256.477 136.438C256.225 136.438 255.987 136.471 255.763 136.536C255.539 136.601 255.343 136.699 255.175 136.83C255.007 136.951 254.871 137.105 254.769 137.292C254.675 137.469 254.629 137.679 254.629 137.922V140.526C254.629 140.769 254.675 140.983 254.769 141.17C254.871 141.347 255.007 141.501 255.175 141.632C255.343 141.753 255.539 141.847 255.763 141.912C255.987 141.977 256.225 142.01 256.477 142.01Z" fill="#657374"/>
<path d="M264.773 143.004C264.269 143.004 263.812 142.915 263.401 142.738C263 142.561 262.655 142.309 262.365 141.982C262.085 141.646 261.871 141.249 261.721 140.792C261.572 140.325 261.497 139.803 261.497 139.224C261.497 138.655 261.572 138.137 261.721 137.67C261.871 137.203 262.085 136.807 262.365 136.48C262.655 136.144 263 135.887 263.401 135.71C263.812 135.533 264.269 135.444 264.773 135.444C265.277 135.444 265.73 135.533 266.131 135.71C266.542 135.887 266.887 136.144 267.167 136.48C267.457 136.807 267.676 137.203 267.825 137.67C267.975 138.137 268.049 138.655 268.049 139.224C268.049 139.803 267.975 140.325 267.825 140.792C267.676 141.249 267.457 141.646 267.167 141.982C266.887 142.309 266.542 142.561 266.131 142.738C265.73 142.915 265.277 143.004 264.773 143.004ZM264.773 142.038C265.399 142.038 265.903 141.851 266.285 141.478C266.668 141.105 266.859 140.526 266.859 139.742V138.706C266.859 137.922 266.668 137.343 266.285 136.97C265.903 136.597 265.399 136.41 264.773 136.41C264.148 136.41 263.644 136.597 263.261 136.97C262.879 137.343 262.687 137.922 262.687 138.706V139.742C262.687 140.526 262.879 141.105 263.261 141.478C263.644 141.851 264.148 142.038 264.773 142.038Z" fill="#657374"/>
</g>
<g clip-path="url(#clip1)">
<path d="M488.26 358.643C492.691 358.643 495.376 355.901 495.376 351.356C495.376 346.825 492.691 344.097 488.302 344.097H483.103V358.643H488.26ZM486.179 356.008V346.732H488.139C490.866 346.732 492.308 348.124 492.308 351.356C492.308 354.602 490.866 356.008 488.132 356.008H486.179Z" fill="#02031C"/>
<path d="M497.597 358.643H500.623V347.734H497.597V358.643ZM499.117 346.327C500.019 346.327 500.758 345.639 500.758 344.793C500.758 343.955 500.019 343.266 499.117 343.266C498.222 343.266 497.484 343.955 497.484 344.793C497.484 345.639 498.222 346.327 499.117 346.327Z" fill="#02031C"/>
<path d="M512.123 350.844C511.853 348.835 510.234 347.592 507.478 347.592C504.687 347.592 502.848 348.884 502.855 350.987C502.848 352.62 503.877 353.678 506.008 354.104L507.897 354.481C508.849 354.673 509.282 355.021 509.296 355.567C509.282 356.214 508.579 356.675 507.521 356.675C506.441 356.675 505.724 356.214 505.539 355.326L502.563 355.482C502.848 357.57 504.623 358.856 507.514 358.856C510.34 358.856 512.365 357.414 512.372 355.262C512.365 353.685 511.335 352.741 509.218 352.308L507.244 351.91C506.228 351.69 505.852 351.342 505.859 350.816C505.852 350.163 506.59 349.737 507.528 349.737C508.579 349.737 509.204 350.312 509.353 351.015L512.123 350.844Z" fill="#02031C"/>
<path d="M519.206 358.856C522.111 358.856 523.936 357.151 524.078 354.644H521.223C521.045 355.809 520.278 356.462 519.241 356.462C517.828 356.462 516.912 355.276 516.912 353.188C516.912 351.129 517.835 349.95 519.241 349.95C520.349 349.95 521.06 350.681 521.223 351.768H524.078C523.95 349.246 522.04 347.592 519.192 347.592C515.882 347.592 513.837 349.886 513.837 353.231C513.837 356.548 515.847 358.856 519.206 358.856Z" fill="#02031C"/>
<path d="M530.944 358.856C534.254 358.856 536.313 356.59 536.313 353.231C536.313 349.85 534.254 347.592 530.944 347.592C527.635 347.592 525.575 349.85 525.575 353.231C525.575 356.59 527.635 358.856 530.944 358.856ZM530.958 356.512C529.431 356.512 528.65 355.113 528.65 353.21C528.65 351.306 529.431 349.9 530.958 349.9C532.457 349.9 533.238 351.306 533.238 353.21C533.238 355.113 532.457 356.512 530.958 356.512Z" fill="#02031C"/>
<path d="M548.08 347.734H544.877L542.619 355.539H542.505L540.239 347.734H537.043L540.857 358.643H544.266L548.08 347.734Z" fill="#02031C"/>
<path d="M554.229 358.856C556.928 358.856 558.746 357.542 559.172 355.518L556.374 355.333C556.068 356.164 555.287 356.597 554.279 356.597C552.766 356.597 551.807 355.596 551.807 353.969V353.962H559.236V353.131C559.236 349.424 556.992 347.592 554.108 347.592C550.898 347.592 548.817 349.871 548.817 353.238C548.817 356.697 550.87 358.856 554.229 358.856ZM551.807 352.087C551.871 350.844 552.816 349.85 554.158 349.85C555.472 349.85 556.381 350.788 556.388 352.087H551.807Z" fill="#02031C"/>
<path d="M561.211 358.643H564.236V352.471C564.236 351.129 565.216 350.205 566.551 350.205C566.97 350.205 567.546 350.276 567.83 350.369V347.684C567.56 347.62 567.184 347.577 566.878 347.577C565.657 347.577 564.655 348.288 564.257 349.637H564.144V347.734H561.211V358.643Z" fill="#02031C"/>
<path d="M571.594 362.734C573.845 362.734 575.039 361.583 575.657 359.822L579.897 347.748L576.693 347.734L574.414 355.745H574.3L572.041 347.734H568.86L572.773 358.955L572.595 359.417C572.198 360.44 571.438 360.489 570.372 360.163L569.691 362.421C570.124 362.606 570.827 362.734 571.594 362.734Z" fill="#02031C"/>
</g>
<g clip-path="url(#clip2)">
<path d="M676.356 360.166C680.788 360.166 683.472 357.425 683.472 352.879C683.472 348.348 680.788 345.621 676.399 345.621H671.2V360.166H676.356ZM674.275 357.531V348.256H676.235C678.962 348.256 680.404 349.648 680.404 352.879C680.404 356.125 678.962 357.531 676.228 357.531H674.275Z" fill="#02031C"/>
<path d="M690.665 360.379C693.364 360.379 695.182 359.065 695.608 357.041L692.81 356.857C692.505 357.687 691.724 358.121 690.715 358.121C689.202 358.121 688.243 357.119 688.243 355.493V355.486H695.672V354.655C695.672 350.947 693.428 349.115 690.545 349.115C687.334 349.115 685.253 351.395 685.253 354.761C685.253 358.22 687.306 360.379 690.665 360.379ZM688.243 353.611C688.307 352.368 689.252 351.374 690.594 351.374C691.908 351.374 692.817 352.311 692.824 353.611H688.243Z" fill="#02031C"/>
<path d="M706.723 352.368C706.454 350.358 704.834 349.115 702.079 349.115C699.287 349.115 697.448 350.408 697.455 352.51C697.448 354.143 698.478 355.202 700.608 355.628L702.498 356.004C703.449 356.196 703.883 356.544 703.897 357.091C703.883 357.737 703.179 358.199 702.121 358.199C701.042 358.199 700.324 357.737 700.14 356.849L697.164 357.006C697.448 359.094 699.223 360.379 702.114 360.379C704.941 360.379 706.965 358.937 706.972 356.786C706.965 355.209 705.935 354.264 703.819 353.831L701.844 353.433C700.829 353.213 700.452 352.865 700.459 352.339C700.452 351.686 701.191 351.26 702.128 351.26C703.179 351.26 703.804 351.835 703.954 352.538L706.723 352.368Z" fill="#02031C"/>
<path d="M711.988 360.372C713.6 360.372 714.644 359.669 715.177 358.653H715.262V360.166H718.132V352.808C718.132 350.209 715.93 349.115 713.501 349.115C710.887 349.115 709.168 350.365 708.749 352.354L711.548 352.581C711.754 351.857 712.4 351.324 713.487 351.324C714.516 351.324 715.106 351.842 715.106 352.737V352.78C715.106 353.483 714.36 353.575 712.464 353.76C710.305 353.959 708.366 354.683 708.366 357.119C708.366 359.278 709.907 360.372 711.988 360.372ZM712.855 358.284C711.924 358.284 711.257 357.851 711.257 357.02C711.257 356.168 711.96 355.749 713.025 355.599C713.686 355.507 714.765 355.351 715.127 355.109V356.267C715.127 357.411 714.183 358.284 712.855 358.284Z" fill="#02031C"/>
<path d="M720.479 360.166H723.504V353.994C723.504 352.652 724.485 351.729 725.82 351.729C726.239 351.729 726.814 351.8 727.098 351.892V349.207C726.828 349.143 726.452 349.101 726.146 349.101C724.925 349.101 723.923 349.811 723.526 351.161H723.412V349.257H720.479V360.166Z" fill="#02031C"/>
<path d="M728.662 360.166H731.688V353.994C731.688 352.652 732.668 351.729 734.003 351.729C734.422 351.729 734.998 351.8 735.282 351.892V349.207C735.012 349.143 734.635 349.101 734.33 349.101C733.108 349.101 732.107 349.811 731.709 351.161H731.596V349.257H728.662V360.166Z" fill="#02031C"/>
<path d="M741.267 360.379C744.577 360.379 746.636 358.114 746.636 354.754C746.636 351.374 744.577 349.115 741.267 349.115C737.958 349.115 735.898 351.374 735.898 354.754C735.898 358.114 737.958 360.379 741.267 360.379ZM741.281 358.036C739.754 358.036 738.973 356.636 738.973 354.733C738.973 352.83 739.754 351.423 741.281 351.423C742.78 351.423 743.561 352.83 743.561 354.733C743.561 356.636 742.78 358.036 741.281 358.036Z" fill="#02031C"/>
<path d="M751.629 345.621H748.604V360.166H751.629V345.621Z" fill="#02031C"/>
<path d="M757.079 345.621H754.053V360.166H757.079V345.621Z" fill="#02031C"/>
<path d="M764.431 360.379C767.741 360.379 769.801 358.114 769.801 354.754C769.801 351.374 767.741 349.115 764.431 349.115C761.122 349.115 759.062 351.374 759.062 354.754C759.062 358.114 761.122 360.379 764.431 360.379ZM764.445 358.036C762.918 358.036 762.137 356.636 762.137 354.733C762.137 352.83 762.918 351.423 764.445 351.423C765.944 351.423 766.725 352.83 766.725 354.733C766.725 356.636 765.944 358.036 764.445 358.036Z" fill="#02031C"/>
</g>
<g clip-path="url(#clip3)">
<path d="M847.285 344.097V358.643H850.268V349.14H850.389L854.153 358.572H856.184L859.949 349.175H860.069V358.643H863.052V344.097H859.26L855.254 353.87H855.083L851.078 344.097H847.285Z" fill="#02031C"/>
<path d="M868.64 358.849C870.252 358.849 871.296 358.146 871.829 357.13H871.914V358.643H874.783V351.285C874.783 348.685 872.582 347.592 870.153 347.592C867.539 347.592 865.82 348.842 865.401 350.83L868.2 351.058C868.406 350.333 869.052 349.8 870.138 349.8C871.168 349.8 871.758 350.319 871.758 351.214V351.256C871.758 351.96 871.012 352.052 869.116 352.237C866.957 352.435 865.018 353.16 865.018 355.596C865.018 357.755 866.559 358.849 868.64 358.849ZM869.506 356.761C868.576 356.761 867.908 356.327 867.908 355.496C867.908 354.644 868.612 354.225 869.677 354.076C870.337 353.984 871.417 353.827 871.779 353.586V354.744C871.779 355.887 870.835 356.761 869.506 356.761Z" fill="#02031C"/>
<path d="M880.156 352.336C880.163 350.93 881.001 350.106 882.223 350.106C883.437 350.106 884.169 350.901 884.162 352.237V358.643H887.188V351.697C887.188 349.154 885.696 347.592 883.423 347.592C881.804 347.592 880.632 348.387 880.142 349.658H880.014V347.734H877.131V358.643H880.156V352.336Z" fill="#02031C"/>
<path d="M895.375 347.734H893.322V345.12H890.297V347.734H888.805V350.006H890.297V355.688C890.282 357.826 891.738 358.884 893.933 358.792C894.714 358.764 895.268 358.607 895.574 358.508L895.098 356.256C894.949 356.285 894.629 356.356 894.345 356.356C893.741 356.356 893.322 356.129 893.322 355.291V350.006H895.375V347.734Z" fill="#02031C"/>
<path d="M902.2 358.856C904.899 358.856 906.717 357.542 907.143 355.518L904.345 355.333C904.039 356.164 903.258 356.597 902.25 356.597C900.737 356.597 899.778 355.596 899.778 353.969V353.962H907.207V353.131C907.207 349.424 904.963 347.592 902.079 347.592C898.869 347.592 896.788 349.871 896.788 353.238C896.788 356.697 898.841 358.856 902.2 358.856ZM899.778 352.087C899.842 350.844 900.787 349.85 902.129 349.85C903.443 349.85 904.352 350.788 904.359 352.087H899.778Z" fill="#02031C"/>
<path d="M912.207 352.336C912.214 350.93 913.052 350.106 914.274 350.106C915.488 350.106 916.22 350.901 916.213 352.237V358.643H919.238V351.697C919.238 349.154 917.747 347.592 915.474 347.592C913.855 347.592 912.683 348.387 912.193 349.658H912.065V347.734H909.181V358.643H912.207V352.336Z" fill="#02031C"/>
<path d="M921.623 358.643H924.648V347.734H921.623V358.643ZM923.143 346.327C924.045 346.327 924.783 345.639 924.783 344.793C924.783 343.955 924.045 343.266 923.143 343.266C922.248 343.266 921.509 343.955 921.509 344.793C921.509 345.639 922.248 346.327 923.143 346.327Z" fill="#02031C"/>
<path d="M927.072 358.643H930.098V352.094C930.098 350.887 930.865 350.085 931.873 350.085C932.868 350.085 933.535 350.766 933.535 351.839V358.643H936.468V351.981C936.468 350.852 937.115 350.085 938.216 350.085C939.181 350.085 939.906 350.688 939.906 351.903V358.643H942.924V351.306C942.924 348.941 941.518 347.592 939.487 347.592C937.889 347.592 936.646 348.408 936.199 349.658H936.085C935.737 348.394 934.622 347.592 933.123 347.592C931.653 347.592 930.538 348.373 930.083 349.658H929.956V347.734H927.072V358.643Z" fill="#02031C"/>
<path d="M945.314 358.643H948.34V347.734H945.314V358.643ZM946.834 346.327C947.736 346.327 948.475 345.639 948.475 344.793C948.475 343.955 947.736 343.266 946.834 343.266C945.939 343.266 945.201 343.955 945.201 344.793C945.201 345.639 945.939 346.327 946.834 346.327Z" fill="#02031C"/>
<path d="M955.735 358.856C958.434 358.856 960.252 357.542 960.678 355.518L957.88 355.333C957.575 356.164 956.793 356.597 955.785 356.597C954.272 356.597 953.313 355.596 953.313 353.969V353.962H960.742V353.131C960.742 349.424 958.498 347.592 955.614 347.592C952.404 347.592 950.323 349.871 950.323 353.238C950.323 356.697 952.376 358.856 955.735 358.856ZM953.313 352.087C953.377 350.844 954.322 349.85 955.664 349.85C956.978 349.85 957.887 350.788 957.894 352.087H953.313Z" fill="#02031C"/>
<path d="M965.742 352.336C965.749 350.93 966.587 350.106 967.809 350.106C969.023 350.106 969.755 350.901 969.748 352.237V358.643H972.773V351.697C972.773 349.154 971.282 347.592 969.009 347.592C967.39 347.592 966.218 348.387 965.728 349.658H965.6V347.734H962.717V358.643H965.742V352.336Z" fill="#02031C"/>
<path d="M980.961 347.734H978.908V345.12H975.882V347.734H974.391V350.006H975.882V355.688C975.868 357.826 977.324 358.884 979.519 358.792C980.3 358.764 980.854 358.607 981.159 358.508L980.684 356.256C980.534 356.285 980.215 356.356 979.931 356.356C979.327 356.356 978.908 356.129 978.908 355.291V350.006H980.961V347.734Z" fill="#02031C"/>
<path d="M987.743 358.856C991.053 358.856 993.113 356.59 993.113 353.231C993.113 349.85 991.053 347.592 987.743 347.592C984.434 347.592 982.374 349.85 982.374 353.231C982.374 356.59 984.434 358.856 987.743 358.856ZM987.757 356.512C986.23 356.512 985.449 355.113 985.449 353.21C985.449 351.306 986.23 349.9 987.757 349.9C989.256 349.9 990.037 351.306 990.037 353.21C990.037 355.113 989.256 356.512 987.757 356.512Z" fill="#02031C"/>
<path d="M1001.58 362.734C1003.83 362.734 1005.02 361.583 1005.64 359.822L1009.88 347.748L1006.68 347.734L1004.4 355.745H1004.28L1002.02 347.734H998.842L1002.76 358.955L1002.58 359.417C1002.18 360.44 1001.42 360.489 1000.36 360.163L999.673 362.421C1000.11 362.606 1000.81 362.734 1001.58 362.734Z" fill="#02031C"/>
<path d="M1024 348.281H1026.95C1026.91 345.688 1024.78 343.898 1021.54 343.898C1018.35 343.898 1016.01 345.66 1016.03 348.302C1016.02 350.447 1017.53 351.675 1019.99 352.265L1021.57 352.663C1023.16 353.046 1024.04 353.501 1024.05 354.481C1024.04 355.546 1023.03 356.271 1021.47 356.271C1019.87 356.271 1018.72 355.532 1018.62 354.076H1015.64C1015.72 357.222 1017.97 358.849 1021.5 358.849C1025.06 358.849 1027.14 357.151 1027.15 354.488C1027.14 352.066 1025.32 350.781 1022.79 350.212L1021.48 349.9C1020.22 349.609 1019.16 349.14 1019.18 348.096C1019.18 347.158 1020.01 346.469 1021.52 346.469C1022.99 346.469 1023.89 347.137 1024 348.281Z" fill="#02031C"/>
<path d="M1034.09 358.856C1037.4 358.856 1039.46 356.59 1039.46 353.231C1039.46 349.85 1037.4 347.592 1034.09 347.592C1030.78 347.592 1028.72 349.85 1028.72 353.231C1028.72 356.59 1030.78 358.856 1034.09 358.856ZM1034.11 356.512C1032.58 356.512 1031.8 355.113 1031.8 353.21C1031.8 351.306 1032.58 349.9 1034.11 349.9C1035.6 349.9 1036.38 351.306 1036.38 353.21C1036.38 355.113 1035.6 356.512 1034.11 356.512Z" fill="#02031C"/>
<path d="M1041.43 362.734H1044.45V356.896H1044.55C1044.96 357.805 1045.88 358.82 1047.64 358.82C1050.13 358.82 1052.07 356.853 1052.07 353.202C1052.07 349.452 1050.04 347.592 1047.65 347.592C1045.82 347.592 1044.95 348.678 1044.55 349.566H1044.41V347.734H1041.43V362.734ZM1044.39 353.188C1044.39 351.242 1045.21 349.999 1046.68 349.999C1048.18 349.999 1048.98 351.299 1048.98 353.188C1048.98 355.092 1048.17 356.413 1046.68 356.413C1045.23 356.413 1044.39 355.134 1044.39 353.188Z" fill="#02031C"/>
<path d="M1059.01 358.856C1062.32 358.856 1064.38 356.59 1064.38 353.231C1064.38 349.85 1062.32 347.592 1059.01 347.592C1055.7 347.592 1053.64 349.85 1053.64 353.231C1053.64 356.59 1055.7 358.856 1059.01 358.856ZM1059.03 356.512C1057.5 356.512 1056.72 355.113 1056.72 353.21C1056.72 351.306 1057.5 349.9 1059.03 349.9C1060.53 349.9 1061.31 351.306 1061.31 353.21C1061.31 355.113 1060.53 356.512 1059.03 356.512Z" fill="#02031C"/>
<path d="M1066.35 358.643H1069.38V352.471C1069.38 351.129 1070.36 350.205 1071.69 350.205C1072.11 350.205 1072.68 350.276 1072.97 350.369V347.684C1072.7 347.62 1072.32 347.577 1072.02 347.577C1070.8 347.577 1069.79 348.288 1069.4 349.637H1069.28V347.734H1066.35V358.643Z" fill="#02031C"/>
<path d="M1080.88 347.734H1078.83V345.12H1075.8V347.734H1074.31V350.006H1075.8V355.688C1075.79 357.826 1077.25 358.884 1079.44 358.792C1080.22 358.764 1080.78 358.607 1081.08 358.508L1080.61 356.256C1080.46 356.285 1080.14 356.356 1079.85 356.356C1079.25 356.356 1078.83 356.129 1078.83 355.291V350.006H1080.88V347.734Z" fill="#02031C"/>
<path d="M1087.71 358.856C1090.41 358.856 1092.22 357.542 1092.65 355.518L1089.85 355.333C1089.55 356.164 1088.77 356.597 1087.76 356.597C1086.24 356.597 1085.29 355.596 1085.29 353.969V353.962H1092.71V353.131C1092.71 349.424 1090.47 347.592 1087.59 347.592C1084.38 347.592 1082.3 349.871 1082.3 353.238C1082.3 356.697 1084.35 358.856 1087.71 358.856ZM1085.29 352.087C1085.35 350.844 1086.29 349.85 1087.64 349.85C1088.95 349.85 1089.86 350.788 1089.87 352.087H1085.29Z" fill="#02031C"/>
</g>
<defs>
<clipPath id="clip0">
<rect width="49.0987" height="13.272" fill="white" transform="translate(218.951 132.364)"/>
</clipPath>
<clipPath id="clip1">
<rect width="96.7933" height="19.4673" fill="white" transform="translate(483.103 343.266)"/>
</clipPath>
<clipPath id="clip2">
<rect width="98.6009" height="14.7585" fill="white" transform="translate(671.2 345.621)"/>
</clipPath>
<clipPath id="clip3">
<rect width="245.43" height="19.4673" fill="white" transform="translate(847.285 343.266)"/>
</clipPath>
</defs>
</svg>
