<svg width="24" height="25" viewBox="0 0 24 25" fill="none" xmlns="http://www.w3.org/2000/svg">
<path fill-rule="evenodd" clip-rule="evenodd" d="M7.875 4.9248C5.80393 4.9248 4.125 6.60374 4.125 8.6748V16.9248C4.125 18.9959 5.80393 20.6748 7.875 20.6748H16.125C18.1961 20.6748 19.875 18.9959 19.875 16.9248V8.6748C19.875 6.60374 18.1961 4.9248 16.125 4.9248H7.875ZM2.625 8.6748C2.625 5.77531 4.97551 3.4248 7.875 3.4248H16.125C19.0245 3.4248 21.375 5.77531 21.375 8.6748V16.9248C21.375 19.8243 19.0245 22.1748 16.125 22.1748H7.875C4.97551 22.1748 2.625 19.8243 2.625 16.9248V8.6748ZM12 9.7998C10.3431 9.7998 9 11.143 9 12.7998C9 14.4567 10.3431 15.7998 12 15.7998C13.6569 15.7998 15 14.4567 15 12.7998C15 11.143 13.6569 9.7998 12 9.7998ZM7.5 12.7998C7.5 10.3145 9.51472 8.2998 12 8.2998C14.4853 8.2998 16.5 10.3145 16.5 12.7998C16.5 15.2851 14.4853 17.2998 12 17.2998C9.51472 17.2998 7.5 15.2851 7.5 12.7998ZM18 7.9248C18 8.54612 17.4963 9.0498 16.875 9.0498C16.2537 9.0498 15.75 8.54612 15.75 7.9248C15.75 7.30348 16.2537 6.7998 16.875 6.7998C17.4963 6.7998 18 7.30348 18 7.9248Z" fill="#02031C"/>
</svg>
