<svg width="24" height="25" viewBox="0 0 24 25" fill="none" xmlns="http://www.w3.org/2000/svg">
<path fill-rule="evenodd" clip-rule="evenodd" d="M2.71047 4.14317C2.00183 6.71033 2.11357 9.43487 3.03015 11.9355C3.81675 14.0815 5.16231 15.9703 6.91855 17.4116C5.31586 18.2941 3.51601 18.7728 1.67577 18.7983C1.40696 18.802 1.1607 18.9494 1.0303 19.1844L1.02969 19.1855C0.933134 19.3596 0.909739 19.5649 0.964656 19.7563C1.01957 19.9476 1.1483 20.1092 1.32247 20.2056C3.22994 21.2609 5.37606 21.8097 7.55597 21.7995C9.73587 21.7894 11.8768 21.2206 13.7743 20.1476C15.6719 19.0746 17.2628 17.5331 18.395 15.6703C19.4626 13.914 20.0889 11.9273 20.2231 9.88008C21.3394 9.05898 22.3148 8.06054 23.1101 6.9237C23.12 6.90993 23.1294 6.89585 23.1383 6.88148C23.2448 6.70921 23.2812 6.4952 23.2237 6.28723C23.1991 6.19789 23.158 6.11279 23.1012 6.03696C23.0444 5.96111 22.9743 5.89768 22.8955 5.84894C22.7233 5.74238 22.5093 5.70599 22.3013 5.76353C22.2852 5.76796 22.2692 5.77294 22.2533 5.77845C21.3354 6.08614 20.3823 6.27452 19.4175 6.33938C18.8915 5.599 18.1512 5.03177 17.291 4.71796C16.2809 4.34947 15.1723 4.35474 14.1658 4.73281C13.1593 5.11088 12.3214 5.83677 11.8037 6.77912C11.4565 7.41117 11.2687 8.1126 11.2493 8.8235C9.94228 8.55679 8.69061 8.0592 7.55396 7.35166C6.15665 6.48188 4.96728 5.31608 4.06972 3.93656C4.0208 3.85888 3.95714 3.78947 3.8803 3.7328C3.63017 3.54835 3.2922 3.53727 3.03053 3.70495L3.0305 3.70497C2.87251 3.8062 2.75859 3.96271 2.71047 4.14317ZM12.8074 9.54222C12.6665 8.84678 12.7765 8.12364 13.1184 7.50135C13.4635 6.87306 14.0222 6.38908 14.6933 6.13701C15.3643 5.88494 16.1035 5.88143 16.7769 6.12711C17.4457 6.37109 18.0058 6.84481 18.3574 7.46342C18.3952 7.53405 18.4444 7.59881 18.5037 7.65484C18.6486 7.79159 18.8419 7.8651 19.041 7.85916C19.5109 7.84514 19.9791 7.80527 20.4434 7.73995C20.0179 8.1471 19.5601 8.52091 19.0741 8.85751C18.8785 8.98904 18.7519 9.20843 18.743 9.45284C18.6735 11.3751 18.1124 13.2475 17.1132 14.8912C16.1141 16.5349 14.7104 17.8951 13.036 18.8419C11.3616 19.7887 9.4725 20.2906 7.54898 20.2995C6.54926 20.3042 5.55759 20.1756 4.59936 19.9203C6.04097 19.5598 7.41551 18.9471 8.65681 18.1031C8.73694 18.0514 8.80847 17.9836 8.86619 17.9005L8.86626 17.9004C9.07258 17.6033 9.03746 17.2013 8.78276 16.9444C8.74436 16.9057 8.70261 16.8719 8.65837 16.8432C6.72146 15.5188 5.24615 13.6226 4.43852 11.4192C3.81559 9.71977 3.61389 7.90311 3.83968 6.12293C4.67923 7.09746 5.66365 7.94187 6.76128 8.62511C8.34206 9.6091 10.1191 10.2348 11.9675 10.4584C12.0522 10.471 12.1405 10.4691 12.2292 10.4508L12.2295 10.4507C12.5896 10.3764 12.8427 10.0518 12.8271 9.68438C12.825 9.63569 12.8183 9.58816 12.8074 9.54222Z" fill="#02031C"/>
</svg>
