<svg width="24" height="25" viewBox="0 0 24 25" fill="none" xmlns="http://www.w3.org/2000/svg">
<path fill-rule="evenodd" clip-rule="evenodd" d="M3 5.2998C3 4.47138 3.67157 3.7998 4.5 3.7998H19.5C20.3284 3.7998 21 4.47138 21 5.2998V20.2998C21 21.1282 20.3284 21.7998 19.5 21.7998H4.5C3.67157 21.7998 3 21.1282 3 20.2998V5.2998ZM19.5 5.2998H4.5V20.2998H19.5V5.2998ZM11.25 10.5498C11.6063 10.5498 11.9046 10.7982 11.981 11.1313C12.5359 10.7551 13.1949 10.5498 13.875 10.5498C14.7701 10.5498 15.6286 10.9054 16.2615 11.5383C16.8944 12.1713 17.25 13.0297 17.25 13.9248V17.2998C17.25 17.714 16.9142 18.0498 16.5 18.0498C16.0858 18.0498 15.75 17.714 15.75 17.2998V13.9248C15.75 13.4275 15.5525 12.9506 15.2008 12.599C14.8492 12.2473 14.3723 12.0498 13.875 12.0498C13.3777 12.0498 12.9008 12.2473 12.5492 12.599C12.1975 12.9506 12 13.4275 12 13.9248V17.2998C12 17.714 11.6642 18.0498 11.25 18.0498C10.8358 18.0498 10.5 17.714 10.5 17.2998V13.9248V11.2998C10.5 10.8856 10.8358 10.5498 11.25 10.5498ZM9 11.2998C9 10.8856 8.66421 10.5498 8.25 10.5498C7.83579 10.5498 7.5 10.8856 7.5 11.2998V17.2998C7.5 17.714 7.83579 18.0498 8.25 18.0498C8.66421 18.0498 9 17.714 9 17.2998V11.2998ZM9.375 8.2998C9.375 8.92112 8.87132 9.4248 8.25 9.4248C7.62868 9.4248 7.125 8.92112 7.125 8.2998C7.125 7.67848 7.62868 7.1748 8.25 7.1748C8.87132 7.1748 9.375 7.67848 9.375 8.2998Z" fill="#02031C"/>
</svg>
