<svg width="86" height="100" viewBox="0 0 86 100" fill="none" xmlns="http://www.w3.org/2000/svg">
<g clip-path="url(#clip0)">
<path fill-rule="evenodd" clip-rule="evenodd" d="M43.1034 1.04785L85.8867 25.6128V74.7426L43.1034 99.3075L0.320068 74.7426V25.6128L43.1034 1.04785ZM43.1034 5.25694L3.98543 27.7173V72.638L43.1034 95.0984L82.2213 72.638V27.7173L43.1034 5.25694Z" fill="white"/>
<path fill-rule="evenodd" clip-rule="evenodd" d="M43.1035 16.4175L72.5027 33.2976V67.058L43.1035 83.9381L13.7043 67.058V33.2976L43.1035 16.4175ZM43.1035 18.8967L15.8633 34.5372V65.8183L43.1035 81.4589L70.3438 65.8183V34.5372L43.1035 18.8967Z" fill="white"/>
<path fill-rule="evenodd" clip-rule="evenodd" d="M63.4463 15.1382L83.7882 50.1774L63.4463 85.2166H22.7625L2.42053 50.1774L22.7625 15.1382H63.4463ZM62.2135 17.2618H23.9953L4.88623 50.1774L23.9953 83.093H62.2135L81.3225 50.1774L62.2135 17.2618Z" fill="white"/>
<path fill-rule="evenodd" clip-rule="evenodd" d="M57.2689 25.7773L71.4344 50.1777L57.2689 74.578H28.9378L14.7722 50.1777L28.9378 25.7773H57.2689ZM56.1107 27.7723H30.0959L17.0886 50.1777L30.0959 72.5831H56.1107L69.1181 50.1777L56.1107 27.7723Z" fill="white"/>
<path fill-rule="evenodd" clip-rule="evenodd" d="M43.1036 26.7734L63.4845 38.4755V61.8797L43.1036 73.5818L22.7228 61.8797V38.4755L43.1036 26.7734ZM43.1036 30.9266L26.3395 40.5521V59.8031L43.1036 69.4286L59.8678 59.8031V40.5521L43.1036 30.9266Z" fill="white"/>
<path fill-rule="evenodd" clip-rule="evenodd" d="M62.3413 38.0732L63.4062 39.9147L44.0802 51.0538L44.0806 71.9104H41.9509L41.95 50.9792L22.7543 39.9147L23.8191 38.0732L43.0803 49.175L62.3413 38.0732Z" fill="white"/>
</g>
<defs>
<clipPath id="clip0">
<rect width="85.8491" height="100" fill="white"/>
</clipPath>
</defs>
</svg>
