<svg width="121" height="49" viewBox="0 0 121 49" fill="none" xmlns="http://www.w3.org/2000/svg">
<g clip-path="url(#clip0)">
<path fill-rule="evenodd" clip-rule="evenodd" d="M21.0872 0.513184L42.0181 12.55V36.6236L21.0872 48.6604L0.15625 36.6236V12.55L21.0872 0.513184ZM21.0872 2.57564L1.94946 13.5812V35.5924L21.0872 46.598L40.2249 35.5924V13.5812L21.0872 2.57564Z" fill="#02031C"/>
<path fill-rule="evenodd" clip-rule="evenodd" d="M21.0881 8.04443L35.4711 16.3157V32.8583L21.0881 41.1295L6.70508 32.8583V16.3157L21.0881 8.04443ZM21.0881 9.25925L7.7613 16.9231V32.2509L21.0881 39.9147L34.4148 32.2509V16.9231L21.0881 9.25925Z" fill="#02031C"/>
<path fill-rule="evenodd" clip-rule="evenodd" d="M31.0393 7.41748L40.9912 24.5867L31.0393 41.7559H11.1355L1.18359 24.5867L11.1355 7.41748H31.0393ZM30.4361 8.45804H11.7386L2.38989 24.5867L11.7386 40.7153H30.4361L39.7849 24.5867L30.4361 8.45804Z" fill="#02031C"/>
<path fill-rule="evenodd" clip-rule="evenodd" d="M28.0172 12.6304L34.9475 24.5865L28.0172 36.5427H14.1568L7.22656 24.5865L14.1568 12.6304H28.0172ZM27.4506 13.6079H14.7234L8.35978 24.5865L14.7234 35.5652H27.4506L33.8142 24.5865L27.4506 13.6079Z" fill="#02031C"/>
<path fill-rule="evenodd" clip-rule="evenodd" d="M21.0881 13.1187L31.0591 18.8527V30.3207L21.0881 36.0547L11.1172 30.3207V18.8527L21.0881 13.1187ZM21.0881 15.1537L12.8866 19.8702V29.3032L21.0881 34.0197L29.2897 29.3032V19.8702L21.0881 15.1537Z" fill="#02031C"/>
<path fill-rule="evenodd" clip-rule="evenodd" d="M30.5 18.6558L31.021 19.5581L21.5661 25.0162L21.5663 35.236H20.5244L20.524 24.9797L11.1328 19.5581L11.6538 18.6558L21.077 24.0956L30.5 18.6558Z" fill="#02031C"/>
<path fill-rule="evenodd" clip-rule="evenodd" d="M70.0729 30.6624C70.2547 30.6624 70.4117 30.7276 70.544 30.858C70.6762 30.9884 70.7423 31.1433 70.7423 31.3226V32.2029C70.7423 32.3823 70.6762 32.5371 70.544 32.6675C70.4117 32.798 70.2547 32.8632 70.0729 32.8632H59.9819C59.8001 32.8632 59.6431 32.798 59.5108 32.6675C59.3786 32.5371 59.3125 32.3823 59.3125 32.2029V16.4063C59.3125 16.227 59.3786 16.0721 59.5108 15.9417C59.6431 15.8113 59.8001 15.7461 59.9819 15.7461H60.9985C61.1803 15.7461 61.3373 15.8113 61.4695 15.9417C61.6018 16.0721 61.6679 16.227 61.6679 16.4063V30.6624H70.0729ZM76.9903 23.9378L85.4449 31.885C85.544 31.9829 85.6102 32.0684 85.6432 32.1418C85.6763 32.2152 85.6928 32.2763 85.6928 32.3252C85.6928 32.4719 85.6391 32.5983 85.5316 32.7042C85.4242 32.8102 85.2961 32.8632 85.1474 32.8632H83.6101C83.3787 32.8632 83.1887 32.8183 83.0399 32.7287C82.8911 32.639 82.7837 32.5616 82.7176 32.4964L75.701 25.8941V32.2029C75.701 32.3823 75.6349 32.5371 75.5027 32.6675C75.3704 32.798 75.2134 32.8632 75.0316 32.8632H74.0151C73.8332 32.8632 73.6762 32.798 73.544 32.6675C73.4117 32.5371 73.3456 32.3823 73.3456 32.2029V16.4063C73.3456 16.227 73.4117 16.0721 73.544 15.9417C73.6762 15.8113 73.8332 15.7461 74.0151 15.7461H75.0316C75.2134 15.7461 75.3704 15.8113 75.5027 15.9417C75.6349 16.0721 75.701 16.227 75.701 16.4063V22.1039L82.3209 16.1129C82.387 16.0477 82.4944 15.9702 82.6432 15.8806C82.792 15.7909 82.982 15.7461 83.2135 15.7461H84.6515C84.8002 15.7461 84.9283 15.7991 85.0358 15.905C85.1432 16.011 85.1969 16.1373 85.1969 16.2841C85.1969 16.333 85.1804 16.3941 85.1474 16.4675C85.1143 16.5408 85.0482 16.6264 84.949 16.7242L76.9903 23.9378ZM95.9077 26.0897L100.916 16.5286C101.015 16.333 101.152 16.1536 101.325 15.9906C101.499 15.8276 101.726 15.7461 102.007 15.7461H102.949C103.131 15.7461 103.288 15.8113 103.42 15.9417C103.552 16.0721 103.619 16.227 103.619 16.4063V32.2029C103.619 32.3823 103.552 32.5371 103.42 32.6675C103.288 32.798 103.131 32.8632 102.949 32.8632H101.933C101.751 32.8632 101.594 32.798 101.461 32.6675C101.329 32.5371 101.263 32.3823 101.263 32.2029V20.6122L97.3953 27.9726C97.2631 28.2171 97.1226 28.4087 96.9739 28.5472C96.8251 28.6858 96.6268 28.7551 96.3788 28.7551H95.4367C95.1887 28.7551 94.9904 28.6858 94.8416 28.5472C94.6928 28.4087 94.5524 28.2171 94.4201 27.9726L90.5523 20.6122V32.2029C90.5523 32.3823 90.4862 32.5371 90.354 32.6675C90.2218 32.798 90.0647 32.8632 89.8829 32.8632H88.8664C88.6846 32.8632 88.5275 32.798 88.3953 32.6675C88.2631 32.5371 88.1969 32.3823 88.1969 32.2029V16.4063C88.1969 16.227 88.2631 16.0721 88.3953 15.9417C88.5275 15.8113 88.6846 15.7461 88.8664 15.7461H89.8085C90.0895 15.7461 90.3168 15.8276 90.4904 15.9906C90.6639 16.1536 90.8003 16.333 90.8994 16.5286L95.9077 26.0897ZM113.61 25.9919L108.949 32.3008C108.866 32.3986 108.759 32.5168 108.627 32.6553C108.495 32.7939 108.263 32.8632 107.933 32.8632H106.866C106.718 32.8632 106.59 32.8102 106.482 32.7042C106.375 32.5983 106.321 32.4719 106.321 32.3252C106.321 32.2926 106.325 32.2559 106.333 32.2152C106.342 32.1744 106.362 32.1214 106.395 32.0562L112.247 24.1335L106.643 16.553C106.594 16.4552 106.569 16.3656 106.569 16.2841C106.569 16.1373 106.623 16.011 106.73 15.905C106.838 15.7991 106.966 15.7461 107.114 15.7461H108.28C108.61 15.7461 108.85 15.8276 108.999 15.9906C109.147 16.1536 109.255 16.2759 109.321 16.3574L113.734 22.3239L118.048 16.3819C118.114 16.3004 118.222 16.174 118.371 16.0029C118.519 15.8317 118.759 15.7461 119.09 15.7461H120.156C120.305 15.7461 120.433 15.7991 120.54 15.905C120.648 16.011 120.701 16.1373 120.701 16.2841C120.701 16.3656 120.676 16.4552 120.627 16.553L115.098 24.1824L120.924 32.0562C120.957 32.1214 120.978 32.1744 120.986 32.2152C120.995 32.2559 120.999 32.2926 120.999 32.3252C120.999 32.4719 120.945 32.5983 120.838 32.7042C120.73 32.8102 120.602 32.8632 120.453 32.8632H119.288C118.957 32.8632 118.726 32.7939 118.594 32.6553C118.462 32.5168 118.354 32.3986 118.271 32.3008L113.61 25.9919Z" fill="#02031C"/>
</g>
<defs>
<clipPath id="clip0">
<rect width="121" height="48.4" fill="white" transform="translate(0 0.399902)"/>
</clipPath>
</defs>
</svg>
